Hoogli-Bold_b007.ufo
<glyph name="quotedbl" format="1">
  <advance width="404"/>
  <unicode hex="0022"/>
  <outline>
    <contour>
      <point x="250" y="343" type="curve" smooth="yes"/>
      <point x="273" y="338"/>
      <point x="302" y="351"/>
      <point x="307" y="373" type="curve" smooth="yes"/>
      <point x="349" y="546" type="line" smooth="yes"/>
      <point x="354" y="567"/>
      <point x="335" y="592"/>
      <point x="312" y="597" type="curve" smooth="yes"/>
      <point x="289" y="601"/>
      <point x="260" y="588"/>
      <point x="255" y="567" type="curve" smooth="yes"/>
      <point x="213" y="393" type="line" smooth="yes"/>
      <point x="208" y="372"/>
      <point x="227" y="348"/>
    </contour>
    <contour>
      <point x="83" y="343" type="curve" smooth="yes"/>
      <point x="106" y="338"/>
      <point x="135" y="351"/>
      <point x="140" y="373" type="curve" smooth="yes"/>
      <point x="182" y="546" type="line" smooth="yes"/>
      <point x="187" y="567"/>
      <point x="168" y="592"/>
      <point x="145" y="597" type="curve" smooth="yes"/>
      <point x="122" y="601"/>
      <point x="93" y="588"/>
      <point x="88" y="567" type="curve" smooth="yes"/>
      <point x="46" y="393" type="line" smooth="yes"/>
      <point x="41" y="372"/>
      <point x="60" y="348"/>
    </contour>
  </outline>
</glyph>
<glyph name="dollar" format="1">
  <advance width="583"/>
  <unicode hex="0024"/>
  <outline>
    <contour>
      <point x="292" y="-22" type="curve" smooth="yes"/>
      <point x="477" y="-22"/>
      <point x="539" y="62"/>
      <point x="539" y="140" type="curve" smooth="yes"/>
      <point x="539" y="218"/>
      <point x="491" y="287"/>
      <point x="300" y="321" type="curve" smooth="yes"/>
      <point x="190" y="339"/>
      <point x="153" y="373"/>
      <point x="153" y="410" type="curve" smooth="yes"/>
      <point x="153" y="447"/>
      <point x="206" y="473"/>
      <point x="268" y="473" type="curve" smooth="yes"/>
      <point x="344" y="473"/>
      <point x="382" y="462"/>
      <point x="434" y="444" type="curve" smooth="yes"/>
      <point x="457" y="438"/>
      <point x="483" y="449"/>
      <point x="491" y="470" type="curve" smooth="yes"/>
      <point x="498" y="491"/>
      <point x="486" y="516"/>
      <point x="464" y="523" type="curve" smooth="yes"/>
      <point x="402" y="543"/>
      <point x="358" y="555"/>
      <point x="268" y="555" type="curve" smooth="yes"/>
      <point x="124" y="555"/>
      <point x="55" y="479"/>
      <point x="55" y="410" type="curve" smooth="yes"/>
      <point x="55" y="350"/>
      <point x="74" y="273"/>
      <point x="286" y="240" type="curve" smooth="yes"/>
      <point x="389" y="222"/>
      <point x="441" y="190"/>
      <point x="441" y="140" type="curve" smooth="yes"/>
      <point x="441" y="94"/>
      <point x="383" y="62"/>
      <point x="292" y="62" type="curve" smooth="yes"/>
      <point x="227" y="62"/>
      <point x="165" y="73"/>
      <point x="108" y="99" type="curve" smooth="yes"/>
      <point x="87" y="109"/>
      <point x="60" y="100"/>
      <point x="50" y="80" type="curve" smooth="yes"/>
      <point x="39" y="61"/>
      <point x="48" y="34"/>
      <point x="70" y="25" type="curve" smooth="yes"/>
      <point x="139" y="-7"/>
      <point x="213" y="-22"/>
    </contour>
    <contour>
      <point x="288" y="-119" type="curve" smooth="yes"/>
      <point x="312" y="-119"/>
      <point x="337" y="-99"/>
      <point x="337" y="-77" type="curve" smooth="yes"/>
      <point x="337" y="604" type="line" smooth="yes"/>
      <point x="337" y="627"/>
      <point x="312" y="646"/>
      <point x="288" y="646" type="curve" smooth="yes"/>
      <point x="264" y="646"/>
      <point x="239" y="627"/>
      <point x="239" y="604" type="curve" smooth="yes"/>
      <point x="239" y="-77" type="line" smooth="yes"/>
      <point x="239" y="-99"/>
      <point x="264" y="-119"/>
    </contour>
  </outline>
</glyph>
<glyph name="ampersand" format="1">
  <advance width="646"/>
  <unicode hex="0026"/>
  <outline>
    <contour>
      <point x="235" y="-21" type="curve" smooth="yes"/>
      <point x="322" y="-21"/>
      <point x="392" y="11"/>
      <point x="483" y="134" type="curve" smooth="yes"/>
      <point x="573" y="255" type="line" smooth="yes"/>
      <point x="587" y="273"/>
      <point x="581" y="300"/>
      <point x="561" y="314" type="curve" smooth="yes"/>
      <point x="542" y="326"/>
      <point x="512" y="323"/>
      <point x="499" y="304" type="curve" smooth="yes"/>
      <point x="409" y="184" type="line" smooth="yes"/>
      <point x="344" y="98"/>
      <point x="300" y="63"/>
      <point x="235" y="63" type="curve" smooth="yes"/>
      <point x="179" y="63"/>
      <point x="136" y="93"/>
      <point x="136" y="136" type="curve" smooth="yes"/>
      <point x="136" y="190"/>
      <point x="173" y="226"/>
      <point x="293" y="272" type="curve" smooth="yes"/>
      <point x="382" y="308"/>
      <point x="421" y="357"/>
      <point x="421" y="420" type="curve" smooth="yes"/>
      <point x="421" y="496"/>
      <point x="351" y="556"/>
      <point x="261" y="556" type="curve" smooth="yes"/>
      <point x="173" y="556"/>
      <point x="104" y="503"/>
      <point x="104" y="416" type="curve" smooth="yes"/>
      <point x="104" y="351"/>
      <point x="152" y="301"/>
      <point x="227" y="239" type="curve" smooth="yes"/>
      <point x="523" y="-3" type="line" smooth="yes"/>
      <point x="541" y="-18"/>
      <point x="570" y="-16"/>
      <point x="585" y="2" type="curve" smooth="yes"/>
      <point x="601" y="18"/>
      <point x="599" y="45"/>
      <point x="581" y="61" type="curve" smooth="yes"/>
      <point x="287" y="301" type="line" smooth="yes"/>
      <point x="238" y="343"/>
      <point x="202" y="374"/>
      <point x="202" y="416" type="curve" smooth="yes"/>
      <point x="202" y="448"/>
      <point x="225" y="473"/>
      <point x="261" y="473" type="curve" smooth="yes"/>
      <point x="297" y="473"/>
      <point x="323" y="449"/>
      <point x="323" y="420" type="curve" smooth="yes"/>
      <point x="323" y="389"/>
      <point x="302" y="366"/>
      <point x="259" y="349" type="curve" smooth="yes"/>
      <point x="71" y="277"/>
      <point x="38" y="214"/>
      <point x="38" y="136" type="curve" smooth="yes"/>
      <point x="38" y="49"/>
      <point x="117" y="-21"/>
    </contour>
  </outline>
</glyph>
<glyph name="asterisk" format="1">
  <advance width="433"/>
  <unicode hex="002A"/>
  <outline>
    <contour>
      <point x="361" y="438" type="line" smooth="yes"/>
      <point x="381" y="449"/>
      <point x="388" y="474"/>
      <point x="376" y="493" type="curve" smooth="yes"/>
      <point x="364" y="512"/>
      <point x="337" y="519"/>
      <point x="317" y="507" type="curve" smooth="yes"/>
      <point x="72" y="373" type="line" smooth="yes"/>
      <point x="45" y="357"/>
      <point x="41" y="342"/>
      <point x="57" y="317" type="curve" smooth="yes"/>
      <point x="69" y="298"/>
      <point x="96" y="292"/>
      <point x="116" y="303" type="curve" smooth="yes"/>
    </contour>
    <contour>
      <point x="317" y="303" type="line" smooth="yes"/>
      <point x="337" y="292"/>
      <point x="364" y="298"/>
      <point x="376" y="317" type="curve" smooth="yes"/>
      <point x="388" y="336"/>
      <point x="381" y="361"/>
      <point x="361" y="373" type="curve" smooth="yes"/>
      <point x="116" y="507" type="line" smooth="yes"/>
      <point x="96" y="519"/>
      <point x="69" y="512"/>
      <point x="57" y="493" type="curve" smooth="yes"/>
      <point x="45" y="474"/>
      <point x="52" y="449"/>
      <point x="72" y="438" type="curve" smooth="yes"/>
    </contour>
    <contour>
      <point x="216" y="245" type="curve" smooth="yes"/>
      <point x="239" y="245"/>
      <point x="259" y="263"/>
      <point x="259" y="285" type="curve" smooth="yes"/>
      <point x="259" y="530" type="line" smooth="yes"/>
      <point x="259" y="552"/>
      <point x="239" y="570"/>
      <point x="216" y="570" type="curve" smooth="yes"/>
      <point x="193" y="570"/>
      <point x="173" y="552"/>
      <point x="173" y="530" type="curve" smooth="yes"/>
      <point x="173" y="285" type="line" smooth="yes"/>
      <point x="173" y="263"/>
      <point x="193" y="245"/>
    </contour>
  </outline>
</glyph>
<glyph name="slash" format="1">
  <advance width="395"/>
  <unicode hex="002F"/>
  <outline>
    <contour>
      <point x="49" y="-109" type="curve" smooth="yes"/>
      <point x="71" y="-117"/>
      <point x="101" y="-107"/>
      <point x="109" y="-86" type="curve" smooth="yes"/>
      <point x="370" y="586" type="line" smooth="yes"/>
      <point x="378" y="607"/>
      <point x="362" y="632"/>
      <point x="340" y="640" type="curve" smooth="yes"/>
      <point x="318" y="648"/>
      <point x="288" y="638"/>
      <point x="280" y="616" type="curve" smooth="yes"/>
      <point x="19" y="-56" type="line" smooth="yes"/>
      <point x="11" y="-76"/>
      <point x="27" y="-101"/>
    </contour>
  </outline>
</glyph>
<glyph name="one" format="1">
  <advance width="324"/>
  <unicode hex="0031"/>
  <outline>
    <contour>
      <point x="205" y="-13" type="curve" smooth="yes"/>
      <point x="229" y="-13"/>
      <point x="254" y="5"/>
      <point x="254" y="29" type="curve" smooth="yes"/>
      <point x="254" y="501" type="line" smooth="yes"/>
      <point x="254" y="523"/>
      <point x="229" y="542"/>
      <point x="205" y="542" type="curve" smooth="yes"/>
      <point x="181" y="542"/>
      <point x="156" y="523"/>
      <point x="156" y="501" type="curve" smooth="yes"/>
      <point x="156" y="29" type="line" smooth="yes"/>
      <point x="156" y="5"/>
      <point x="181" y="-13"/>
    </contour>
    <contour>
      <point x="226" y="471" type="line" smooth="yes"/>
      <point x="247" y="482"/>
      <point x="255" y="507"/>
      <point x="244" y="527" type="curve" smooth="yes"/>
      <point x="232" y="547"/>
      <point x="205" y="554"/>
      <point x="184" y="544" type="curve" smooth="yes"/>
      <point x="48" y="474" type="line" smooth="yes"/>
      <point x="27" y="463"/>
      <point x="19" y="438"/>
      <point x="30" y="418" type="curve" smooth="yes"/>
      <point x="42" y="398"/>
      <point x="69" y="390"/>
      <point x="90" y="401" type="curve" smooth="yes"/>
    </contour>
  </outline>
</glyph>
<glyph name="six" format="1">
  <advance width="546"/>
  <unicode hex="0036"/>
  <outline>
    <contour>
      <point x="289" y="-17" type="curve" smooth="yes"/>
      <point x="449" y="-17"/>
      <point x="514" y="80"/>
      <point x="514" y="174" type="curve" smooth="yes"/>
      <point x="514" y="281"/>
      <point x="430" y="352"/>
      <point x="310" y="352" type="curve" smooth="yes"/>
      <point x="198" y="352"/>
      <point x="99" y="287"/>
      <point x="61" y="157" type="curve" smooth="yes"/>
      <point x="54" y="134"/>
      <point x="72" y="110"/>
      <point x="95" y="104" type="curve" smooth="yes"/>
      <point x="118" y="98"/>
      <point x="147" y="110"/>
      <point x="153" y="131" type="curve" smooth="yes"/>
      <point x="177" y="214"/>
      <point x="234" y="269"/>
      <point x="310" y="269" type="curve" smooth="yes"/>
      <point x="374" y="269"/>
      <point x="416" y="229"/>
      <point x="416" y="174" type="curve" smooth="yes"/>
      <point x="416" y="122"/>
      <point x="379" y="66"/>
      <point x="289" y="66" type="curve" smooth="yes"/>
      <point x="193" y="66"/>
      <point x="139" y="137"/>
      <point x="139" y="252" type="curve" smooth="yes"/>
      <point x="139" y="379"/>
      <point x="195" y="474"/>
      <point x="311" y="474" type="curve" smooth="yes"/>
      <point x="341" y="474"/>
      <point x="360" y="471"/>
      <point x="384" y="463" type="curve" smooth="yes"/>
      <point x="406" y="456"/>
      <point x="432" y="469"/>
      <point x="439" y="490" type="curve" smooth="yes"/>
      <point x="446" y="511"/>
      <point x="433" y="536"/>
      <point x="410" y="542" type="curve" smooth="yes"/>
      <point x="378" y="552"/>
      <point x="351" y="557"/>
      <point x="311" y="557" type="curve" smooth="yes"/>
      <point x="153" y="557"/>
      <point x="41" y="452"/>
      <point x="41" y="252" type="curve" smooth="yes"/>
      <point x="41" y="63"/>
      <point x="151" y="-17"/>
    </contour>
  </outline>
</glyph>
<glyph name="seven" format="1">
  <advance width="469"/>
  <unicode hex="0037"/>
  <outline>
    <contour>
      <point x="192" y="-13" type="curve" smooth="yes"/>
      <point x="216" y="-13"/>
      <point x="241" y="5"/>
      <point x="241" y="29" type="curve" smooth="yes"/>
      <point x="241" y="83" type="line" smooth="yes"/>
      <point x="241" y="133"/>
      <point x="259" y="186"/>
      <point x="283" y="227" type="curve" smooth="yes"/>
      <point x="314" y="278"/>
      <point x="423" y="416"/>
      <point x="463" y="486" type="curve" smooth="yes"/>
      <point x="474" y="505"/>
      <point x="464" y="532"/>
      <point x="443" y="543" type="curve" smooth="yes"/>
      <point x="422" y="553"/>
      <point x="392" y="547"/>
      <point x="381" y="527" type="curve" smooth="yes"/>
      <point x="341" y="457"/>
      <point x="234" y="321"/>
      <point x="203" y="270" type="curve" smooth="yes"/>
      <point x="171" y="216"/>
      <point x="143" y="149"/>
      <point x="143" y="83" type="curve" smooth="yes"/>
      <point x="143" y="29" type="line" smooth="yes"/>
      <point x="143" y="5"/>
      <point x="168" y="-13"/>
    </contour>
    <contour>
      <point x="414" y="466" type="line" smooth="yes"/>
      <point x="438" y="466"/>
      <point x="458" y="485"/>
      <point x="458" y="507" type="curve" smooth="yes"/>
      <point x="458" y="530"/>
      <point x="438" y="549"/>
      <point x="414" y="549" type="curve" smooth="yes"/>
      <point x="54" y="549" type="line" smooth="yes"/>
      <point x="30" y="549"/>
      <point x="10" y="530"/>
      <point x="10" y="507" type="curve" smooth="yes"/>
      <point x="10" y="485"/>
      <point x="30" y="466"/>
      <point x="54" y="466" type="curve" smooth="yes"/>
    </contour>
  </outline>
</glyph>
<glyph name="less" format="1">
  <advance width="537"/>
  <unicode hex="003C"/>
  <outline>
    <contour>
      <point x="413" y="84" type="line" smooth="yes"/>
      <point x="434" y="74"/>
      <point x="461" y="84"/>
      <point x="471" y="104" type="curve" smooth="yes"/>
      <point x="481" y="126"/>
      <point x="471" y="150"/>
      <point x="449" y="160" type="curve" smooth="yes"/>
      <point x="111" y="303" type="line" smooth="yes"/>
      <point x="90" y="313"/>
      <point x="63" y="303"/>
      <point x="53" y="283" type="curve" smooth="yes"/>
      <point x="43" y="261"/>
      <point x="53" y="237"/>
      <point x="75" y="228" type="curve" smooth="yes"/>
    </contour>
    <contour>
      <point x="443" y="370" type="line" smooth="yes"/>
      <point x="465" y="379"/>
      <point x="475" y="404"/>
      <point x="465" y="424" type="curve" smooth="yes"/>
      <point x="455" y="445"/>
      <point x="429" y="455"/>
      <point x="407" y="445" type="curve" smooth="yes"/>
      <point x="81" y="307" type="line" smooth="yes"/>
      <point x="59" y="297"/>
      <point x="49" y="273"/>
      <point x="59" y="253" type="curve" smooth="yes"/>
      <point x="69" y="231"/>
      <point x="95" y="222"/>
      <point x="117" y="231" type="curve" smooth="yes"/>
    </contour>
  </outline>
</glyph>
<glyph name="equal" format="1">
  <advance width="537"/>
  <unicode hex="003D"/>
  <outline>
    <contour>
      <point x="445" y="317" type="line" smooth="yes"/>
      <point x="469" y="317"/>
      <point x="489" y="336"/>
      <point x="489" y="358" type="curve" smooth="yes"/>
      <point x="489" y="381"/>
      <point x="469" y="400"/>
      <point x="445" y="400" type="curve" smooth="yes"/>
      <point x="91" y="400" type="line" smooth="yes"/>
      <point x="67" y="400"/>
      <point x="47" y="381"/>
      <point x="47" y="358" type="curve" smooth="yes"/>
      <point x="47" y="336"/>
      <point x="67" y="317"/>
      <point x="91" y="317" type="curve" smooth="yes"/>
    </contour>
    <contour>
      <point x="445" y="122" type="line" smooth="yes"/>
      <point x="469" y="122"/>
      <point x="489" y="140"/>
      <point x="489" y="163" type="curve" smooth="yes"/>
      <point x="489" y="186"/>
      <point x="469" y="204"/>
      <point x="445" y="204" type="curve" smooth="yes"/>
      <point x="91" y="204" type="line" smooth="yes"/>
      <point x="67" y="204"/>
      <point x="47" y="186"/>
      <point x="47" y="163" type="curve" smooth="yes"/>
      <point x="47" y="140"/>
      <point x="67" y="122"/>
      <point x="91" y="122" type="curve" smooth="yes"/>
    </contour>
  </outline>
</glyph>
<glyph name="greater" format="1">
  <advance width="521"/>
  <unicode hex="003E"/>
  <outline>
    <contour>
      <point x="458" y="228" type="line" smooth="yes"/>
      <point x="480" y="237"/>
      <point x="490" y="261"/>
      <point x="480" y="283" type="curve" smooth="yes"/>
      <point x="470" y="303"/>
      <point x="443" y="313"/>
      <point x="422" y="303" type="curve" smooth="yes"/>
      <point x="84" y="160" type="line" smooth="yes"/>
      <point x="62" y="150"/>
      <point x="52" y="126"/>
      <point x="62" y="104" type="curve" smooth="yes"/>
      <point x="72" y="84"/>
      <point x="99" y="74"/>
      <point x="120" y="84" type="curve" smooth="yes"/>
    </contour>
    <contour>
      <point x="416" y="231" type="line" smooth="yes"/>
      <point x="437" y="222"/>
      <point x="464" y="231"/>
      <point x="474" y="253" type="curve" smooth="yes"/>
      <point x="484" y="273"/>
      <point x="474" y="297"/>
      <point x="452" y="307" type="curve" smooth="yes"/>
      <point x="127" y="445" type="line" smooth="yes"/>
      <point x="106" y="455"/>
      <point x="79" y="445"/>
      <point x="69" y="424" type="curve" smooth="yes"/>
      <point x="59" y="404"/>
      <point x="69" y="379"/>
      <point x="91" y="370" type="curve" smooth="yes"/>
    </contour>
  </outline>
</glyph>
<glyph name="question" format="1">
  <advance width="370"/>
  <unicode hex="003F"/>
  <outline>
    <contour>
      <point x="154" y="166" type="curve" smooth="yes"/>
      <point x="177" y="165"/>
      <point x="204" y="184"/>
      <point x="205" y="205" type="curve" smooth="yes"/>
      <point x="207" y="237"/>
      <point x="215" y="251"/>
      <point x="252" y="269" type="curve" smooth="yes"/>
      <point x="320" y="302"/>
      <point x="372" y="350"/>
      <point x="372" y="415" type="curve" smooth="yes"/>
      <point x="372" y="489"/>
      <point x="313" y="557"/>
      <point x="194" y="557" type="curve" smooth="yes"/>
      <point x="125" y="557"/>
      <point x="82" y="543"/>
      <point x="39" y="518" type="curve" smooth="yes"/>
      <point x="18" y="505"/>
      <point x="12" y="479"/>
      <point x="25" y="460" type="curve" smooth="yes"/>
      <point x="37" y="442"/>
      <point x="65" y="435"/>
      <point x="85" y="446" type="curve" smooth="yes"/>
      <point x="116" y="464"/>
      <point x="145" y="474"/>
      <point x="194" y="474" type="curve" smooth="yes"/>
      <point x="243" y="474"/>
      <point x="274" y="448"/>
      <point x="274" y="415" type="curve" smooth="yes"/>
      <point x="274" y="382"/>
      <point x="246" y="358"/>
      <point x="212" y="343" type="curve" smooth="yes"/>
      <point x="135" y="305"/>
      <point x="111" y="279"/>
      <point x="107" y="211" type="curve" smooth="yes"/>
      <point x="106" y="189"/>
      <point x="130" y="167"/>
    </contour>
    <contour>
      <point x="162" y="-18" type="curve" smooth="yes"/>
      <point x="199" y="-18"/>
      <point x="232" y="-4"/>
      <point x="232" y="52" type="curve" smooth="yes"/>
      <point x="232" y="97"/>
      <point x="198" y="122"/>
      <point x="161" y="122" type="curve" smooth="yes"/>
      <point x="122" y="122"/>
      <point x="91" y="99"/>
      <point x="91" y="52" type="curve" smooth="yes"/>
      <point x="91" y="-2"/>
      <point x="132" y="-18"/>
    </contour>
  </outline>
</glyph>
<glyph name="G" format="1">
  <advance width="629"/>
  <unicode hex="0047"/>
  <outline>
    <contour>
      <point x="339" y="-23" type="curve" smooth="yes"/>
      <point x="429" y="-23"/>
      <point x="495" y="1"/>
      <point x="551" y="34" type="curve" smooth="yes"/>
      <point x="571" y="44"/>
      <point x="577" y="70"/>
      <point x="564" y="91" type="curve" smooth="yes"/>
      <point x="551" y="109"/>
      <point x="523" y="115"/>
      <point x="503" y="102" type="curve" smooth="yes"/>
      <point x="461" y="77"/>
      <point x="409" y="61"/>
      <point x="339" y="61" type="curve" smooth="yes"/>
      <point x="203" y="61"/>
      <point x="129" y="154"/>
      <point x="129" y="264" type="curve" smooth="yes"/>
      <point x="129" y="387"/>
      <point x="216" y="475"/>
      <point x="342" y="475" type="curve" smooth="yes"/>
      <point x="395" y="475"/>
      <point x="440" y="465"/>
      <point x="479" y="451" type="curve" smooth="yes"/>
      <point x="501" y="442"/>
      <point x="527" y="454"/>
      <point x="536" y="474" type="curve" smooth="yes"/>
      <point x="545" y="495"/>
      <point x="533" y="520"/>
      <point x="511" y="528" type="curve" smooth="yes"/>
      <point x="462" y="546"/>
      <point x="407" y="558"/>
      <point x="342" y="558" type="curve" smooth="yes"/>
      <point x="166" y="558"/>
      <point x="31" y="443"/>
      <point x="31" y="264" type="curve" smooth="yes"/>
      <point x="31" y="102"/>
      <point x="147" y="-23"/>
    </contour>
    <contour>
      <point x="516" y="208" type="line" smooth="yes"/>
      <point x="540" y="208"/>
      <point x="560" y="227"/>
      <point x="560" y="250" type="curve" smooth="yes"/>
      <point x="560" y="272"/>
      <point x="540" y="291"/>
      <point x="516" y="291" type="curve" smooth="yes"/>
      <point x="355" y="291" type="line" smooth="yes"/>
      <point x="331" y="291"/>
      <point x="311" y="272"/>
      <point x="311" y="250" type="curve" smooth="yes"/>
      <point x="311" y="227"/>
      <point x="331" y="208"/>
      <point x="355" y="208" type="curve" smooth="yes"/>
    </contour>
    <contour>
      <point x="528" y="35" type="curve" smooth="yes"/>
      <point x="552" y="35"/>
      <point x="577" y="55"/>
      <point x="577" y="77" type="curve" smooth="yes"/>
      <point x="577" y="250" type="line" smooth="yes"/>
      <point x="577" y="272"/>
      <point x="552" y="291"/>
      <point x="528" y="291" type="curve" smooth="yes"/>
      <point x="504" y="291"/>
      <point x="479" y="272"/>
      <point x="479" y="250" type="curve" smooth="yes"/>
      <point x="479" y="77" type="line" smooth="yes"/>
      <point x="479" y="55"/>
      <point x="504" y="35"/>
    </contour>
    <contour>
      <point x="320" y="557" type="move" name="top"/>
    </contour>
    <contour>
      <point x="316" y="-20" type="move" name="bottom"/>
    </contour>
  </outline>
</glyph>
<glyph name="L" format="1">
  <advance width="462"/>
  <unicode hex="004C"/>
  <outline>
    <contour>
      <point x="119" y="-13" type="curve" smooth="yes"/>
      <point x="143" y="-13"/>
      <point x="168" y="5"/>
      <point x="168" y="29" type="curve" smooth="yes"/>
      <point x="168" y="507" type="line" smooth="yes"/>
      <point x="168" y="530"/>
      <point x="143" y="549"/>
      <point x="119" y="549" type="curve" smooth="yes"/>
      <point x="95" y="549"/>
      <point x="70" y="530"/>
      <point x="70" y="507" type="curve" smooth="yes"/>
      <point x="70" y="29" type="line" smooth="yes"/>
      <point x="70" y="5"/>
      <point x="95" y="-13"/>
    </contour>
    <contour>
      <point x="404" y="-13" type="line" smooth="yes"/>
      <point x="428" y="-13"/>
      <point x="448" y="5"/>
      <point x="448" y="29" type="curve" smooth="yes"/>
      <point x="448" y="51"/>
      <point x="428" y="69"/>
      <point x="404" y="69" type="curve" smooth="yes"/>
      <point x="128" y="69" type="line" smooth="yes"/>
      <point x="104" y="69"/>
      <point x="84" y="51"/>
      <point x="84" y="29" type="curve" smooth="yes"/>
      <point x="84" y="5"/>
      <point x="104" y="-13"/>
      <point x="128" y="-13" type="curve" smooth="yes"/>
    </contour>
    <contour>
      <point x="118" y="547" type="move" name="top"/>
    </contour>
    <contour>
      <point x="266" y="-11" type="move" name="bottom"/>
    </contour>
  </outline>
</glyph>
<glyph name="M" format="1">
  <advance width="841"/>
  <unicode hex="004D"/>
  <outline>
    <contour>
      <point x="437" y="7" type="curve" smooth="yes"/>
      <point x="458" y="17"/>
      <point x="471" y="44"/>
      <point x="460" y="65" type="curve" smooth="yes"/>
      <point x="390" y="202"/>
      <point x="291" y="396"/>
      <point x="226" y="522" type="curve" smooth="yes"/>
      <point x="216" y="543"/>
      <point x="186" y="551"/>
      <point x="165" y="541" type="curve" smooth="yes"/>
      <point x="143" y="531"/>
      <point x="131" y="504"/>
      <point x="142" y="485" type="curve" smooth="yes"/>
      <point x="207" y="358"/>
      <point x="306" y="164"/>
      <point x="376" y="27" type="curve" smooth="yes"/>
      <point x="386" y="5"/>
      <point x="415" y="-1"/>
    </contour>
    <contour>
      <point x="95" y="-15" type="curve" smooth="yes"/>
      <point x="119" y="-17"/>
      <point x="146" y="0"/>
      <point x="149" y="22" type="curve" smooth="yes"/>
      <point x="162" y="134"/>
      <point x="194" y="368"/>
      <point x="220" y="508" type="curve" smooth="yes"/>
      <point x="224" y="530"/>
      <point x="203" y="552"/>
      <point x="180" y="556" type="curve" smooth="yes"/>
      <point x="156" y="560"/>
      <point x="128" y="546"/>
      <point x="124" y="523" type="curve" smooth="yes"/>
      <point x="98" y="381"/>
      <point x="64" y="146"/>
      <point x="51" y="32" type="curve" smooth="yes"/>
      <point x="49" y="9"/>
      <point x="72" y="-12"/>
    </contour>
    <contour>
      <point x="404" y="19" type="curve" smooth="yes"/>
      <point x="426" y="9"/>
      <point x="456" y="18"/>
      <point x="465" y="38" type="curve" smooth="yes"/>
      <point x="528" y="172"/>
      <point x="611" y="347"/>
      <point x="688" y="489" type="curve" smooth="yes"/>
      <point x="699" y="509"/>
      <point x="687" y="536"/>
      <point x="666" y="546" type="curve" smooth="yes"/>
      <point x="645" y="556"/>
      <point x="615" y="549"/>
      <point x="604" y="529" type="curve" smooth="yes"/>
      <point x="527" y="384"/>
      <point x="442" y="210"/>
      <point x="379" y="74" type="curve" smooth="yes"/>
      <point x="369" y="54"/>
      <point x="383" y="28"/>
    </contour>
    <contour>
      <point x="746" y="-15" type="curve" smooth="yes"/>
      <point x="769" y="-11"/>
      <point x="792" y="10"/>
      <point x="788" y="34" type="curve" smooth="yes"/>
      <point x="769" y="164"/>
      <point x="734" y="371"/>
      <point x="702" y="525" type="curve" smooth="yes"/>
      <point x="697" y="548"/>
      <point x="669" y="562"/>
      <point x="646" y="557" type="curve" smooth="yes"/>
      <point x="622" y="553"/>
      <point x="602" y="530"/>
      <point x="606" y="508" type="curve" smooth="yes"/>
      <point x="638" y="356"/>
      <point x="673" y="152"/>
      <point x="692" y="20" type="curve" smooth="yes"/>
      <point x="695" y="-1"/>
      <point x="722" y="-18"/>
    </contour>
  </outline>
</glyph>
<glyph name="R" format="1">
  <advance width="548"/>
  <unicode hex="0052"/>
  <outline>
    <contour>
      <point x="119" y="-13" type="curve" smooth="yes"/>
      <point x="143" y="-13"/>
      <point x="168" y="5"/>
      <point x="168" y="29" type="curve" smooth="yes"/>
      <point x="168" y="507" type="line"/>
      <point x="119" y="466" type="line"/>
      <point x="274" y="466" type="line" smooth="yes"/>
      <point x="348" y="466"/>
      <point x="399" y="425"/>
      <point x="399" y="366" type="curve" smooth="yes"/>
      <point x="399" y="311"/>
      <point x="356" y="266"/>
      <point x="274" y="266" type="curve" smooth="yes"/>
      <point x="136" y="266" type="line" smooth="yes"/>
      <point x="112" y="266"/>
      <point x="92" y="248"/>
      <point x="92" y="225" type="curve" smooth="yes"/>
      <point x="92" y="202"/>
      <point x="112" y="184"/>
      <point x="136" y="184" type="curve" smooth="yes"/>
      <point x="274" y="184" type="line" smooth="yes"/>
      <point x="424" y="184"/>
      <point x="497" y="267"/>
      <point x="497" y="366" type="curve" smooth="yes"/>
      <point x="497" y="473"/>
      <point x="410" y="549"/>
      <point x="274" y="549" type="curve" smooth="yes"/>
      <point x="119" y="549" type="line" smooth="yes"/>
      <point x="92" y="549"/>
      <point x="70" y="530"/>
      <point x="70" y="507" type="curve" smooth="yes"/>
      <point x="70" y="29" type="line" smooth="yes"/>
      <point x="70" y="5"/>
      <point x="95" y="-13"/>
    </contour>
    <contour>
      <point x="506" y="-2" type="curve" smooth="yes"/>
      <point x="524" y="11"/>
      <point x="527" y="38"/>
      <point x="511" y="56" type="curve" smooth="yes"/>
      <point x="338" y="247" type="line" smooth="yes"/>
      <point x="323" y="263"/>
      <point x="294" y="265"/>
      <point x="275" y="251" type="curve" smooth="yes"/>
      <point x="257" y="236"/>
      <point x="254" y="209"/>
      <point x="270" y="192" type="curve" smooth="yes"/>
      <point x="443" y="2" type="line" smooth="yes"/>
      <point x="458" y="-16"/>
      <point x="487" y="-18"/>
    </contour>
    <contour>
      <point x="262" y="551" type="move" name="top"/>
    </contour>
    <contour>
      <point x="281" y="30" type="move" name="bottom"/>
    </contour>
  </outline>
</glyph>
<glyph name="T" format="1">
  <advance width="553"/>
  <unicode hex="0054"/>
  <outline>
    <contour>
      <point x="275" y="-13" type="curve" smooth="yes"/>
      <point x="299" y="-13"/>
      <point x="324" y="5"/>
      <point x="324" y="29" type="curve" smooth="yes"/>
      <point x="324" y="507" type="line" smooth="yes"/>
      <point x="324" y="530"/>
      <point x="299" y="549"/>
      <point x="275" y="549" type="curve" smooth="yes"/>
      <point x="251" y="549"/>
      <point x="226" y="530"/>
      <point x="226" y="507" type="curve" smooth="yes"/>
      <point x="226" y="29" type="line" smooth="yes"/>
      <point x="226" y="5"/>
      <point x="251" y="-13"/>
    </contour>
    <contour>
      <point x="501" y="466" type="line" smooth="yes"/>
      <point x="525" y="466"/>
      <point x="545" y="485"/>
      <point x="545" y="507" type="curve" smooth="yes"/>
      <point x="545" y="530"/>
      <point x="525" y="549"/>
      <point x="501" y="549" type="curve" smooth="yes"/>
      <point x="52" y="549" type="line" smooth="yes"/>
      <point x="28" y="549"/>
      <point x="8" y="530"/>
      <point x="8" y="507" type="curve" smooth="yes"/>
      <point x="8" y="485"/>
      <point x="28" y="466"/>
      <point x="52" y="466" type="curve" smooth="yes"/>
    </contour>
    <contour>
      <point x="274" y="551" type="move" name="top"/>
    </contour>
    <contour>
      <point x="277" y="-9" type="move" name="bottom"/>
    </contour>
  </outline>
</glyph>
<glyph name="X" format="1">
  <advance width="571"/>
  <unicode hex="0058"/>
  <outline>
    <contour>
      <point x="518" y="-5" type="curve" smooth="yes"/>
      <point x="538" y="7"/>
      <point x="544" y="34"/>
      <point x="530" y="53" type="curve" smooth="yes"/>
      <point x="469" y="135"/>
      <point x="232" y="393"/>
      <point x="131" y="532" type="curve" smooth="yes"/>
      <point x="117" y="551"/>
      <point x="88" y="554"/>
      <point x="68" y="541" type="curve" smooth="yes"/>
      <point x="49" y="529"/>
      <point x="42" y="502"/>
      <point x="55" y="483" type="curve" smooth="yes"/>
      <point x="156" y="345"/>
      <point x="393" y="87"/>
      <point x="456" y="3" type="curve" smooth="yes"/>
      <point x="469" y="-15"/>
      <point x="499" y="-19"/>
    </contour>
    <contour>
      <point x="53" y="-4" type="curve" smooth="yes"/>
      <point x="72" y="-18"/>
      <point x="102" y="-15"/>
      <point x="116" y="2" type="curve" smooth="yes"/>
      <point x="199" y="108"/>
      <point x="420" y="351"/>
      <point x="511" y="484" type="curve" smooth="yes"/>
      <point x="524" y="503"/>
      <point x="516" y="530"/>
      <point x="496" y="542" type="curve" smooth="yes"/>
      <point x="476" y="554"/>
      <point x="446" y="550"/>
      <point x="433" y="531" type="curve" smooth="yes"/>
      <point x="344" y="400"/>
      <point x="125" y="160"/>
      <point x="42" y="54" type="curve" smooth="yes"/>
      <point x="28" y="35"/>
      <point x="34" y="8"/>
    </contour>
  </outline>
</glyph>
<glyph name="d" format="1">
  <advance width="520"/>
  <unicode hex="0064"/>
  <outline>
    <contour>
      <point x="235" y="-14" type="curve" smooth="yes"/>
      <point x="330" y="-14"/>
      <point x="404" y="41"/>
      <point x="454" y="121" type="curve" smooth="yes"/>
      <point x="466" y="140"/>
      <point x="457" y="167"/>
      <point x="436" y="179" type="curve" smooth="yes"/>
      <point x="416" y="191"/>
      <point x="386" y="185"/>
      <point x="374" y="165" type="curve" smooth="yes"/>
      <point x="342" y="115"/>
      <point x="300" y="68"/>
      <point x="235" y="68" type="curve" smooth="yes"/>
      <point x="169" y="68"/>
      <point x="127" y="121"/>
      <point x="127" y="189" type="curve" smooth="yes"/>
      <point x="127" y="263"/>
      <point x="178" y="324"/>
      <point x="257" y="324" type="curve" smooth="yes"/>
      <point x="309" y="324"/>
      <point x="348" y="305"/>
      <point x="387" y="275" type="curve" smooth="yes"/>
      <point x="405" y="261"/>
      <point x="434" y="263"/>
      <point x="449" y="281" type="curve" smooth="yes"/>
      <point x="464" y="297"/>
      <point x="462" y="325"/>
      <point x="443" y="339" type="curve" smooth="yes"/>
      <point x="388" y="382"/>
      <point x="331" y="407"/>
      <point x="257" y="407" type="curve" smooth="yes"/>
      <point x="130" y="407"/>
      <point x="29" y="320"/>
      <point x="29" y="189" type="curve" smooth="yes"/>
      <point x="29" y="61"/>
      <point x="123" y="-14"/>
    </contour>
    <contour>
      <point x="415" y="-14" type="curve" smooth="yes"/>
      <point x="439" y="-14"/>
      <point x="464" y="4"/>
      <point x="464" y="28" type="curve" smooth="yes"/>
      <point x="464" y="533" type="line" smooth="yes"/>
      <point x="464" y="555"/>
      <point x="439" y="574"/>
      <point x="415" y="574" type="curve" smooth="yes"/>
      <point x="391" y="574"/>
      <point x="366" y="555"/>
      <point x="366" y="533" type="curve" smooth="yes"/>
      <point x="366" y="28" type="line" smooth="yes"/>
      <point x="366" y="4"/>
      <point x="391" y="-14"/>
    </contour>
  </outline>
</glyph>
<glyph name="m" format="1">
  <advance width="770"/>
  <unicode hex="006D"/>
  <outline>
    <contour>
      <point x="675" y="-10" type="curve" smooth="yes"/>
      <point x="699" y="-10"/>
      <point x="724" y="10"/>
      <point x="724" y="32" type="curve" smooth="yes"/>
      <point x="724" y="240" type="line" smooth="yes"/>
      <point x="724" y="385"/>
      <point x="644" y="412"/>
      <point x="560" y="412" type="curve" smooth="yes"/>
      <point x="489" y="412"/>
      <point x="414" y="370"/>
      <point x="358" y="310" type="curve" smooth="yes"/>
      <point x="342" y="295"/>
      <point x="344" y="267"/>
      <point x="361" y="251" type="curve" smooth="yes"/>
      <point x="379" y="236"/>
      <point x="409" y="237"/>
      <point x="424" y="254" type="curve" smooth="yes"/>
      <point x="462" y="293"/>
      <point x="511" y="330"/>
      <point x="560" y="330" type="curve" smooth="yes"/>
      <point x="604" y="330"/>
      <point x="626" y="298"/>
      <point x="626" y="240" type="curve" smooth="yes"/>
      <point x="626" y="32" type="line" smooth="yes"/>
      <point x="626" y="10"/>
      <point x="651" y="-10"/>
    </contour>
    <contour>
      <point x="106" y="-10" type="curve" smooth="yes"/>
      <point x="130" y="-10"/>
      <point x="155" y="10"/>
      <point x="155" y="32" type="curve" smooth="yes"/>
      <point x="155" y="371" type="line" smooth="yes"/>
      <point x="155" y="393"/>
      <point x="130" y="412"/>
      <point x="106" y="412" type="curve" smooth="yes"/>
      <point x="82" y="412"/>
      <point x="57" y="393"/>
      <point x="57" y="371" type="curve" smooth="yes"/>
      <point x="57" y="32" type="line" smooth="yes"/>
      <point x="57" y="10"/>
      <point x="82" y="-10"/>
    </contour>
    <contour>
      <point x="391" y="-10" type="curve" smooth="yes"/>
      <point x="415" y="-10"/>
      <point x="440" y="10"/>
      <point x="440" y="32" type="curve" smooth="yes"/>
      <point x="440" y="240" type="line" smooth="yes"/>
      <point x="440" y="385"/>
      <point x="361" y="412"/>
      <point x="277" y="412" type="curve" smooth="yes"/>
      <point x="206" y="412"/>
      <point x="129" y="369"/>
      <point x="74" y="310" type="curve" smooth="yes"/>
      <point x="58" y="294"/>
      <point x="61" y="267"/>
      <point x="79" y="251" type="curve" smooth="yes"/>
      <point x="97" y="236"/>
      <point x="126" y="237"/>
      <point x="142" y="254" type="curve" smooth="yes"/>
      <point x="179" y="294"/>
      <point x="228" y="330"/>
      <point x="277" y="330" type="curve" smooth="yes"/>
      <point x="321" y="330"/>
      <point x="342" y="298"/>
      <point x="342" y="240" type="curve" smooth="yes"/>
      <point x="342" y="32" type="line" smooth="yes"/>
      <point x="342" y="10"/>
      <point x="367" y="-10"/>
    </contour>
  </outline>
</glyph>
<glyph name="p" format="1">
  <advance width="518"/>
  <unicode hex="0070"/>
  <outline>
    <contour>
      <point x="268" y="-5" type="curve" smooth="yes"/>
      <point x="396" y="-5"/>
      <point x="491" y="82"/>
      <point x="491" y="205" type="curve" smooth="yes"/>
      <point x="491" y="348"/>
      <point x="387" y="415"/>
      <point x="281" y="415" type="curve" smooth="yes"/>
      <point x="200" y="415"/>
      <point x="127" y="370"/>
      <point x="69" y="293" type="curve" smooth="yes"/>
      <point x="56" y="275"/>
      <point x="62" y="248"/>
      <point x="82" y="234" type="curve" smooth="yes"/>
      <point x="101" y="222"/>
      <point x="131" y="225"/>
      <point x="145" y="244" type="curve" smooth="yes"/>
      <point x="181" y="293"/>
      <point x="226" y="332"/>
      <point x="281" y="332" type="curve" smooth="yes"/>
      <point x="345" y="332"/>
      <point x="393" y="282"/>
      <point x="393" y="205" type="curve" smooth="yes"/>
      <point x="393" y="136"/>
      <point x="346" y="77"/>
      <point x="268" y="77" type="curve" smooth="yes"/>
      <point x="221" y="77"/>
      <point x="174" y="100"/>
      <point x="134" y="131" type="curve" smooth="yes"/>
      <point x="116" y="146"/>
      <point x="87" y="142"/>
      <point x="72" y="126" type="curve" smooth="yes"/>
      <point x="57" y="107"/>
      <point x="59" y="80"/>
      <point x="78" y="66" type="curve" smooth="yes"/>
      <point x="134" y="24"/>
      <point x="203" y="-5"/>
    </contour>
    <contour>
      <point x="106" y="-193" type="curve" smooth="yes"/>
      <point x="130" y="-193"/>
      <point x="155" y="-175"/>
      <point x="155" y="-153" type="curve" smooth="yes"/>
      <point x="155" y="374" type="line" smooth="yes"/>
      <point x="155" y="396"/>
      <point x="130" y="415"/>
      <point x="106" y="415" type="curve" smooth="yes"/>
      <point x="82" y="415"/>
      <point x="57" y="396"/>
      <point x="57" y="374" type="curve" smooth="yes"/>
      <point x="57" y="-153" type="line" smooth="yes"/>
      <point x="57" y="-175"/>
      <point x="82" y="-193"/>
    </contour>
  </outline>
</glyph>
<glyph name="v" format="1">
  <advance width="454"/>
  <unicode hex="0076"/>
  <outline>
    <contour>
      <point x="234" y="-14" type="line" smooth="yes"/>
      <point x="249" y="-14"/>
      <point x="267" y="-5"/>
      <point x="274" y="4" type="curve" smooth="yes"/>
      <point x="329" y="93"/>
      <point x="400" y="243"/>
      <point x="443" y="355" type="curve" smooth="yes"/>
      <point x="451" y="376"/>
      <point x="435" y="401"/>
      <point x="413" y="409" type="curve" smooth="yes"/>
      <point x="391" y="416"/>
      <point x="361" y="407"/>
      <point x="353" y="385" type="curve" smooth="yes"/>
      <point x="312" y="279"/>
      <point x="247" y="133"/>
      <point x="194" y="50" type="curve"/>
      <point x="234" y="68" type="line"/>
      <point x="230" y="68" type="line"/>
      <point x="270" y="50" type="line"/>
      <point x="216" y="133"/>
      <point x="161" y="237"/>
      <point x="100" y="386" type="curve" smooth="yes"/>
      <point x="92" y="407"/>
      <point x="62" y="417"/>
      <point x="40" y="409" type="curve" smooth="yes"/>
      <point x="18" y="401"/>
      <point x="3" y="375"/>
      <point x="12" y="354" type="curve" smooth="yes"/>
      <point x="75" y="199"/>
      <point x="134" y="93"/>
      <point x="190" y="4" type="curve" smooth="yes"/>
      <point x="197" y="-5"/>
      <point x="215" y="-14"/>
      <point x="230" y="-14" type="curve" smooth="yes"/>
    </contour>
  </outline>
</glyph>
<glyph name="currency" format="1">
  <advance width="527"/>
  <unicode hex="00A4"/>
  <outline>
    <contour>
      <point x="263" y="34" type="curve" smooth="yes"/>
      <point x="391" y="34"/>
      <point x="478" y="116"/>
      <point x="478" y="227" type="curve" smooth="yes"/>
      <point x="478" y="342"/>
      <point x="391" y="430"/>
      <point x="263" y="430" type="curve" smooth="yes"/>
      <point x="133" y="430"/>
      <point x="48" y="341"/>
      <point x="48" y="228" type="curve" smooth="yes"/>
      <point x="48" y="117"/>
      <point x="135" y="34"/>
    </contour>
    <contour>
      <point x="42" y="1" type="curve" smooth="yes"/>
      <point x="59" y="-15"/>
      <point x="89" y="-14"/>
      <point x="105" y="2" type="curve" smooth="yes"/>
      <point x="176" y="77" type="line" smooth="yes"/>
      <point x="191" y="94"/>
      <point x="189" y="122"/>
      <point x="171" y="136" type="curve" smooth="yes"/>
      <point x="154" y="152"/>
      <point x="124" y="151"/>
      <point x="108" y="133" type="curve" smooth="yes"/>
      <point x="37" y="60" type="line" smooth="yes"/>
      <point x="22" y="43"/>
      <point x="24" y="15"/>
    </contour>
    <contour>
      <point x="485" y="1" type="curve" smooth="yes"/>
      <point x="503" y="15"/>
      <point x="505" y="43"/>
      <point x="490" y="60" type="curve" smooth="yes"/>
      <point x="416" y="136" type="line" smooth="yes"/>
      <point x="400" y="154"/>
      <point x="370" y="155"/>
      <point x="353" y="139" type="curve" smooth="yes"/>
      <point x="335" y="125"/>
      <point x="333" y="97"/>
      <point x="348" y="80" type="curve" smooth="yes"/>
      <point x="422" y="2" type="line" smooth="yes"/>
      <point x="438" y="-14"/>
      <point x="468" y="-15"/>
    </contour>
    <contour>
      <point x="263" y="116" type="curve" smooth="yes"/>
      <point x="189" y="116"/>
      <point x="146" y="167"/>
      <point x="146" y="228" type="curve" smooth="yes"/>
      <point x="146" y="290"/>
      <point x="187" y="348"/>
      <point x="263" y="348" type="curve" smooth="yes"/>
      <point x="339" y="348"/>
      <point x="380" y="289"/>
      <point x="380" y="227" type="curve" smooth="yes"/>
      <point x="380" y="166"/>
      <point x="337" y="116"/>
    </contour>
    <contour>
      <point x="174" y="321" type="curve" smooth="yes"/>
      <point x="191" y="336"/>
      <point x="193" y="364"/>
      <point x="177" y="380" type="curve" smooth="yes"/>
      <point x="109" y="451" type="line" smooth="yes"/>
      <point x="93" y="468"/>
      <point x="64" y="469"/>
      <point x="46" y="454" type="curve" smooth="yes"/>
      <point x="29" y="439"/>
      <point x="27" y="410"/>
      <point x="43" y="394" type="curve" smooth="yes"/>
      <point x="111" y="324" type="line" smooth="yes"/>
      <point x="127" y="307"/>
      <point x="156" y="306"/>
    </contour>
    <contour>
      <point x="353" y="322" type="curve" smooth="yes"/>
      <point x="370" y="307"/>
      <point x="400" y="308"/>
      <point x="416" y="325" type="curve" smooth="yes"/>
      <point x="484" y="396" type="line" smooth="yes"/>
      <point x="499" y="413"/>
      <point x="497" y="441"/>
      <point x="479" y="455" type="curve" smooth="yes"/>
      <point x="462" y="471"/>
      <point x="432" y="470"/>
      <point x="416" y="453" type="curve" smooth="yes"/>
      <point x="348" y="381" type="line" smooth="yes"/>
      <point x="333" y="364"/>
      <point x="335" y="337"/>
    </contour>
  </outline>
</glyph>
<glyph name="brokenbar" format="1">
  <advance width="295"/>
  <unicode hex="00A6"/>
  <outline>
    <contour>
      <point x="148" y="270" type="curve" smooth="yes"/>
      <point x="172" y="270"/>
      <point x="197" y="289"/>
      <point x="197" y="312" type="curve" smooth="yes"/>
      <point x="197" y="536" type="line" smooth="yes"/>
      <point x="197" y="558"/>
      <point x="172" y="577"/>
      <point x="148" y="577" type="curve" smooth="yes"/>
      <point x="124" y="577"/>
      <point x="99" y="558"/>
      <point x="99" y="536" type="curve" smooth="yes"/>
      <point x="99" y="312" type="line" smooth="yes"/>
      <point x="99" y="289"/>
      <point x="124" y="270"/>
    </contour>
    <contour>
      <point x="148" y="-111" type="curve" smooth="yes"/>
      <point x="172" y="-111"/>
      <point x="197" y="-92"/>
      <point x="197" y="-69" type="curve" smooth="yes"/>
      <point x="197" y="155" type="line" smooth="yes"/>
      <point x="197" y="177"/>
      <point x="172" y="196"/>
      <point x="148" y="196" type="curve" smooth="yes"/>
      <point x="124" y="196"/>
      <point x="99" y="177"/>
      <point x="99" y="155" type="curve" smooth="yes"/>
      <point x="99" y="-69" type="line" smooth="yes"/>
      <point x="99" y="-92"/>
      <point x="124" y="-111"/>
    </contour>
  </outline>
</glyph>
<glyph name="section" format="1">
  <advance width="531"/>
  <unicode hex="00A7"/>
  <outline>
    <contour>
      <point x="256" y="-131" type="curve" smooth="yes"/>
      <point x="424" y="-131"/>
      <point x="477" y="-59"/>
      <point x="477" y="9" type="curve" smooth="yes"/>
      <point x="477" y="75"/>
      <point x="443" y="125"/>
      <point x="264" y="153" type="curve" smooth="yes"/>
      <point x="174" y="167"/>
      <point x="141" y="194"/>
      <point x="141" y="227" type="curve" smooth="yes"/>
      <point x="141" y="266"/>
      <point x="183" y="285"/>
      <point x="235" y="285" type="curve" smooth="yes"/>
      <point x="259" y="285"/>
      <point x="279" y="303"/>
      <point x="279" y="325" type="curve" smooth="yes"/>
      <point x="279" y="348"/>
      <point x="259" y="367"/>
      <point x="235" y="367" type="curve" smooth="yes"/>
      <point x="107" y="367"/>
      <point x="43" y="308"/>
      <point x="43" y="227" type="curve" smooth="yes"/>
      <point x="43" y="171"/>
      <point x="58" y="101"/>
      <point x="250" y="71" type="curve" smooth="yes"/>
      <point x="327" y="59"/>
      <point x="379" y="49"/>
      <point x="379" y="9" type="curve" smooth="yes"/>
      <point x="379" y="-29"/>
      <point x="326" y="-49"/>
      <point x="256" y="-49" type="curve" smooth="yes"/>
      <point x="199" y="-49"/>
      <point x="146" y="-39"/>
      <point x="96" y="-19" type="curve" smooth="yes"/>
      <point x="75" y="-9"/>
      <point x="48" y="-19"/>
      <point x="38" y="-39" type="curve" smooth="yes"/>
      <point x="28" y="-60"/>
      <point x="38" y="-85"/>
      <point x="60" y="-94" type="curve" smooth="yes"/>
      <point x="120" y="-121"/>
      <point x="187" y="-131"/>
    </contour>
    <contour>
      <point x="266" y="70" type="curve" smooth="yes"/>
      <point x="438" y="70"/>
      <point x="487" y="139"/>
      <point x="487" y="207" type="curve" smooth="yes"/>
      <point x="487" y="272"/>
      <point x="448" y="332"/>
      <point x="274" y="366" type="curve" smooth="yes"/>
      <point x="187" y="378"/>
      <point x="151" y="402"/>
      <point x="151" y="431" type="curve" smooth="yes"/>
      <point x="151" y="459"/>
      <point x="200" y="474"/>
      <point x="245" y="474" type="curve" smooth="yes"/>
      <point x="312" y="474"/>
      <point x="344" y="467"/>
      <point x="390" y="453" type="curve" smooth="yes"/>
      <point x="412" y="446"/>
      <point x="438" y="458"/>
      <point x="445" y="480" type="curve" smooth="yes"/>
      <point x="452" y="501"/>
      <point x="439" y="525"/>
      <point x="416" y="532" type="curve" smooth="yes"/>
      <point x="362" y="548"/>
      <point x="324" y="557"/>
      <point x="245" y="557" type="curve" smooth="yes"/>
      <point x="112" y="557"/>
      <point x="53" y="489"/>
      <point x="53" y="431" type="curve" smooth="yes"/>
      <point x="53" y="379"/>
      <point x="67" y="312"/>
      <point x="260" y="284" type="curve" smooth="yes"/>
      <point x="342" y="268"/>
      <point x="389" y="246"/>
      <point x="389" y="207" type="curve" smooth="yes"/>
      <point x="389" y="169"/>
      <point x="334" y="154"/>
      <point x="266" y="154" type="curve" smooth="yes"/>
      <point x="242" y="154"/>
      <point x="222" y="134"/>
      <point x="222" y="112" type="curve" smooth="yes"/>
      <point x="222" y="90"/>
      <point x="242" y="70"/>
    </contour>
  </outline>
</glyph>
<glyph name="twosuperior" format="1">
  <advance width="353"/>
  <unicode hex="00B2"/>
  <outline>
    <contour>
      <point x="208" y="313" type="line" smooth="yes"/>
      <point x="286" y="382"/>
      <point x="302" y="410"/>
      <point x="302" y="449" type="curve" smooth="yes"/>
      <point x="302" y="495"/>
      <point x="271" y="548"/>
      <point x="180" y="548" type="curve" smooth="yes"/>
      <point x="141" y="548"/>
      <point x="109" y="538"/>
      <point x="75" y="518" type="curve" smooth="yes"/>
      <point x="56" y="505"/>
      <point x="50" y="480"/>
      <point x="63" y="461" type="curve" smooth="yes"/>
      <point x="76" y="443"/>
      <point x="103" y="438"/>
      <point x="123" y="450" type="curve" smooth="yes"/>
      <point x="141" y="461"/>
      <point x="159" y="467"/>
      <point x="180" y="467" type="curve" smooth="yes"/>
      <point x="197" y="467"/>
      <point x="216" y="463"/>
      <point x="216" y="449" type="curve" smooth="yes"/>
      <point x="216" y="424"/>
      <point x="194" y="410"/>
      <point x="150" y="371" type="curve" smooth="yes"/>
      <point x="57" y="289" type="line" smooth="yes"/>
      <point x="40" y="275"/>
      <point x="39" y="249"/>
      <point x="55" y="232" type="curve" smooth="yes"/>
      <point x="70" y="217"/>
      <point x="98" y="216"/>
      <point x="115" y="230" type="curve" smooth="yes"/>
    </contour>
    <contour>
      <point x="279" y="215" type="line" smooth="yes"/>
      <point x="302" y="215"/>
      <point x="322" y="233"/>
      <point x="322" y="255" type="curve" smooth="yes"/>
      <point x="322" y="277"/>
      <point x="302" y="295"/>
      <point x="279" y="295" type="curve" smooth="yes"/>
      <point x="80" y="295" type="line" smooth="yes"/>
      <point x="57" y="295"/>
      <point x="37" y="277"/>
      <point x="37" y="255" type="curve" smooth="yes"/>
      <point x="37" y="233"/>
      <point x="57" y="215"/>
      <point x="80" y="215" type="curve" smooth="yes"/>
    </contour>
  </outline>
</glyph>
<glyph name="ordmasculine" format="1">
  <advance width="440"/>
  <unicode hex="00BA"/>
  <outline>
    <contour>
      <point x="220" y="237" type="curve" smooth="yes"/>
      <point x="318" y="237"/>
      <point x="382" y="303"/>
      <point x="382" y="389" type="curve" smooth="yes"/>
      <point x="382" y="473"/>
      <point x="317" y="544"/>
      <point x="220" y="544" type="curve" smooth="yes"/>
      <point x="119" y="544"/>
      <point x="57" y="473"/>
      <point x="57" y="389" type="curve" smooth="yes"/>
      <point x="57" y="303"/>
      <point x="122" y="237"/>
    </contour>
    <contour>
      <point x="354" y="124" type="line" smooth="yes"/>
      <point x="377" y="124"/>
      <point x="397" y="142"/>
      <point x="397" y="164" type="curve" smooth="yes"/>
      <point x="397" y="186"/>
      <point x="377" y="204"/>
      <point x="354" y="204" type="curve" smooth="yes"/>
      <point x="93" y="204" type="line" smooth="yes"/>
      <point x="70" y="204"/>
      <point x="50" y="186"/>
      <point x="50" y="164" type="curve" smooth="yes"/>
      <point x="50" y="142"/>
      <point x="70" y="124"/>
      <point x="93" y="124" type="curve" smooth="yes"/>
    </contour>
    <contour>
      <point x="220" y="318" type="curve" smooth="yes"/>
      <point x="174" y="318"/>
      <point x="143" y="348"/>
      <point x="143" y="389" type="curve" smooth="yes"/>
      <point x="143" y="428"/>
      <point x="171" y="463"/>
      <point x="220" y="463" type="curve" smooth="yes"/>
      <point x="267" y="463"/>
      <point x="296" y="428"/>
      <point x="296" y="389" type="curve" smooth="yes"/>
      <point x="296" y="348"/>
      <point x="266" y="318"/>
    </contour>
  </outline>
</glyph>
<glyph name="onequarter" format="1">
  <advance width="730"/>
  <unicode hex="00BC"/>
  <outline>
    <contour>
      <point x="187" y="-6" type="curve" smooth="yes"/>
      <point x="207" y="-18"/>
      <point x="234" y="-11"/>
      <point x="246" y="7" type="curve" smooth="yes"/>
      <point x="544" y="487" type="line" smooth="yes"/>
      <point x="556" y="505"/>
      <point x="549" y="531"/>
      <point x="529" y="542" type="curve" smooth="yes"/>
      <point x="509" y="553"/>
      <point x="482" y="547"/>
      <point x="470" y="528" type="curve" smooth="yes"/>
      <point x="172" y="49" type="line" smooth="yes"/>
      <point x="160" y="31"/>
      <point x="167" y="4"/>
    </contour>
    <contour>
      <point x="202" y="219" type="curve" smooth="yes"/>
      <point x="225" y="219"/>
      <point x="245" y="237"/>
      <point x="245" y="259" type="curve" smooth="yes"/>
      <point x="245" y="514" type="line" smooth="yes"/>
      <point x="245" y="536"/>
      <point x="225" y="554"/>
      <point x="202" y="554" type="curve" smooth="yes"/>
      <point x="179" y="554"/>
      <point x="159" y="536"/>
      <point x="159" y="514" type="curve" smooth="yes"/>
      <point x="159" y="259" type="line" smooth="yes"/>
      <point x="159" y="237"/>
      <point x="179" y="219"/>
    </contour>
    <contour>
      <point x="637" y="64" type="line" smooth="yes"/>
      <point x="660" y="64"/>
      <point x="680" y="80"/>
      <point x="680" y="101" type="curve" smooth="yes"/>
      <point x="680" y="124"/>
      <point x="660" y="138"/>
      <point x="637" y="138" type="curve" smooth="yes"/>
      <point x="411" y="138" type="line" smooth="yes"/>
      <point x="388" y="138"/>
      <point x="368" y="126"/>
      <point x="368" y="103" type="curve" smooth="yes"/>
      <point x="368" y="82"/>
      <point x="388" y="64"/>
      <point x="411" y="64" type="curve" smooth="yes"/>
    </contour>
    <contour>
      <point x="222" y="481" type="line" smooth="yes"/>
      <point x="243" y="491"/>
      <point x="251" y="517"/>
      <point x="240" y="536" type="curve" smooth="yes"/>
      <point x="229" y="555"/>
      <point x="202" y="563"/>
      <point x="182" y="552" type="curve" smooth="yes"/>
      <point x="96" y="509" type="line" smooth="yes"/>
      <point x="75" y="499"/>
      <point x="67" y="473"/>
      <point x="78" y="455" type="curve" smooth="yes"/>
      <point x="89" y="435"/>
      <point x="116" y="427"/>
      <point x="136" y="438" type="curve" smooth="yes"/>
    </contour>
    <contour>
      <point x="378" y="72" type="curve" smooth="yes"/>
      <point x="396" y="59"/>
      <point x="417" y="63"/>
      <point x="432" y="79" type="curve" smooth="yes"/>
      <point x="598" y="260" type="line" smooth="yes"/>
      <point x="613" y="277"/>
      <point x="614" y="299"/>
      <point x="595" y="313" type="curve" smooth="yes"/>
      <point x="577" y="326"/>
      <point x="549" y="325"/>
      <point x="534" y="308" type="curve" smooth="yes"/>
      <point x="373" y="130" type="line" smooth="yes"/>
      <point x="358" y="113"/>
      <point x="359" y="86"/>
    </contour>
    <contour>
      <point x="571" y="-11" type="curve" smooth="yes"/>
      <point x="594" y="-11"/>
      <point x="614" y="7"/>
      <point x="614" y="30" type="curve" smooth="yes"/>
      <point x="614" y="286" type="line" smooth="yes"/>
      <point x="614" y="308"/>
      <point x="594" y="326"/>
      <point x="571" y="326" type="curve" smooth="yes"/>
      <point x="548" y="326"/>
      <point x="528" y="308"/>
      <point x="528" y="286" type="curve" smooth="yes"/>
      <point x="528" y="30" type="line" smooth="yes"/>
      <point x="528" y="7"/>
      <point x="548" y="-11"/>
    </contour>
  </outline>
</glyph>
<glyph name="onehalf" format="1">
  <advance width="799"/>
  <unicode hex="00BD"/>
  <outline>
    <contour>
      <point x="186" y="-7" type="curve" smooth="yes"/>
      <point x="206" y="-19"/>
      <point x="236" y="-13"/>
      <point x="248" y="6" type="curve" smooth="yes"/>
      <point x="546" y="486" type="line" smooth="yes"/>
      <point x="558" y="504"/>
      <point x="549" y="532"/>
      <point x="528" y="543" type="curve" smooth="yes"/>
      <point x="508" y="554"/>
      <point x="478" y="549"/>
      <point x="466" y="529" type="curve" smooth="yes"/>
      <point x="168" y="50" type="line" smooth="yes"/>
      <point x="156" y="32"/>
      <point x="165" y="3"/>
    </contour>
    <contour>
      <point x="203" y="217" type="curve" smooth="yes"/>
      <point x="226" y="217"/>
      <point x="246" y="235"/>
      <point x="246" y="258" type="curve" smooth="yes"/>
      <point x="246" y="512" type="line" smooth="yes"/>
      <point x="246" y="534"/>
      <point x="226" y="553"/>
      <point x="203" y="553" type="curve" smooth="yes"/>
      <point x="180" y="553"/>
      <point x="160" y="534"/>
      <point x="160" y="512" type="curve" smooth="yes"/>
      <point x="160" y="258" type="line" smooth="yes"/>
      <point x="160" y="235"/>
      <point x="180" y="217"/>
    </contour>
    <contour>
      <point x="679" y="-12" type="line" smooth="yes"/>
      <point x="702" y="-12"/>
      <point x="722" y="6"/>
      <point x="722" y="28" type="curve" smooth="yes"/>
      <point x="722" y="50"/>
      <point x="702" y="68"/>
      <point x="679" y="68" type="curve" smooth="yes"/>
      <point x="480" y="68" type="line" smooth="yes"/>
      <point x="457" y="68"/>
      <point x="437" y="50"/>
      <point x="437" y="28" type="curve" smooth="yes"/>
      <point x="437" y="6"/>
      <point x="457" y="-12"/>
      <point x="480" y="-12" type="curve" smooth="yes"/>
    </contour>
    <contour>
      <point x="224" y="480" type="line" smooth="yes"/>
      <point x="244" y="490"/>
      <point x="252" y="516"/>
      <point x="241" y="536" type="curve" smooth="yes"/>
      <point x="230" y="555"/>
      <point x="203" y="563"/>
      <point x="182" y="552" type="curve" smooth="yes"/>
      <point x="96" y="508" type="line" smooth="yes"/>
      <point x="76" y="498"/>
      <point x="68" y="472"/>
      <point x="79" y="452" type="curve" smooth="yes"/>
      <point x="90" y="433"/>
      <point x="117" y="425"/>
      <point x="138" y="436" type="curve" smooth="yes"/>
    </contour>
    <contour>
      <point x="608" y="86" type="line" smooth="yes"/>
      <point x="686" y="155"/>
      <point x="702" y="183"/>
      <point x="702" y="222" type="curve" smooth="yes"/>
      <point x="702" y="268"/>
      <point x="671" y="321"/>
      <point x="580" y="321" type="curve" smooth="yes"/>
      <point x="541" y="321"/>
      <point x="509" y="311"/>
      <point x="475" y="291" type="curve" smooth="yes"/>
      <point x="456" y="278"/>
      <point x="450" y="253"/>
      <point x="463" y="234" type="curve" smooth="yes"/>
      <point x="476" y="216"/>
      <point x="503" y="211"/>
      <point x="523" y="223" type="curve" smooth="yes"/>
      <point x="541" y="234"/>
      <point x="559" y="240"/>
      <point x="580" y="240" type="curve" smooth="yes"/>
      <point x="597" y="240"/>
      <point x="616" y="236"/>
      <point x="616" y="222" type="curve" smooth="yes"/>
      <point x="616" y="197"/>
      <point x="594" y="183"/>
      <point x="550" y="144" type="curve" smooth="yes"/>
      <point x="457" y="62" type="line" smooth="yes"/>
      <point x="440" y="48"/>
      <point x="439" y="22"/>
      <point x="455" y="5" type="curve" smooth="yes"/>
      <point x="470" y="-10"/>
      <point x="498" y="-11"/>
      <point x="515" y="3" type="curve" smooth="yes"/>
    </contour>
  </outline>
</glyph>
<glyph name="threequarters" format="1">
  <advance width="847"/>
  <unicode hex="00BE"/>
  <outline>
    <contour>
      <point x="286" y="-6" type="curve" smooth="yes"/>
      <point x="306" y="-18"/>
      <point x="333" y="-11"/>
      <point x="345" y="7" type="curve" smooth="yes"/>
      <point x="642" y="487" type="line" smooth="yes"/>
      <point x="654" y="505"/>
      <point x="647" y="531"/>
      <point x="627" y="542" type="curve" smooth="yes"/>
      <point x="607" y="553"/>
      <point x="580" y="547"/>
      <point x="568" y="528" type="curve" smooth="yes"/>
      <point x="271" y="49" type="line" smooth="yes"/>
      <point x="259" y="31"/>
      <point x="266" y="4"/>
    </contour>
    <contour>
      <point x="218" y="209" type="curve" smooth="yes"/>
      <point x="328" y="209"/>
      <point x="366" y="263"/>
      <point x="366" y="321" type="curve" smooth="yes"/>
      <point x="366" y="380"/>
      <point x="322" y="430"/>
      <point x="225" y="430" type="curve" smooth="yes"/>
      <point x="190" y="430"/>
      <point x="163" y="425"/>
      <point x="147" y="421" type="curve" smooth="yes"/>
      <point x="125" y="414"/>
      <point x="112" y="391"/>
      <point x="119" y="370" type="curve" smooth="yes"/>
      <point x="126" y="349"/>
      <point x="150" y="337"/>
      <point x="173" y="344" type="curve" smooth="yes"/>
      <point x="183" y="347"/>
      <point x="202" y="349"/>
      <point x="225" y="349" type="curve" smooth="yes"/>
      <point x="250" y="349"/>
      <point x="280" y="345"/>
      <point x="280" y="321" type="curve" smooth="yes"/>
      <point x="280" y="297"/>
      <point x="248" y="290"/>
      <point x="218" y="290" type="curve" smooth="yes"/>
      <point x="186" y="290"/>
      <point x="159" y="295"/>
      <point x="137" y="303" type="curve" smooth="yes"/>
      <point x="116" y="311"/>
      <point x="90" y="300"/>
      <point x="82" y="280" type="curve" smooth="yes"/>
      <point x="74" y="260"/>
      <point x="85" y="235"/>
      <point x="107" y="228" type="curve" smooth="yes"/>
      <point x="137" y="217"/>
      <point x="174" y="209"/>
    </contour>
    <contour>
      <point x="130" y="358" type="curve" smooth="yes"/>
      <point x="145" y="341"/>
      <point x="172" y="347"/>
      <point x="190" y="361" type="curve" smooth="yes"/>
      <point x="336" y="473" type="line" smooth="yes"/>
      <point x="354" y="487"/>
      <point x="356" y="514"/>
      <point x="340" y="530" type="curve" smooth="yes"/>
      <point x="325" y="547"/>
      <point x="301" y="544"/>
      <point x="283" y="530" type="curve" smooth="yes"/>
      <point x="134" y="414" type="line" smooth="yes"/>
      <point x="116" y="400"/>
      <point x="114" y="374"/>
    </contour>
    <contour>
      <point x="737" y="64" type="line" smooth="yes"/>
      <point x="760" y="64"/>
      <point x="780" y="80"/>
      <point x="780" y="101" type="curve" smooth="yes"/>
      <point x="780" y="124"/>
      <point x="760" y="138"/>
      <point x="737" y="138" type="curve" smooth="yes"/>
      <point x="511" y="138" type="line" smooth="yes"/>
      <point x="488" y="138"/>
      <point x="468" y="126"/>
      <point x="468" y="103" type="curve" smooth="yes"/>
      <point x="468" y="82"/>
      <point x="488" y="64"/>
      <point x="511" y="64" type="curve" smooth="yes"/>
    </contour>
    <contour>
      <point x="313" y="467" type="line" smooth="yes"/>
      <point x="336" y="467"/>
      <point x="356" y="486"/>
      <point x="356" y="507" type="curve" smooth="yes"/>
      <point x="356" y="529"/>
      <point x="336" y="548"/>
      <point x="313" y="548" type="curve" smooth="yes"/>
      <point x="133" y="548" type="line" smooth="yes"/>
      <point x="110" y="548"/>
      <point x="90" y="529"/>
      <point x="90" y="507" type="curve" smooth="yes"/>
      <point x="90" y="486"/>
      <point x="110" y="467"/>
      <point x="133" y="467" type="curve" smooth="yes"/>
    </contour>
    <contour>
      <point x="478" y="72" type="curve" smooth="yes"/>
      <point x="496" y="59"/>
      <point x="517" y="63"/>
      <point x="532" y="79" type="curve" smooth="yes"/>
      <point x="698" y="260" type="line" smooth="yes"/>
      <point x="713" y="277"/>
      <point x="713" y="298"/>
      <point x="695" y="313" type="curve" smooth="yes"/>
      <point x="677" y="326"/>
      <point x="649" y="325"/>
      <point x="634" y="308" type="curve" smooth="yes"/>
      <point x="473" y="130" type="line" smooth="yes"/>
      <point x="458" y="113"/>
      <point x="460" y="87"/>
    </contour>
    <contour>
      <point x="671" y="-11" type="curve" smooth="yes"/>
      <point x="694" y="-11"/>
      <point x="714" y="7"/>
      <point x="714" y="30" type="curve" smooth="yes"/>
      <point x="714" y="286" type="line" smooth="yes"/>
      <point x="714" y="308"/>
      <point x="694" y="326"/>
      <point x="671" y="326" type="curve" smooth="yes"/>
      <point x="648" y="326"/>
      <point x="628" y="308"/>
      <point x="628" y="286" type="curve" smooth="yes"/>
      <point x="628" y="30" type="line" smooth="yes"/>
      <point x="628" y="7"/>
      <point x="648" y="-11"/>
    </contour>
  </outline>
</glyph>
<glyph name="questiondown" format="1">
  <advance width="370"/>
  <unicode hex="00BF"/>
  <outline>
    <contour>
      <point x="186" y="-2" type="curve" smooth="yes"/>
      <point x="255" y="-2"/>
      <point x="298" y="11"/>
      <point x="341" y="36" type="curve" smooth="yes"/>
      <point x="362" y="49"/>
      <point x="368" y="75"/>
      <point x="355" y="95" type="curve" smooth="yes"/>
      <point x="343" y="113"/>
      <point x="315" y="120"/>
      <point x="295" y="108" type="curve" smooth="yes"/>
      <point x="264" y="91"/>
      <point x="235" y="80"/>
      <point x="186" y="80" type="curve" smooth="yes"/>
      <point x="137" y="80"/>
      <point x="106" y="106"/>
      <point x="106" y="139" type="curve" smooth="yes"/>
      <point x="106" y="172"/>
      <point x="134" y="195"/>
      <point x="169" y="212" type="curve" smooth="yes"/>
      <point x="245" y="251"/>
      <point x="269" y="276"/>
      <point x="273" y="344" type="curve" smooth="yes"/>
      <point x="274" y="366"/>
      <point x="250" y="387"/>
      <point x="226" y="388" type="curve" smooth="yes"/>
      <point x="203" y="389"/>
      <point x="176" y="371"/>
      <point x="175" y="349" type="curve" smooth="yes"/>
      <point x="173" y="317"/>
      <point x="165" y="303"/>
      <point x="129" y="285" type="curve" smooth="yes"/>
      <point x="60" y="254"/>
      <point x="8" y="204"/>
      <point x="8" y="139" type="curve" smooth="yes"/>
      <point x="8" y="66"/>
      <point x="67" y="-2"/>
    </contour>
    <contour>
      <point x="219" y="433" type="curve" smooth="yes"/>
      <point x="258" y="433"/>
      <point x="289" y="455"/>
      <point x="289" y="503" type="curve" smooth="yes"/>
      <point x="289" y="557"/>
      <point x="248" y="572"/>
      <point x="218" y="572" type="curve" smooth="yes"/>
      <point x="181" y="572"/>
      <point x="148" y="559"/>
      <point x="148" y="503" type="curve" smooth="yes"/>
      <point x="148" y="457"/>
      <point x="182" y="433"/>
    </contour>
  </outline>
</glyph>
<glyph name="Dcroat" format="1">
  <advance width="638"/>
  <unicode hex="0110"/>
  <outline>
    <contour>
      <point x="321" y="-13" type="line" smooth="yes"/>
      <point x="491" y="-13"/>
      <point x="608" y="107"/>
      <point x="608" y="268" type="curve" smooth="yes"/>
      <point x="608" y="438"/>
      <point x="469" y="549"/>
      <point x="321" y="549" type="curve" smooth="yes"/>
      <point x="136" y="549" type="line" smooth="yes"/>
      <point x="109" y="549"/>
      <point x="87" y="530"/>
      <point x="87" y="507" type="curve" smooth="yes"/>
      <point x="87" y="29" type="line" smooth="yes"/>
      <point x="87" y="5"/>
      <point x="109" y="-13"/>
      <point x="136" y="-13" type="curve" smooth="yes"/>
    </contour>
    <contour>
      <point x="316" y="230" type="line" smooth="yes"/>
      <point x="340" y="230"/>
      <point x="360" y="250"/>
      <point x="360" y="272" type="curve" smooth="yes"/>
      <point x="360" y="294"/>
      <point x="340" y="314"/>
      <point x="316" y="314" type="curve" smooth="yes"/>
      <point x="57" y="314" type="line" smooth="yes"/>
      <point x="33" y="314"/>
      <point x="13" y="294"/>
      <point x="13" y="272" type="curve" smooth="yes"/>
      <point x="13" y="250"/>
      <point x="33" y="230"/>
      <point x="57" y="230" type="curve" smooth="yes"/>
    </contour>
    <contour>
      <point x="185" y="507" type="line"/>
      <point x="136" y="466" type="line"/>
      <point x="321" y="466" type="line" smooth="yes"/>
      <point x="425" y="466"/>
      <point x="510" y="379"/>
      <point x="510" y="268" type="curve" smooth="yes"/>
      <point x="510" y="162"/>
      <point x="441" y="69"/>
      <point x="321" y="69" type="curve" smooth="yes"/>
      <point x="136" y="69" type="line"/>
      <point x="185" y="29" type="line"/>
    </contour>
  </outline>
</glyph>
<glyph name="hbar" format="1">
  <advance width="502"/>
  <unicode hex="0127"/>
  <outline>
    <contour>
      <point x="407" y="-14" type="curve" smooth="yes"/>
      <point x="431" y="-14"/>
      <point x="456" y="4"/>
      <point x="456" y="28" type="curve" smooth="yes"/>
      <point x="456" y="225" type="line" smooth="yes"/>
      <point x="456" y="372"/>
      <point x="376" y="407"/>
      <point x="289" y="407" type="curve" smooth="yes"/>
      <point x="212" y="407"/>
      <point x="137" y="365"/>
      <point x="78" y="310" type="curve" smooth="yes"/>
      <point x="61" y="293"/>
      <point x="62" y="266"/>
      <point x="79" y="251" type="curve" smooth="yes"/>
      <point x="96" y="234"/>
      <point x="125" y="233"/>
      <point x="142" y="250" type="curve" smooth="yes"/>
      <point x="183" y="288"/>
      <point x="234" y="324"/>
      <point x="289" y="324" type="curve" smooth="yes"/>
      <point x="336" y="324"/>
      <point x="358" y="285"/>
      <point x="358" y="225" type="curve" smooth="yes"/>
      <point x="358" y="28" type="line" smooth="yes"/>
      <point x="358" y="4"/>
      <point x="383" y="-14"/>
    </contour>
    <contour>
      <point x="106" y="-14" type="curve" smooth="yes"/>
      <point x="130" y="-14"/>
      <point x="155" y="4"/>
      <point x="155" y="28" type="curve" smooth="yes"/>
      <point x="155" y="533" type="line" smooth="yes"/>
      <point x="155" y="555"/>
      <point x="130" y="574"/>
      <point x="106" y="574" type="curve" smooth="yes"/>
      <point x="82" y="574"/>
      <point x="57" y="555"/>
      <point x="57" y="533" type="curve" smooth="yes"/>
      <point x="57" y="28" type="line" smooth="yes"/>
      <point x="57" y="4"/>
      <point x="82" y="-14"/>
    </contour>
    <contour>
      <point x="268" y="431" type="line" smooth="yes"/>
      <point x="292" y="431"/>
      <point x="312" y="449"/>
      <point x="312" y="472" type="curve" smooth="yes"/>
      <point x="312" y="495"/>
      <point x="292" y="513"/>
      <point x="268" y="513" type="curve" smooth="yes"/>
      <point x="24" y="513" type="line" smooth="yes"/>
      <point x="0" y="513"/>
      <point x="-20" y="495"/>
      <point x="-20" y="472" type="curve" smooth="yes"/>
      <point x="-20" y="449"/>
      <point x="0" y="431"/>
      <point x="24" y="431" type="curve" smooth="yes"/>
    </contour>
  </outline>
</glyph>
<glyph name="iogonek" format="1">
  <advance width="197"/>
  <unicode hex="012F"/>
  <outline>
    <contour>
      <point x="137" y="-234" type="curve" smooth="yes"/>
      <point x="161" y="-234"/>
      <point x="180" y="-216"/>
      <point x="180" y="-195" type="curve" smooth="yes"/>
      <point x="180" y="-173"/>
      <point x="161" y="-156"/>
      <point x="137" y="-156" type="curve" smooth="yes"/>
      <point x="80" y="-156"/>
      <point x="63" y="-143"/>
      <point x="63" y="-126" type="curve" smooth="yes"/>
      <point x="63" y="-109"/>
      <point x="76" y="-89"/>
      <point x="131" y="-41" type="curve" smooth="yes"/>
      <point x="140" y="-34"/>
      <point x="147" y="-22"/>
      <point x="147" y="-10" type="curve" smooth="yes"/>
      <point x="147" y="33" type="line" smooth="yes"/>
      <point x="147" y="56"/>
      <point x="127" y="74"/>
      <point x="104" y="74" type="curve" smooth="yes"/>
      <point x="81" y="74"/>
      <point x="49" y="66"/>
      <point x="49" y="43" type="curve" smooth="yes"/>
      <point x="49" y="-10" type="line"/>
      <point x="77" y="21" type="line"/>
      <point x="-20" y="-61"/>
      <point x="-30" y="-103"/>
      <point x="-30" y="-136" type="curve" smooth="yes"/>
      <point x="-30" y="-191"/>
      <point x="19" y="-234"/>
    </contour>
    <contour>
      <point x="98" y="-10" type="curve" smooth="yes"/>
      <point x="122" y="-10"/>
      <point x="147" y="8"/>
      <point x="147" y="32" type="curve" smooth="yes"/>
      <point x="147" y="370" type="line" smooth="yes"/>
      <point x="147" y="392"/>
      <point x="122" y="411"/>
      <point x="98" y="411" type="curve" smooth="yes"/>
      <point x="74" y="411"/>
      <point x="49" y="392"/>
      <point x="49" y="370" type="curve" smooth="yes"/>
      <point x="49" y="32" type="line" smooth="yes"/>
      <point x="49" y="8"/>
      <point x="74" y="-10"/>
    </contour>
    <contour>
      <point x="97" y="504" type="curve" smooth="yes"/>
      <point x="127" y="504"/>
      <point x="164" y="520"/>
      <point x="164" y="569" type="curve" smooth="yes"/>
      <point x="164" y="618"/>
      <point x="126" y="635"/>
      <point x="97" y="635" type="curve" smooth="yes"/>
      <point x="63" y="635"/>
      <point x="28" y="614"/>
      <point x="28" y="569" type="curve" smooth="yes"/>
      <point x="28" y="524"/>
      <point x="61" y="504"/>
    </contour>
    <contour>
      <point x="104" y="51" type="move" name="_ogonek"/>
    </contour>
  </outline>
</glyph>
<glyph name="lcaron" format="1">
  <advance width="349"/>
  <unicode hex="013E"/>
  <outline>
    <contour>
      <point x="112" y="-14" type="curve" smooth="yes"/>
      <point x="136" y="-14"/>
      <point x="161" y="4"/>
      <point x="161" y="28" type="curve" smooth="yes"/>
      <point x="161" y="532" type="line" smooth="yes"/>
      <point x="161" y="554"/>
      <point x="136" y="573"/>
      <point x="112" y="573" type="curve" smooth="yes"/>
      <point x="88" y="573"/>
      <point x="63" y="554"/>
      <point x="63" y="532" type="curve" smooth="yes"/>
      <point x="63" y="28" type="line" smooth="yes"/>
      <point x="63" y="4"/>
      <point x="88" y="-14"/>
    </contour>
    <contour>
      <point x="284" y="380" type="curve" smooth="yes"/>
      <point x="307" y="378"/>
      <point x="335" y="392"/>
      <point x="338" y="415" type="curve" smooth="yes"/>
      <point x="359" y="552" type="line" smooth="yes"/>
      <point x="363" y="574"/>
      <point x="341" y="596"/>
      <point x="317" y="599" type="curve" smooth="yes"/>
      <point x="294" y="602"/>
      <point x="266" y="587"/>
      <point x="263" y="565" type="curve" smooth="yes"/>
      <point x="242" y="428" type="line" smooth="yes"/>
      <point x="238" y="406"/>
      <point x="260" y="384"/>
    </contour>
  </outline>
</glyph>
<glyph name="Lslash" format="1">
  <advance width="478"/>
  <unicode hex="0141"/>
  <outline>
    <contour>
      <point x="305" y="312" type="line" smooth="yes"/>
      <point x="325" y="324"/>
      <point x="331" y="350"/>
      <point x="318" y="369" type="curve" smooth="yes"/>
      <point x="305" y="388"/>
      <point x="276" y="393"/>
      <point x="257" y="381" type="curve" smooth="yes"/>
      <point x="31" y="241" type="line" smooth="yes"/>
      <point x="11" y="228"/>
      <point x="5" y="202"/>
      <point x="18" y="184" type="curve" smooth="yes"/>
      <point x="31" y="164"/>
      <point x="60" y="160"/>
      <point x="79" y="171" type="curve" smooth="yes"/>
    </contour>
    <contour>
      <point x="420" y="-13" type="line" smooth="yes"/>
      <point x="444" y="-13"/>
      <point x="464" y="5"/>
      <point x="464" y="29" type="curve" smooth="yes"/>
      <point x="464" y="51"/>
      <point x="444" y="69"/>
      <point x="420" y="69" type="curve" smooth="yes"/>
      <point x="144" y="69" type="line" smooth="yes"/>
      <point x="120" y="69"/>
      <point x="100" y="51"/>
      <point x="100" y="29" type="curve" smooth="yes"/>
      <point x="100" y="5"/>
      <point x="120" y="-13"/>
      <point x="144" y="-13" type="curve" smooth="yes"/>
    </contour>
    <contour>
      <point x="135" y="-13" type="curve" smooth="yes"/>
      <point x="159" y="-13"/>
      <point x="184" y="5"/>
      <point x="184" y="29" type="curve" smooth="yes"/>
      <point x="184" y="507" type="line" smooth="yes"/>
      <point x="184" y="530"/>
      <point x="159" y="549"/>
      <point x="135" y="549" type="curve" smooth="yes"/>
      <point x="111" y="549"/>
      <point x="86" y="530"/>
      <point x="86" y="507" type="curve" smooth="yes"/>
      <point x="86" y="29" type="line" smooth="yes"/>
      <point x="86" y="5"/>
      <point x="111" y="-13"/>
    </contour>
  </outline>
</glyph>
<glyph name="eng" format="1">
  <advance width="502"/>
  <unicode hex="014B"/>
  <outline>
    <contour>
      <point x="407" y="-10" type="curve" smooth="yes"/>
      <point x="431" y="-10"/>
      <point x="456" y="8"/>
      <point x="456" y="32" type="curve" smooth="yes"/>
      <point x="456" y="228" type="line" smooth="yes"/>
      <point x="456" y="377"/>
      <point x="376" y="411"/>
      <point x="289" y="411" type="curve" smooth="yes"/>
      <point x="212" y="411"/>
      <point x="137" y="370"/>
      <point x="78" y="313" type="curve" smooth="yes"/>
      <point x="61" y="296"/>
      <point x="62" y="269"/>
      <point x="79" y="254" type="curve" smooth="yes"/>
      <point x="96" y="238"/>
      <point x="125" y="238"/>
      <point x="142" y="254" type="curve" smooth="yes"/>
      <point x="183" y="293"/>
      <point x="234" y="328"/>
      <point x="289" y="328" type="curve" smooth="yes"/>
      <point x="336" y="328"/>
      <point x="358" y="290"/>
      <point x="358" y="228" type="curve" smooth="yes"/>
      <point x="358" y="32" type="line" smooth="yes"/>
      <point x="358" y="8"/>
      <point x="383" y="-10"/>
    </contour>
    <contour>
      <point x="106" y="-10" type="curve" smooth="yes"/>
      <point x="130" y="-10"/>
      <point x="155" y="8"/>
      <point x="155" y="32" type="curve" smooth="yes"/>
      <point x="155" y="370" type="line" smooth="yes"/>
      <point x="155" y="392"/>
      <point x="130" y="411"/>
      <point x="106" y="411" type="curve" smooth="yes"/>
      <point x="82" y="411"/>
      <point x="57" y="392"/>
      <point x="57" y="370" type="curve" smooth="yes"/>
      <point x="57" y="32" type="line" smooth="yes"/>
      <point x="57" y="8"/>
      <point x="82" y="-10"/>
    </contour>
    <contour>
      <point x="326" y="-174" type="curve" smooth="yes"/>
      <point x="401" y="-143"/>
      <point x="456" y="-84"/>
      <point x="456" y="19" type="curve" smooth="yes"/>
      <point x="456" y="178" type="line" smooth="yes"/>
      <point x="456" y="200"/>
      <point x="431" y="220"/>
      <point x="407" y="220" type="curve" smooth="yes"/>
      <point x="383" y="220"/>
      <point x="358" y="200"/>
      <point x="358" y="178" type="curve" smooth="yes"/>
      <point x="358" y="19" type="line" smooth="yes"/>
      <point x="358" y="-44"/>
      <point x="337" y="-80"/>
      <point x="294" y="-98" type="curve" smooth="yes"/>
      <point x="272" y="-107"/>
      <point x="260" y="-131"/>
      <point x="269" y="-151" type="curve" smooth="yes"/>
      <point x="278" y="-171"/>
      <point x="304" y="-183"/>
    </contour>
    <contour>
      <point x="265" y="413" type="move" name="top"/>
    </contour>
    <contour>
      <point x="246" y="34" type="move" name="bottom"/>
    </contour>
  </outline>
</glyph>
<glyph name="oe" format="1">
  <advance width="847"/>
  <unicode hex="0153"/>
  <outline>
    <contour>
      <point x="259" y="-14" type="curve" smooth="yes"/>
      <point x="399" y="-14"/>
      <point x="491" y="75"/>
      <point x="491" y="196" type="curve" smooth="yes"/>
      <point x="491" y="320"/>
      <point x="398" y="415"/>
      <point x="259" y="415" type="curve" smooth="yes"/>
      <point x="119" y="415"/>
      <point x="28" y="319"/>
      <point x="28" y="197" type="curve" smooth="yes"/>
      <point x="28" y="76"/>
      <point x="121" y="-14"/>
    </contour>
    <contour>
      <point x="259" y="68" type="curve" smooth="yes"/>
      <point x="175" y="68"/>
      <point x="126" y="128"/>
      <point x="126" y="197" type="curve" smooth="yes"/>
      <point x="126" y="268"/>
      <point x="173" y="332"/>
      <point x="259" y="332" type="curve" smooth="yes"/>
      <point x="346" y="332"/>
      <point x="393" y="267"/>
      <point x="393" y="196" type="curve" smooth="yes"/>
      <point x="393" y="127"/>
      <point x="343" y="68"/>
    </contour>
    <contour>
      <point x="639" y="-10" type="curve" smooth="yes"/>
      <point x="683" y="-10"/>
      <point x="725" y="-1"/>
      <point x="756" y="10" type="curve" smooth="yes"/>
      <point x="779" y="18"/>
      <point x="790" y="42"/>
      <point x="782" y="64" type="curve" smooth="yes"/>
      <point x="774" y="85"/>
      <point x="746" y="94"/>
      <point x="724" y="86" type="curve" smooth="yes"/>
      <point x="701" y="78"/>
      <point x="671" y="72"/>
      <point x="639" y="72" type="curve" smooth="yes"/>
      <point x="552" y="72"/>
      <point x="491" y="115"/>
      <point x="491" y="196" type="curve" smooth="yes"/>
      <point x="491" y="270"/>
      <point x="544" y="328"/>
      <point x="618" y="328" type="curve" smooth="yes"/>
      <point x="673" y="328"/>
      <point x="712" y="292"/>
      <point x="712" y="261" type="curve" smooth="yes"/>
      <point x="712" y="245"/>
      <point x="695" y="239"/>
      <point x="675" y="239" type="curve" smooth="yes"/>
      <point x="456" y="239" type="line" smooth="yes"/>
      <point x="432" y="239"/>
      <point x="412" y="222"/>
      <point x="412" y="199" type="curve" smooth="yes"/>
      <point x="412" y="177"/>
      <point x="432" y="159"/>
      <point x="456" y="159" type="curve" smooth="yes"/>
      <point x="675" y="159" type="line" smooth="yes"/>
      <point x="781" y="159"/>
      <point x="810" y="201"/>
      <point x="810" y="261" type="curve" smooth="yes"/>
      <point x="810" y="324"/>
      <point x="739" y="410"/>
      <point x="618" y="410" type="curve" smooth="yes"/>
      <point x="498" y="410"/>
      <point x="393" y="328"/>
      <point x="393" y="196" type="curve" smooth="yes"/>
      <point x="393" y="63"/>
      <point x="494" y="-10"/>
    </contour>
  </outline>
</glyph>
<glyph name="tcaron" format="1">
  <advance width="352"/>
  <unicode hex="0165"/>
  <outline>
    <contour>
      <point x="282" y="-13" type="curve" smooth="yes"/>
      <point x="306" y="-13"/>
      <point x="327" y="4"/>
      <point x="327" y="28" type="curve" smooth="yes"/>
      <point x="327" y="50"/>
      <point x="308" y="69"/>
      <point x="284" y="69" type="curve" smooth="yes"/>
      <point x="216" y="70"/>
      <point x="180" y="95"/>
      <point x="180" y="144" type="curve" smooth="yes"/>
      <point x="180" y="491" type="line" smooth="yes"/>
      <point x="180" y="514"/>
      <point x="155" y="533"/>
      <point x="131" y="533" type="curve" smooth="yes"/>
      <point x="107" y="533"/>
      <point x="82" y="514"/>
      <point x="82" y="491" type="curve" smooth="yes"/>
      <point x="82" y="144" type="line" smooth="yes"/>
      <point x="82" y="47"/>
      <point x="138" y="-10"/>
    </contour>
    <contour>
      <point x="297" y="325" type="line" smooth="yes"/>
      <point x="321" y="325"/>
      <point x="341" y="344"/>
      <point x="341" y="366" type="curve" smooth="yes"/>
      <point x="341" y="389"/>
      <point x="321" y="408"/>
      <point x="297" y="408" type="curve" smooth="yes"/>
      <point x="38" y="408" type="line" smooth="yes"/>
      <point x="14" y="408"/>
      <point x="-6" y="389"/>
      <point x="-6" y="366" type="curve" smooth="yes"/>
      <point x="-6" y="344"/>
      <point x="14" y="325"/>
      <point x="38" y="325" type="curve" smooth="yes"/>
    </contour>
    <contour>
      <point x="275" y="477" type="curve" smooth="yes"/>
      <point x="298" y="473"/>
      <point x="324" y="488"/>
      <point x="328" y="510" type="curve" smooth="yes"/>
      <point x="351" y="636" type="line" smooth="yes"/>
      <point x="355" y="657"/>
      <point x="336" y="679"/>
      <point x="312" y="683" type="curve" smooth="yes"/>
      <point x="289" y="687"/>
      <point x="263" y="673"/>
      <point x="259" y="650" type="curve" smooth="yes"/>
      <point x="236" y="525" type="line" smooth="yes"/>
      <point x="232" y="504"/>
      <point x="253" y="481"/>
    </contour>
  </outline>
</glyph>
<glyph name="gravecomb" format="1">
  <advance width="0"/>
  <unicode hex="0300"/>
  <outline>
    <contour>
      <point x="15" y="473" type="curve" smooth="yes"/>
      <point x="35" y="485"/>
      <point x="43" y="512"/>
      <point x="30" y="531" type="curve" smooth="yes"/>
      <point x="3" y="571"/>
      <point x="-16" y="592"/>
      <point x="-45" y="627" type="curve" smooth="yes"/>
      <point x="-60" y="645"/>
      <point x="-90" y="648"/>
      <point x="-108" y="634" type="curve" smooth="yes"/>
      <point x="-127" y="619"/>
      <point x="-132" y="592"/>
      <point x="-117" y="574" type="curve" smooth="yes"/>
      <point x="-90" y="541"/>
      <point x="-74" y="522"/>
      <point x="-48" y="484" type="curve" smooth="yes"/>
      <point x="-35" y="465"/>
      <point x="-6" y="461"/>
    </contour>
    <contour>
      <point x="0" y="394" type="move" name="_top"/>
    </contour>
  </outline>
</glyph>
<glyph name="circumflexcomb" format="1">
  <advance width="0"/>
  <unicode hex="0302"/>
  <outline>
    <contour>
      <point x="64" y="482" type="curve" smooth="yes"/>
      <point x="81" y="466"/>
      <point x="111" y="466"/>
      <point x="127" y="483" type="curve" smooth="yes"/>
      <point x="143" y="500"/>
      <point x="143" y="527"/>
      <point x="126" y="542" type="curve" smooth="yes"/>
      <point x="97" y="567"/>
      <point x="67" y="600"/>
      <point x="33" y="629" type="curve" smooth="yes"/>
      <point x="15" y="644"/>
      <point x="-14" y="642"/>
      <point x="-30" y="626" type="curve" smooth="yes"/>
      <point x="-46" y="610"/>
      <point x="-47" y="582"/>
      <point x="-29" y="567" type="curve" smooth="yes"/>
      <point x="4" y="539"/>
      <point x="37" y="508"/>
    </contour>
    <contour>
      <point x="-64" y="482" type="curve" smooth="yes"/>
      <point x="-37" y="507"/>
      <point x="-3" y="539"/>
      <point x="28" y="568" type="curve" smooth="yes"/>
      <point x="45" y="584"/>
      <point x="44" y="611"/>
      <point x="27" y="627" type="curve" smooth="yes"/>
      <point x="10" y="643"/>
      <point x="-19" y="644"/>
      <point x="-36" y="628" type="curve" smooth="yes"/>
      <point x="-67" y="599"/>
      <point x="-101" y="568"/>
      <point x="-128" y="542" type="curve" smooth="yes"/>
      <point x="-145" y="526"/>
      <point x="-144" y="499"/>
      <point x="-127" y="483" type="curve" smooth="yes"/>
      <point x="-110" y="467"/>
      <point x="-81" y="466"/>
    </contour>
    <contour>
      <point x="0" y="394" type="move" name="_top"/>
    </contour>
  </outline>
</glyph>
<glyph name="brevecomb" format="1">
  <advance width="0"/>
  <unicode hex="0306"/>
  <outline>
    <contour>
      <point x="-1" y="480" type="curve" smooth="yes"/>
      <point x="66" y="480"/>
      <point x="108" y="510"/>
      <point x="142" y="560" type="curve" smooth="yes"/>
      <point x="155" y="579"/>
      <point x="146" y="606"/>
      <point x="126" y="618" type="curve" smooth="yes"/>
      <point x="106" y="630"/>
      <point x="77" y="624"/>
      <point x="64" y="605" type="curve" smooth="yes"/>
      <point x="49" y="583"/>
      <point x="32" y="563"/>
      <point x="-1" y="563" type="curve" smooth="yes"/>
      <point x="-31" y="563"/>
      <point x="-55" y="584"/>
      <point x="-70" y="606" type="curve" smooth="yes"/>
      <point x="-83" y="625"/>
      <point x="-112" y="631"/>
      <point x="-132" y="618" type="curve" smooth="yes"/>
      <point x="-152" y="605"/>
      <point x="-159" y="578"/>
      <point x="-146" y="559" type="curve" smooth="yes"/>
      <point x="-112" y="510"/>
      <point x="-59" y="480"/>
    </contour>
    <contour>
      <point x="0" y="394" type="move" name="_top"/>
    </contour>
  </outline>
</glyph>
<glyph name="dieresiscomb" format="1">
  <advance width="0"/>
  <unicode hex="0308"/>
  <outline>
    <contour>
      <point x="99" y="482" type="curve" smooth="yes"/>
      <point x="129" y="482"/>
      <point x="165" y="496"/>
      <point x="165" y="547" type="curve" smooth="yes"/>
      <point x="165" y="598"/>
      <point x="128" y="614"/>
      <point x="99" y="614" type="curve" smooth="yes"/>
      <point x="70" y="614"/>
      <point x="33" y="598"/>
      <point x="33" y="547" type="curve" smooth="yes"/>
      <point x="33" y="496"/>
      <point x="69" y="482"/>
    </contour>
    <contour>
      <point x="-97" y="482" type="curve" smooth="yes"/>
      <point x="-69" y="482"/>
      <point x="-32" y="493"/>
      <point x="-32" y="547" type="curve" smooth="yes"/>
      <point x="-32" y="601"/>
      <point x="-71" y="614"/>
      <point x="-97" y="614" type="curve" smooth="yes"/>
      <point x="-129" y="614"/>
      <point x="-164" y="596"/>
      <point x="-164" y="547" type="curve"/>
      <point x="-164" y="498"/>
      <point x="-130" y="482"/>
    </contour>
    <contour>
      <point x="0" y="394" type="move" name="_top"/>
    </contour>
  </outline>
</glyph>
<glyph name="caroncomb" format="1">
  <advance width="0"/>
  <unicode hex="030C"/>
  <outline>
    <contour>
      <point x="32" y="477" type="curve" smooth="yes"/>
      <point x="56" y="501"/>
      <point x="94" y="538"/>
      <point x="122" y="563" type="curve" smooth="yes"/>
      <point x="139" y="578"/>
      <point x="140" y="606"/>
      <point x="123" y="622" type="curve" smooth="yes"/>
      <point x="106" y="638"/>
      <point x="77" y="639"/>
      <point x="60" y="623" type="curve" smooth="yes"/>
      <point x="33" y="597"/>
      <point x="-8" y="560"/>
      <point x="-32" y="538" type="curve" smooth="yes"/>
      <point x="-49" y="522"/>
      <point x="-48" y="494"/>
      <point x="-31" y="478" type="curve" smooth="yes"/>
      <point x="-14" y="462"/>
      <point x="16" y="461"/>
    </contour>
    <contour>
      <point x="-38" y="477" type="curve" smooth="yes"/>
      <point x="-21" y="462"/>
      <point x="8" y="462"/>
      <point x="25" y="478" type="curve" smooth="yes"/>
      <point x="42" y="494"/>
      <point x="43" y="522"/>
      <point x="26" y="538" type="curve" smooth="yes"/>
      <point x="1" y="561"/>
      <point x="-37" y="598"/>
      <point x="-64" y="623" type="curve" smooth="yes"/>
      <point x="-81" y="639"/>
      <point x="-110" y="638"/>
      <point x="-127" y="622" type="curve" smooth="yes"/>
      <point x="-144" y="606"/>
      <point x="-145" y="579"/>
      <point x="-128" y="563" type="curve" smooth="yes"/>
      <point x="-101" y="538"/>
      <point x="-64" y="500"/>
    </contour>
    <contour>
      <point x="0" y="394" type="move" name="_top"/>
    </contour>
  </outline>
</glyph>
<glyph name="ogonekcomb" format="1">
  <advance width="0"/>
  <unicode hex="0328"/>
  <outline>
    <contour>
      <point x="16" y="-287" type="curve" smooth="yes"/>
      <point x="40" y="-287"/>
      <point x="59" y="-269"/>
      <point x="59" y="-248" type="curve" smooth="yes"/>
      <point x="59" y="-226"/>
      <point x="40" y="-209"/>
      <point x="16" y="-209" type="curve" smooth="yes"/>
      <point x="-41" y="-209"/>
      <point x="-58" y="-196"/>
      <point x="-58" y="-179" type="curve" smooth="yes"/>
      <point x="-58" y="-162"/>
      <point x="-45" y="-142"/>
      <point x="27" y="-94" type="curve" smooth="yes"/>
      <point x="36" y="-88"/>
      <point x="43" y="-75"/>
      <point x="43" y="-63" type="curve" smooth="yes"/>
      <point x="43" y="-20" type="line" smooth="yes"/>
      <point x="43" y="3"/>
      <point x="23" y="21"/>
      <point x="0" y="21" type="curve" smooth="yes"/>
      <point x="-23" y="21"/>
      <point x="-43" y="3"/>
      <point x="-43" y="-20" type="curve" smooth="yes"/>
      <point x="-43" y="-63" type="line"/>
      <point x="-27" y="-32" type="line"/>
      <point x="-141" y="-114"/>
      <point x="-151" y="-156"/>
      <point x="-151" y="-189" type="curve" smooth="yes"/>
      <point x="-151" y="-244"/>
      <point x="-102" y="-287"/>
    </contour>
    <contour>
      <point x="0" y="-2" type="move" name="_ogonek"/>
    </contour>
  </outline>
</glyph>
<glyph name="pi" format="1">
  <advance width="645"/>
  <unicode hex="03C0"/>
  <outline>
    <contour>
      <point x="507" y="-5" type="curve" smooth="yes"/>
      <point x="527" y="-17"/>
      <point x="555" y="-10"/>
      <point x="567" y="8" type="curve" smooth="yes"/>
      <point x="580" y="28"/>
      <point x="573" y="54"/>
      <point x="553" y="66" type="curve" smooth="yes"/>
      <point x="507" y="93"/>
      <point x="495" y="136"/>
      <point x="495" y="224" type="curve" smooth="yes"/>
      <point x="495" y="401" type="line" smooth="yes"/>
      <point x="495" y="423"/>
      <point x="470" y="442"/>
      <point x="446" y="442" type="curve" smooth="yes"/>
      <point x="414" y="442"/>
      <point x="397" y="430"/>
      <point x="397" y="401" type="curve"/>
      <point x="397" y="224" type="line" smooth="yes"/>
      <point x="397" y="84"/>
      <point x="439" y="34"/>
    </contour>
    <contour>
      <point x="194" y="-11" type="curve" smooth="yes"/>
      <point x="218" y="-11"/>
      <point x="243" y="7"/>
      <point x="243" y="31" type="curve" smooth="yes"/>
      <point x="243" y="401" type="line" smooth="yes"/>
      <point x="243" y="423"/>
      <point x="218" y="442"/>
      <point x="194" y="442" type="curve" smooth="yes"/>
      <point x="162" y="442"/>
      <point x="145" y="430"/>
      <point x="145" y="401" type="curve"/>
      <point x="145" y="31" type="line" smooth="yes"/>
      <point x="145" y="7"/>
      <point x="170" y="-11"/>
    </contour>
    <contour>
      <point x="558" y="365" type="line" smooth="yes"/>
      <point x="582" y="365"/>
      <point x="602" y="384"/>
      <point x="602" y="407" type="curve" smooth="yes"/>
      <point x="602" y="436"/>
      <point x="590" y="448"/>
      <point x="558" y="448" type="curve"/>
      <point x="86" y="448" type="line" smooth="yes"/>
      <point x="62" y="448"/>
      <point x="42" y="429"/>
      <point x="42" y="407" type="curve" smooth="yes"/>
      <point x="42" y="384"/>
      <point x="62" y="365"/>
      <point x="86" y="365" type="curve" smooth="yes"/>
    </contour>
  </outline>
</glyph>
<glyph name="bAnusvara" format="1">
  <advance width="342"/>
  <unicode hex="0982"/>
  <outline>
    <contour>
      <point x="321" y="-13" type="curve" smooth="yes"/>
      <point x="352" y="-13"/>
      <point x="365" y="8"/>
      <point x="365" y="33" type="curve" smooth="yes"/>
      <point x="365" y="53"/>
      <point x="356" y="66"/>
      <point x="343" y="83" type="curve"/>
      <point x="324" y="105"/>
      <point x="296" y="134"/>
      <point x="268" y="193" type="curve" smooth="yes"/>
      <point x="240" y="253"/>
      <point x="206" y="325"/>
      <point x="105" y="325" type="curve" smooth="yes"/>
      <point x="44" y="325"/>
      <point x="32" y="299"/>
      <point x="32" y="277" type="curve" smooth="yes"/>
      <point x="32" y="236"/>
      <point x="70" y="228"/>
      <point x="93" y="224" type="curve" smooth="yes"/>
      <point x="144" y="214"/>
      <point x="165" y="201"/>
      <point x="198" y="125" type="curve" smooth="yes"/>
      <point x="220" y="73"/>
      <point x="258" y="-13"/>
    </contour>
    <contour>
      <point x="162" y="348" type="curve" smooth="yes"/>
      <point x="214" y="348"/>
      <point x="279" y="386"/>
      <point x="279" y="460" type="curve" smooth="yes"/>
      <point x="279" y="524"/>
      <point x="230" y="585"/>
      <point x="158" y="585" type="curve" smooth="yes"/>
      <point x="94" y="585"/>
      <point x="42" y="537"/>
      <point x="42" y="470" type="curve" smooth="yes"/>
      <point x="42" y="398"/>
      <point x="102" y="348"/>
    </contour>
    <contour>
      <point x="163" y="436" type="curve" smooth="yes"/>
      <point x="148" y="436"/>
      <point x="130" y="448"/>
      <point x="130" y="469" type="curve" smooth="yes"/>
      <point x="130" y="490"/>
      <point x="146" y="501"/>
      <point x="161" y="501" type="curve" smooth="yes"/>
      <point x="177" y="501"/>
      <point x="192" y="486"/>
      <point x="192" y="466" type="curve" smooth="yes"/>
      <point x="192" y="444"/>
      <point x="176" y="436"/>
    </contour>
  </outline>
</glyph>
<glyph name="bVisarga" format="1">
  <advance width="350"/>
  <unicode hex="0983"/>
  <outline>
    <contour>
      <point x="173" y="338" type="curve" smooth="yes"/>
      <point x="228" y="338"/>
      <point x="296" y="378"/>
      <point x="296" y="456" type="curve" smooth="yes"/>
      <point x="296" y="523"/>
      <point x="246" y="587"/>
      <point x="170" y="587" type="curve" smooth="yes"/>
      <point x="103" y="587"/>
      <point x="49" y="538"/>
      <point x="49" y="467" type="curve" smooth="yes"/>
      <point x="49" y="391"/>
      <point x="110" y="338"/>
    </contour>
    <contour>
      <point x="173" y="50" type="curve" smooth="yes"/>
      <point x="228" y="50"/>
      <point x="296" y="90"/>
      <point x="296" y="168" type="curve" smooth="yes"/>
      <point x="296" y="235"/>
      <point x="246" y="299"/>
      <point x="170" y="299" type="curve" smooth="yes"/>
      <point x="103" y="299"/>
      <point x="49" y="250"/>
      <point x="49" y="179" type="curve" smooth="yes"/>
      <point x="49" y="103"/>
      <point x="110" y="50"/>
    </contour>
    <contour>
      <point x="175" y="141" type="curve" smooth="yes"/>
      <point x="159" y="141"/>
      <point x="140" y="154"/>
      <point x="140" y="176" type="curve" smooth="yes"/>
      <point x="140" y="198"/>
      <point x="157" y="209"/>
      <point x="173" y="209" type="curve" smooth="yes"/>
      <point x="190" y="209"/>
      <point x="206" y="194"/>
      <point x="206" y="173" type="curve" smooth="yes"/>
      <point x="206" y="150"/>
      <point x="189" y="141"/>
    </contour>
    <contour>
      <point x="175" y="429" type="curve" smooth="yes"/>
      <point x="159" y="429"/>
      <point x="140" y="442"/>
      <point x="140" y="464" type="curve" smooth="yes"/>
      <point x="140" y="486"/>
      <point x="157" y="497"/>
      <point x="173" y="497" type="curve" smooth="yes"/>
      <point x="190" y="497"/>
      <point x="206" y="482"/>
      <point x="206" y="461" type="curve" smooth="yes"/>
      <point x="206" y="438"/>
      <point x="189" y="429"/>
    </contour>
  </outline>
</glyph>
<glyph name="bBa" format="1">
  <advance width="485"/>
  <unicode hex="09AC"/>
  <outline>
    <contour>
      <point x="387" y="84" type="line"/>
      <point x="387" y="215"/>
      <point x="164" y="318"/>
      <point x="81" y="318" type="curve"/>
      <point x="127" y="289" type="line"/>
      <point x="329" y="357"/>
      <point x="368" y="422"/>
      <point x="368" y="476" type="curve" smooth="yes"/>
      <point x="368" y="528"/>
      <point x="331" y="587"/>
      <point x="250" y="587" type="curve" smooth="yes"/>
      <point x="0" y="587" type="line" smooth="yes"/>
      <point x="-17" y="587"/>
      <point x="-40" y="575"/>
      <point x="-40" y="546" type="curve" smooth="yes"/>
      <point x="-40" y="517"/>
      <point x="-19" y="502"/>
      <point x="0" y="502" type="curve" smooth="yes"/>
      <point x="222" y="502" type="line" smooth="yes"/>
      <point x="246" y="502"/>
      <point x="298" y="505"/>
      <point x="298" y="487" type="curve" smooth="yes"/>
      <point x="298" y="460"/>
      <point x="184" y="419"/>
      <point x="46" y="362" type="curve" smooth="yes"/>
      <point x="12" y="348"/>
      <point x="0" y="327"/>
      <point x="0" y="302" type="curve" smooth="yes"/>
      <point x="0" y="262"/>
      <point x="32" y="249"/>
      <point x="64" y="239" type="curve" smooth="yes"/>
      <point x="110" y="225"/>
      <point x="324" y="159"/>
      <point x="324" y="49" type="curve"/>
    </contour>
    <contour>
      <point x="371" y="-12" type="curve" smooth="yes"/>
      <point x="398" y="-12"/>
      <point x="419" y="12"/>
      <point x="419" y="44" type="curve" smooth="yes"/>
      <point x="419" y="435" type="line" smooth="yes"/>
      <point x="419" y="491"/>
      <point x="419" y="502"/>
      <point x="453" y="502" type="curve" smooth="yes"/>
      <point x="485" y="502" type="line" smooth="yes"/>
      <point x="511" y="502"/>
      <point x="531" y="520"/>
      <point x="531" y="545" type="curve" smooth="yes"/>
      <point x="531" y="569"/>
      <point x="511" y="587"/>
      <point x="485" y="587" type="curve" smooth="yes"/>
      <point x="430" y="587" type="line" smooth="yes"/>
      <point x="368" y="587"/>
      <point x="324" y="544"/>
      <point x="324" y="457" type="curve" smooth="yes"/>
      <point x="324" y="44" type="line" smooth="yes"/>
      <point x="324" y="12"/>
      <point x="344" y="-12"/>
    </contour>
  </outline>
</glyph>
<glyph name="bSignVocalicR" format="1">
  <advance width="0"/>
  <unicode hex="09C3"/>
  <outline>
    <contour>
      <point x="-63" y="-193" type="curve" smooth="yes"/>
      <point x="-48" y="-193"/>
      <point x="-35" y="-185"/>
      <point x="-35" y="-160" type="curve" smooth="yes"/>
      <point x="-35" y="-131"/>
      <point x="-50" y="-118"/>
      <point x="-72" y="-104" type="curve" smooth="yes"/>
      <point x="-213" y="-9" type="line"/>
      <point x="-219" y="-48" type="line"/>
      <point x="-101" y="-9" type="line" smooth="yes"/>
      <point x="-80" y="-2"/>
      <point x="-66" y="18"/>
      <point x="-66" y="40" type="curve" smooth="yes"/>
      <point x="-66" y="125" type="line" smooth="yes"/>
      <point x="-66" y="157"/>
      <point x="-87" y="181"/>
      <point x="-114" y="181" type="curve" smooth="yes"/>
      <point x="-141" y="181"/>
      <point x="-161" y="157"/>
      <point x="-161" y="125" type="curve" smooth="yes"/>
      <point x="-161" y="12" type="line"/>
      <point x="-132" y="67" type="line"/>
      <point x="-263" y="22" type="line" smooth="yes"/>
      <point x="-286" y="14"/>
      <point x="-298" y="0"/>
      <point x="-298" y="-17" type="curve" smooth="yes"/>
      <point x="-298" y="-51"/>
      <point x="-273" y="-61"/>
      <point x="-243" y="-81" type="curve" smooth="yes"/>
      <point x="-180" y="-123"/>
      <point x="-90" y="-193"/>
    </contour>
  </outline>
</glyph>
<glyph name="bSignE" format="1">
  <advance width="292"/>
  <unicode hex="09C7"/>
  <outline>
    <contour>
      <point x="220" y="-12" type="curve" smooth="yes"/>
      <point x="289" y="-12"/>
      <point x="320" y="37"/>
      <point x="320" y="84" type="curve" smooth="yes"/>
      <point x="320" y="129"/>
      <point x="286" y="174"/>
      <point x="226" y="174" type="curve" smooth="yes"/>
      <point x="182" y="174"/>
      <point x="136" y="137"/>
      <point x="136" y="84" type="curve" smooth="yes"/>
      <point x="136" y="47"/>
      <point x="168" y="8"/>
      <point x="202" y="8" type="curve"/>
      <point x="199" y="29" type="line"/>
      <point x="150" y="74"/>
      <point x="117" y="119"/>
      <point x="117" y="201" type="curve" smooth="yes"/>
      <point x="117" y="334"/>
      <point x="240" y="413"/>
      <point x="240" y="498" type="curve" smooth="yes"/>
      <point x="240" y="550"/>
      <point x="200" y="587"/>
      <point x="136" y="587" type="curve" smooth="yes"/>
      <point x="0" y="587" type="line" smooth="yes"/>
      <point x="-26" y="587"/>
      <point x="-46" y="569"/>
      <point x="-46" y="545" type="curve" smooth="yes"/>
      <point x="-46" y="521"/>
      <point x="-26" y="502"/>
      <point x="0" y="502" type="curve" smooth="yes"/>
      <point x="89" y="502" type="line" smooth="yes"/>
      <point x="103" y="502"/>
      <point x="145" y="505"/>
      <point x="145" y="486" type="curve" smooth="yes"/>
      <point x="145" y="453"/>
      <point x="28" y="351"/>
      <point x="28" y="213" type="curve" smooth="yes"/>
      <point x="28" y="80"/>
      <point x="129" y="-12"/>
    </contour>
    <contour>
      <point x="220" y="58" type="curve" smooth="yes"/>
      <point x="208" y="58"/>
      <point x="196" y="67"/>
      <point x="196" y="82" type="curve" smooth="yes"/>
      <point x="196" y="96"/>
      <point x="206" y="106"/>
      <point x="220" y="106" type="curve" smooth="yes"/>
      <point x="235" y="106"/>
      <point x="244" y="95"/>
      <point x="244" y="81" type="curve" smooth="yes"/>
      <point x="244" y="66"/>
      <point x="232" y="58"/>
    </contour>
  </outline>
</glyph>
<glyph name="endash" format="1">
  <advance width="511"/>
  <unicode hex="2013"/>
  <outline>
    <contour>
      <point x="407" y="182" type="line" smooth="yes"/>
      <point x="431" y="182"/>
      <point x="451" y="200"/>
      <point x="451" y="223" type="curve" smooth="yes"/>
      <point x="451" y="246"/>
      <point x="431" y="264"/>
      <point x="407" y="264" type="curve" smooth="yes"/>
      <point x="104" y="264" type="line" smooth="yes"/>
      <point x="80" y="264"/>
      <point x="60" y="246"/>
      <point x="60" y="223" type="curve" smooth="yes"/>
      <point x="60" y="200"/>
      <point x="80" y="182"/>
      <point x="104" y="182" type="curve" smooth="yes"/>
    </contour>
  </outline>
</glyph>
<glyph name="quoteright" format="1">
  <advance width="237"/>
  <unicode hex="2019"/>
  <outline>
    <contour>
      <point x="56" y="350" type="curve" smooth="yes"/>
      <point x="75" y="337"/>
      <point x="104" y="339"/>
      <point x="119" y="357" type="curve" smooth="yes"/>
      <point x="153" y="398"/>
      <point x="176" y="453"/>
      <point x="176" y="508" type="curve" smooth="yes"/>
      <point x="176" y="533"/>
      <point x="171" y="556"/>
      <point x="165" y="570" type="curve" smooth="yes"/>
      <point x="158" y="592"/>
      <point x="129" y="602"/>
      <point x="106" y="596" type="curve" smooth="yes"/>
      <point x="84" y="588"/>
      <point x="67" y="563"/>
      <point x="75" y="542" type="curve" smooth="yes"/>
      <point x="77" y="534"/>
      <point x="78" y="521"/>
      <point x="78" y="508" type="curve" smooth="yes"/>
      <point x="78" y="473"/>
      <point x="69" y="436"/>
      <point x="47" y="410" type="curve" smooth="yes"/>
      <point x="32" y="391"/>
      <point x="37" y="364"/>
    </contour>
  </outline>
</glyph>
<glyph name="quotesinglbase" format="1">
  <advance width="237"/>
  <unicode hex="201A"/>
  <outline>
    <contour>
      <point x="56" y="-114" type="curve" smooth="yes"/>
      <point x="75" y="-127"/>
      <point x="104" y="-125"/>
      <point x="119" y="-107" type="curve" smooth="yes"/>
      <point x="153" y="-65"/>
      <point x="176" y="-11"/>
      <point x="176" y="44" type="curve" smooth="yes"/>
      <point x="176" y="68"/>
      <point x="171" y="93"/>
      <point x="165" y="106" type="curve" smooth="yes"/>
      <point x="158" y="128"/>
      <point x="129" y="138"/>
      <point x="106" y="131" type="curve" smooth="yes"/>
      <point x="84" y="125"/>
      <point x="67" y="99"/>
      <point x="75" y="78" type="curve" smooth="yes"/>
      <point x="77" y="69"/>
      <point x="78" y="58"/>
      <point x="78" y="44" type="curve" smooth="yes"/>
      <point x="78" y="9"/>
      <point x="69" y="-29"/>
      <point x="47" y="-55" type="curve" smooth="yes"/>
      <point x="32" y="-72"/>
      <point x="37" y="-99"/>
    </contour>
  </outline>
</glyph>
<glyph name="quotedblright" format="1">
  <advance width="406"/>
  <unicode hex="201D"/>
  <outline>
    <contour>
      <point x="224" y="351" type="curve" smooth="yes"/>
      <point x="242" y="337"/>
      <point x="272" y="339"/>
      <point x="286" y="357" type="curve" smooth="yes"/>
      <point x="321" y="397"/>
      <point x="345" y="452"/>
      <point x="345" y="500" type="curve" smooth="yes"/>
      <point x="345" y="528"/>
      <point x="341" y="549"/>
      <point x="336" y="567" type="curve" smooth="yes"/>
      <point x="330" y="588"/>
      <point x="301" y="600"/>
      <point x="278" y="596" type="curve" smooth="yes"/>
      <point x="255" y="590"/>
      <point x="236" y="566"/>
      <point x="242" y="544" type="curve" smooth="yes"/>
      <point x="245" y="532"/>
      <point x="247" y="519"/>
      <point x="247" y="500" type="curve" smooth="yes"/>
      <point x="247" y="471"/>
      <point x="237" y="435"/>
      <point x="216" y="410" type="curve" smooth="yes"/>
      <point x="201" y="392"/>
      <point x="205" y="364"/>
    </contour>
    <contour>
      <point x="56" y="351" type="curve" smooth="yes"/>
      <point x="74" y="337"/>
      <point x="104" y="339"/>
      <point x="118" y="357" type="curve" smooth="yes"/>
      <point x="153" y="397"/>
      <point x="177" y="452"/>
      <point x="177" y="500" type="curve" smooth="yes"/>
      <point x="177" y="528"/>
      <point x="173" y="549"/>
      <point x="168" y="567" type="curve" smooth="yes"/>
      <point x="162" y="588"/>
      <point x="133" y="600"/>
      <point x="110" y="596" type="curve" smooth="yes"/>
      <point x="87" y="590"/>
      <point x="68" y="566"/>
      <point x="74" y="544" type="curve" smooth="yes"/>
      <point x="77" y="532"/>
      <point x="79" y="519"/>
      <point x="79" y="500" type="curve" smooth="yes"/>
      <point x="79" y="471"/>
      <point x="69" y="435"/>
      <point x="48" y="410" type="curve" smooth="yes"/>
      <point x="33" y="392"/>
      <point x="37" y="364"/>
    </contour>
  </outline>
</glyph>
<glyph name="daggerdbl" format="1">
  <advance width="497"/>
  <unicode hex="2021"/>
  <outline>
    <contour>
      <point x="248" y="-13" type="curve" smooth="yes"/>
      <point x="272" y="-13"/>
      <point x="297" y="5"/>
      <point x="297" y="29" type="curve" smooth="yes"/>
      <point x="297" y="507" type="line" smooth="yes"/>
      <point x="297" y="530"/>
      <point x="272" y="549"/>
      <point x="248" y="549" type="curve" smooth="yes"/>
      <point x="224" y="549"/>
      <point x="199" y="530"/>
      <point x="199" y="507" type="curve" smooth="yes"/>
      <point x="199" y="29" type="line" smooth="yes"/>
      <point x="199" y="5"/>
      <point x="224" y="-13"/>
    </contour>
    <contour>
      <point x="407" y="144" type="line" smooth="yes"/>
      <point x="431" y="144"/>
      <point x="451" y="163"/>
      <point x="451" y="186" type="curve" smooth="yes"/>
      <point x="451" y="208"/>
      <point x="431" y="227"/>
      <point x="407" y="227" type="curve" smooth="yes"/>
      <point x="90" y="227" type="line" smooth="yes"/>
      <point x="66" y="227"/>
      <point x="46" y="208"/>
      <point x="46" y="186" type="curve" smooth="yes"/>
      <point x="46" y="163"/>
      <point x="66" y="144"/>
      <point x="90" y="144" type="curve" smooth="yes"/>
    </contour>
    <contour>
      <point x="407" y="340" type="line" smooth="yes"/>
      <point x="431" y="340"/>
      <point x="451" y="358"/>
      <point x="451" y="381" type="curve" smooth="yes"/>
      <point x="451" y="404"/>
      <point x="431" y="422"/>
      <point x="407" y="422" type="curve" smooth="yes"/>
      <point x="90" y="422" type="line" smooth="yes"/>
      <point x="66" y="422"/>
      <point x="46" y="404"/>
      <point x="46" y="381" type="curve" smooth="yes"/>
      <point x="46" y="358"/>
      <point x="66" y="340"/>
      <point x="90" y="340" type="curve" smooth="yes"/>
    </contour>
  </outline>
</glyph>
<glyph name="bullet" format="1">
  <advance width="527"/>
  <unicode hex="2022"/>
  <outline>
    <contour>
      <point x="263" y="98" type="curve" smooth="yes"/>
      <point x="355" y="98"/>
      <point x="422" y="160"/>
      <point x="422" y="240" type="curve" smooth="yes"/>
      <point x="422" y="316"/>
      <point x="360" y="384"/>
      <point x="263" y="384" type="curve" smooth="yes"/>
      <point x="172" y="384"/>
      <point x="104" y="315"/>
      <point x="104" y="241" type="curve" smooth="yes"/>
      <point x="104" y="159"/>
      <point x="176" y="98"/>
    </contour>
  </outline>
</glyph>
<glyph name="guilsinglleft" format="1">
  <advance width="261"/>
  <unicode hex="2039"/>
  <outline>
    <contour>
      <point x="207" y="14" type="curve" smooth="yes"/>
      <point x="226" y="28"/>
      <point x="232" y="55"/>
      <point x="218" y="72" type="curve" smooth="yes"/>
      <point x="102" y="222" type="line" smooth="yes"/>
      <point x="88" y="239"/>
      <point x="58" y="243"/>
      <point x="39" y="228" type="curve" smooth="yes"/>
      <point x="20" y="216"/>
      <point x="14" y="189"/>
      <point x="28" y="170" type="curve" smooth="yes"/>
      <point x="144" y="22" type="line" smooth="yes"/>
      <point x="158" y="3"/>
      <point x="188" y="1"/>
    </contour>
    <contour>
      <point x="39" y="167" type="curve" smooth="yes"/>
      <point x="58" y="154"/>
      <point x="88" y="158"/>
      <point x="102" y="175" type="curve" smooth="yes"/>
      <point x="218" y="324" type="line" smooth="yes"/>
      <point x="232" y="342"/>
      <point x="226" y="369"/>
      <point x="207" y="382" type="curve" smooth="yes"/>
      <point x="188" y="396"/>
      <point x="158" y="392"/>
      <point x="144" y="375" type="curve" smooth="yes"/>
      <point x="28" y="226" type="line" smooth="yes"/>
      <point x="14" y="208"/>
      <point x="20" y="181"/>
    </contour>
  </outline>
</glyph>
<glyph name="guilsinglright" format="1">
  <advance width="261"/>
  <unicode hex="203A"/>
  <outline>
    <contour>
      <point x="54" y="14" type="curve" smooth="yes"/>
      <point x="73" y="1"/>
      <point x="103" y="3"/>
      <point x="117" y="22" type="curve" smooth="yes"/>
      <point x="234" y="170" type="line" smooth="yes"/>
      <point x="248" y="189"/>
      <point x="242" y="216"/>
      <point x="223" y="228" type="curve" smooth="yes"/>
      <point x="204" y="243"/>
      <point x="174" y="239"/>
      <point x="160" y="222" type="curve" smooth="yes"/>
      <point x="43" y="72" type="line" smooth="yes"/>
      <point x="29" y="55"/>
      <point x="35" y="28"/>
    </contour>
    <contour>
      <point x="223" y="167" type="curve" smooth="yes"/>
      <point x="242" y="181"/>
      <point x="248" y="208"/>
      <point x="234" y="226" type="curve" smooth="yes"/>
      <point x="117" y="375" type="line" smooth="yes"/>
      <point x="103" y="392"/>
      <point x="73" y="396"/>
      <point x="54" y="382" type="curve" smooth="yes"/>
      <point x="35" y="369"/>
      <point x="29" y="342"/>
      <point x="43" y="324" type="curve" smooth="yes"/>
      <point x="160" y="175" type="line" smooth="yes"/>
      <point x="174" y="158"/>
      <point x="204" y="154"/>
    </contour>
  </outline>
</glyph>
<glyph name="Euro" format="1">
  <advance width="605"/>
  <unicode hex="20AC"/>
  <outline>
    <contour>
      <point x="394" y="-23" type="curve" smooth="yes"/>
      <point x="454" y="-23"/>
      <point x="508" y="-9"/>
      <point x="549" y="12" type="curve" smooth="yes"/>
      <point x="570" y="24"/>
      <point x="578" y="50"/>
      <point x="566" y="68" type="curve" smooth="yes"/>
      <point x="555" y="89"/>
      <point x="527" y="97"/>
      <point x="507" y="86" type="curve" smooth="yes"/>
      <point x="476" y="69"/>
      <point x="438" y="61"/>
      <point x="394" y="61" type="curve" smooth="yes"/>
      <point x="253" y="61"/>
      <point x="193" y="154"/>
      <point x="193" y="264" type="curve" smooth="yes"/>
      <point x="193" y="385"/>
      <point x="270" y="475"/>
      <point x="389" y="475" type="curve" smooth="yes"/>
      <point x="433" y="475"/>
      <point x="474" y="467"/>
      <point x="500" y="452" type="curve" smooth="yes"/>
      <point x="521" y="441"/>
      <point x="549" y="447"/>
      <point x="561" y="467" type="curve" smooth="yes"/>
      <point x="573" y="486"/>
      <point x="566" y="512"/>
      <point x="546" y="523" type="curve" smooth="yes"/>
      <point x="508" y="544"/>
      <point x="451" y="558"/>
      <point x="389" y="558" type="curve" smooth="yes"/>
      <point x="224" y="558"/>
      <point x="95" y="445"/>
      <point x="95" y="264" type="curve" smooth="yes"/>
      <point x="95" y="99"/>
      <point x="197" y="-23"/>
    </contour>
    <contour>
      <point x="434" y="150" type="line" smooth="yes"/>
      <point x="458" y="150"/>
      <point x="478" y="168"/>
      <point x="478" y="191" type="curve" smooth="yes"/>
      <point x="478" y="214"/>
      <point x="458" y="232"/>
      <point x="434" y="232" type="curve" smooth="yes"/>
      <point x="69" y="232" type="line" smooth="yes"/>
      <point x="45" y="232"/>
      <point x="25" y="214"/>
      <point x="25" y="191" type="curve" smooth="yes"/>
      <point x="25" y="168"/>
      <point x="45" y="150"/>
      <point x="69" y="150" type="curve" smooth="yes"/>
    </contour>
    <contour>
      <point x="434" y="298" type="line" smooth="yes"/>
      <point x="458" y="298"/>
      <point x="478" y="317"/>
      <point x="478" y="340" type="curve" smooth="yes"/>
      <point x="478" y="362"/>
      <point x="458" y="381"/>
      <point x="434" y="381" type="curve" smooth="yes"/>
      <point x="69" y="381" type="line" smooth="yes"/>
      <point x="45" y="381"/>
      <point x="25" y="362"/>
      <point x="25" y="340" type="curve" smooth="yes"/>
      <point x="25" y="317"/>
      <point x="45" y="298"/>
      <point x="69" y="298" type="curve" smooth="yes"/>
    </contour>
  </outline>
</glyph>
<glyph name="uni20B9" format="1">
  <advance width="448"/>
  <unicode hex="20B9"/>
  <outline>
    <contour>
      <point x="387" y="-40" type="curve" smooth="yes"/>
      <point x="418" y="-40"/>
      <point x="437" y="-24"/>
      <point x="437" y="1" type="curve" smooth="yes"/>
      <point x="437" y="22"/>
      <point x="421" y="37"/>
      <point x="387" y="51" type="curve" smooth="yes"/>
      <point x="337" y="72"/>
      <point x="304" y="142"/>
      <point x="264" y="211" type="curve" smooth="yes"/>
      <point x="233" y="265"/>
      <point x="191" y="308"/>
      <point x="126" y="308" type="curve" smooth="yes"/>
      <point x="61" y="308"/>
      <point x="26" y="265"/>
      <point x="26" y="219" type="curve" smooth="yes"/>
      <point x="26" y="162"/>
      <point x="73" y="120"/>
      <point x="151" y="120" type="curve" smooth="yes"/>
      <point x="257" y="120"/>
      <point x="366" y="217"/>
      <point x="366" y="351" type="curve" smooth="yes"/>
      <point x="366" y="461"/>
      <point x="277" y="554"/>
      <point x="118" y="554" type="curve"/>
      <point x="121" y="502" type="line"/>
      <point x="205" y="502"/>
      <point x="271" y="430"/>
      <point x="271" y="351" type="curve" smooth="yes"/>
      <point x="271" y="265"/>
      <point x="209" y="204"/>
      <point x="138" y="204" type="curve" smooth="yes"/>
      <point x="116" y="204"/>
      <point x="103" y="213"/>
      <point x="103" y="221" type="curve" smooth="yes"/>
      <point x="103" y="225"/>
      <point x="109" y="229"/>
      <point x="120" y="229" type="curve" smooth="yes"/>
      <point x="147" y="229"/>
      <point x="183" y="167"/>
      <point x="204" y="141" type="curve" smooth="yes"/>
      <point x="250" y="84"/>
      <point x="308" y="-40"/>
    </contour>
    <contour>
      <point x="447" y="352" type="line" smooth="yes"/>
      <point x="473" y="352"/>
      <point x="493" y="370"/>
      <point x="493" y="395" type="curve" smooth="yes"/>
      <point x="493" y="419"/>
      <point x="473" y="437"/>
      <point x="447" y="437" type="curve" smooth="yes"/>
      <point x="70" y="437" type="line" smooth="yes"/>
      <point x="44" y="437"/>
      <point x="24" y="419"/>
      <point x="24" y="395" type="curve" smooth="yes"/>
      <point x="24" y="371"/>
      <point x="44" y="352"/>
      <point x="70" y="352" type="curve" smooth="yes"/>
    </contour>
    <contour>
      <point x="447" y="502" type="line" smooth="yes"/>
      <point x="473" y="502"/>
      <point x="493" y="520"/>
      <point x="493" y="545" type="curve" smooth="yes"/>
      <point x="493" y="569"/>
      <point x="473" y="587"/>
      <point x="447" y="587" type="curve" smooth="yes"/>
      <point x="0" y="587" type="line" smooth="yes"/>
      <point x="-26" y="587"/>
      <point x="-46" y="569"/>
      <point x="-46" y="545" type="curve" smooth="yes"/>
      <point x="-46" y="521"/>
      <point x="-26" y="502"/>
      <point x="0" y="502" type="curve" smooth="yes"/>
    </contour>
  </outline>
</glyph>
<glyph name="uni20BD" format="1">
  <advance width="539"/>
  <unicode hex="20BD"/>
  <outline>
    <contour>
      <point x="156" y="-13" type="curve" smooth="yes"/>
      <point x="180" y="-13"/>
      <point x="205" y="5"/>
      <point x="205" y="29" type="curve" smooth="yes"/>
      <point x="205" y="507" type="line"/>
      <point x="156" y="466" type="line"/>
      <point x="298" y="466" type="line" smooth="yes"/>
      <point x="367" y="466"/>
      <point x="416" y="437"/>
      <point x="416" y="386" type="curve" smooth="yes"/>
      <point x="416" y="340"/>
      <point x="374" y="306"/>
      <point x="298" y="306" type="curve" smooth="yes"/>
      <point x="58" y="306" type="line" smooth="yes"/>
      <point x="34" y="306"/>
      <point x="14" y="287"/>
      <point x="14" y="264" type="curve" smooth="yes"/>
      <point x="14" y="242"/>
      <point x="34" y="223"/>
      <point x="58" y="223" type="curve" smooth="yes"/>
      <point x="298" y="223" type="line" smooth="yes"/>
      <point x="454" y="223"/>
      <point x="514" y="300"/>
      <point x="514" y="386" type="curve" smooth="yes"/>
      <point x="514" y="480"/>
      <point x="437" y="549"/>
      <point x="298" y="549" type="curve" smooth="yes"/>
      <point x="156" y="549" type="line" smooth="yes"/>
      <point x="129" y="549"/>
      <point x="107" y="530"/>
      <point x="107" y="507" type="curve" smooth="yes"/>
      <point x="107" y="29" type="line" smooth="yes"/>
      <point x="107" y="5"/>
      <point x="132" y="-13"/>
    </contour>
    <contour>
      <point x="332" y="75" type="line" smooth="yes"/>
      <point x="356" y="75"/>
      <point x="376" y="95"/>
      <point x="376" y="117" type="curve" smooth="yes"/>
      <point x="376" y="139"/>
      <point x="356" y="159"/>
      <point x="332" y="159" type="curve" smooth="yes"/>
      <point x="57" y="159" type="line" smooth="yes"/>
      <point x="33" y="159"/>
      <point x="13" y="139"/>
      <point x="13" y="117" type="curve" smooth="yes"/>
      <point x="13" y="95"/>
      <point x="33" y="75"/>
      <point x="57" y="75" type="curve" smooth="yes"/>
    </contour>
  </outline>
</glyph>
<glyph name="uni2113" format="1">
  <advance width="360"/>
  <unicode hex="2113"/>
  <outline>
    <contour>
      <point x="195" y="-24" type="curve" smooth="yes"/>
      <point x="234" y="-24"/>
      <point x="275" y="-13"/>
      <point x="313" y="9" type="curve" smooth="yes"/>
      <point x="333" y="21"/>
      <point x="339" y="47"/>
      <point x="326" y="67" type="curve" smooth="yes"/>
      <point x="313" y="86"/>
      <point x="285" y="92"/>
      <point x="265" y="79" type="curve" smooth="yes"/>
      <point x="243" y="66"/>
      <point x="218" y="60"/>
      <point x="195" y="60" type="curve" smooth="yes"/>
      <point x="169" y="60"/>
      <point x="157" y="77"/>
      <point x="157" y="98" type="curve" smooth="yes"/>
      <point x="157" y="391" type="line" smooth="yes"/>
      <point x="157" y="425"/>
      <point x="144" y="491"/>
      <point x="195" y="491" type="curve" smooth="yes"/>
      <point x="245" y="491"/>
      <point x="237" y="412"/>
      <point x="237" y="378" type="curve" smooth="yes"/>
      <point x="237" y="325"/>
      <point x="217" y="265"/>
      <point x="190" y="241" type="curve" smooth="yes"/>
      <point x="158" y="210"/>
      <point x="112" y="187"/>
      <point x="31" y="159" type="curve" smooth="yes"/>
      <point x="9" y="151"/>
      <point x="-3" y="127"/>
      <point x="5" y="105" type="curve" smooth="yes"/>
      <point x="13" y="85"/>
      <point x="39" y="72"/>
      <point x="61" y="81" type="curve" smooth="yes"/>
      <point x="160" y="115"/>
      <point x="214" y="144"/>
      <point x="254" y="181" type="curve" smooth="yes"/>
      <point x="291" y="215"/>
      <point x="335" y="297"/>
      <point x="335" y="378" type="curve" smooth="yes"/>
      <point x="335" y="495"/>
      <point x="281" y="574"/>
      <point x="195" y="574" type="curve" smooth="yes"/>
      <point x="102" y="574"/>
      <point x="59" y="512"/>
      <point x="59" y="391" type="curve" smooth="yes"/>
      <point x="59" y="98" type="line" smooth="yes"/>
      <point x="59" y="25"/>
      <point x="115" y="-24"/>
    </contour>
  </outline>
</glyph>
<glyph name="trademark" format="1">
  <advance width="776"/>
  <unicode hex="2122"/>
  <outline>
    <contour>
      <point x="559" y="259" type="curve" smooth="yes"/>
      <point x="580" y="268"/>
      <point x="590" y="293"/>
      <point x="580" y="313" type="curve" smooth="yes"/>
      <point x="546" y="381"/>
      <point x="496" y="478"/>
      <point x="465" y="540" type="curve" smooth="yes"/>
      <point x="455" y="560"/>
      <point x="429" y="569"/>
      <point x="408" y="560" type="curve" smooth="yes"/>
      <point x="387" y="551"/>
      <point x="377" y="526"/>
      <point x="387" y="506" type="curve" smooth="yes"/>
      <point x="418" y="444"/>
      <point x="468" y="348"/>
      <point x="502" y="279" type="curve" smooth="yes"/>
      <point x="512" y="259"/>
      <point x="538" y="250"/>
    </contour>
    <contour>
      <point x="163" y="247" type="curve" smooth="yes"/>
      <point x="186" y="247"/>
      <point x="206" y="265"/>
      <point x="206" y="287" type="curve" smooth="yes"/>
      <point x="206" y="525" type="line" smooth="yes"/>
      <point x="206" y="547"/>
      <point x="186" y="566"/>
      <point x="163" y="566" type="curve" smooth="yes"/>
      <point x="140" y="566"/>
      <point x="120" y="547"/>
      <point x="120" y="525" type="curve" smooth="yes"/>
      <point x="120" y="287" type="line" smooth="yes"/>
      <point x="120" y="265"/>
      <point x="140" y="247"/>
    </contour>
    <contour>
      <point x="276" y="485" type="line" smooth="yes"/>
      <point x="299" y="485"/>
      <point x="319" y="504"/>
      <point x="319" y="525" type="curve" smooth="yes"/>
      <point x="319" y="547"/>
      <point x="299" y="566"/>
      <point x="276" y="566" type="curve" smooth="yes"/>
      <point x="53" y="566" type="line" smooth="yes"/>
      <point x="30" y="566"/>
      <point x="10" y="547"/>
      <point x="10" y="525" type="curve" smooth="yes"/>
      <point x="10" y="504"/>
      <point x="30" y="485"/>
      <point x="53" y="485" type="curve" smooth="yes"/>
    </contour>
    <contour>
      <point x="376" y="246" type="curve" smooth="yes"/>
      <point x="399" y="244"/>
      <point x="421" y="261"/>
      <point x="423" y="283" type="curve" smooth="yes"/>
      <point x="429" y="339"/>
      <point x="446" y="454"/>
      <point x="457" y="522" type="curve" smooth="yes"/>
      <point x="461" y="544"/>
      <point x="445" y="566"/>
      <point x="422" y="568" type="curve" smooth="yes"/>
      <point x="399" y="572"/>
      <point x="376" y="557"/>
      <point x="373" y="536" type="curve" smooth="yes"/>
      <point x="360" y="465"/>
      <point x="343" y="348"/>
      <point x="337" y="290" type="curve" smooth="yes"/>
      <point x="335" y="268"/>
      <point x="353" y="248"/>
    </contour>
    <contour>
      <point x="526" y="265" type="curve" smooth="yes"/>
      <point x="547" y="256"/>
      <point x="573" y="265"/>
      <point x="582" y="286" type="curve" smooth="yes"/>
      <point x="613" y="351"/>
      <point x="655" y="436"/>
      <point x="693" y="508" type="curve" smooth="yes"/>
      <point x="704" y="527"/>
      <point x="695" y="552"/>
      <point x="674" y="562" type="curve" smooth="yes"/>
      <point x="654" y="572"/>
      <point x="627" y="564"/>
      <point x="617" y="544" type="curve" smooth="yes"/>
      <point x="577" y="472"/>
      <point x="535" y="385"/>
      <point x="504" y="318" type="curve" smooth="yes"/>
      <point x="494" y="298"/>
      <point x="504" y="274"/>
    </contour>
    <contour>
      <point x="707" y="246" type="curve" smooth="yes"/>
      <point x="730" y="250"/>
      <point x="747" y="270"/>
      <point x="744" y="292" type="curve" smooth="yes"/>
      <point x="733" y="358"/>
      <point x="721" y="460"/>
      <point x="704" y="538" type="curve" smooth="yes"/>
      <point x="699" y="559"/>
      <point x="676" y="574"/>
      <point x="653" y="569" type="curve" smooth="yes"/>
      <point x="631" y="565"/>
      <point x="615" y="543"/>
      <point x="620" y="521" type="curve" smooth="yes"/>
      <point x="637" y="445"/>
      <point x="649" y="346"/>
      <point x="658" y="281" type="curve" smooth="yes"/>
      <point x="662" y="259"/>
      <point x="684" y="243"/>
    </contour>
  </outline>
</glyph>
<glyph name="infinity" format="1">
  <advance width="738"/>
  <unicode hex="221E"/>
  <outline>
    <contour>
      <point x="534" y="107" type="curve" smooth="yes"/>
      <point x="620" y="107"/>
      <point x="701" y="163"/>
      <point x="701" y="269" type="curve" smooth="yes"/>
      <point x="701" y="381"/>
      <point x="605" y="435"/>
      <point x="529" y="435" type="curve" smooth="yes"/>
      <point x="446" y="435"/>
      <point x="384" y="379"/>
      <point x="328" y="286" type="curve" smooth="yes"/>
      <point x="295" y="233"/>
      <point x="259" y="191"/>
      <point x="207" y="191" type="curve" smooth="yes"/>
      <point x="162" y="191"/>
      <point x="136" y="227"/>
      <point x="136" y="271" type="curve" smooth="yes"/>
      <point x="136" y="316"/>
      <point x="161" y="353"/>
      <point x="202" y="353" type="curve" smooth="yes"/>
      <point x="248" y="353"/>
      <point x="266" y="335"/>
      <point x="341" y="234" type="curve" smooth="yes"/>
      <point x="405" y="149"/>
      <point x="463" y="107"/>
    </contour>
    <contour>
      <point x="207" y="108" type="curve" smooth="yes"/>
      <point x="285" y="108"/>
      <point x="355" y="155"/>
      <point x="408" y="243" type="curve" smooth="yes"/>
      <point x="442" y="297"/>
      <point x="472" y="352"/>
      <point x="529" y="352" type="curve" smooth="yes"/>
      <point x="567" y="352"/>
      <point x="603" y="317"/>
      <point x="603" y="269" type="curve" smooth="yes"/>
      <point x="603" y="225"/>
      <point x="576" y="191"/>
      <point x="534" y="191" type="curve" smooth="yes"/>
      <point x="487" y="191"/>
      <point x="455" y="231"/>
      <point x="417" y="284" type="curve" smooth="yes"/>
      <point x="332" y="394"/>
      <point x="278" y="436"/>
      <point x="202" y="436" type="curve" smooth="yes"/>
      <point x="121" y="436"/>
      <point x="38" y="382"/>
      <point x="38" y="271" type="curve" smooth="yes"/>
      <point x="38" y="166"/>
      <point x="116" y="108"/>
    </contour>
  </outline>
</glyph>
<glyph name="BASE" format="1">
  <advance width="623"/>
  <unicode hex="25CC"/>
  <outline>
    <contour>
      <point x="537" y="212" type="curve" smooth="yes"/>
      <point x="566" y="212"/>
      <point x="585" y="231"/>
      <point x="585" y="263" type="curve" smooth="yes"/>
      <point x="585" y="294"/>
      <point x="563" y="312"/>
      <point x="537" y="312" type="curve" smooth="yes"/>
      <point x="512" y="312"/>
      <point x="491" y="294"/>
      <point x="491" y="263" type="curve" smooth="yes"/>
      <point x="491" y="231"/>
      <point x="512" y="212"/>
    </contour>
    <contour>
      <point x="197" y="8" type="curve" smooth="yes"/>
      <point x="226" y="8"/>
      <point x="245" y="27"/>
      <point x="245" y="60" type="curve" smooth="yes"/>
      <point x="245" y="90"/>
      <point x="224" y="107"/>
      <point x="197" y="107" type="curve" smooth="yes"/>
      <point x="172" y="107"/>
      <point x="151" y="90"/>
      <point x="151" y="60" type="curve" smooth="yes"/>
      <point x="151" y="27"/>
      <point x="172" y="8"/>
    </contour>
    <contour>
      <point x="114" y="95" type="curve" smooth="yes"/>
      <point x="143" y="95"/>
      <point x="162" y="114"/>
      <point x="162" y="146" type="curve" smooth="yes"/>
      <point x="162" y="177"/>
      <point x="141" y="195"/>
      <point x="114" y="195" type="curve" smooth="yes"/>
      <point x="89" y="195"/>
      <point x="68" y="177"/>
      <point x="68" y="146" type="curve" smooth="yes"/>
      <point x="68" y="114"/>
      <point x="89" y="95"/>
    </contour>
    <contour>
      <point x="311" y="-22" type="curve" smooth="yes"/>
      <point x="340" y="-22"/>
      <point x="359" y="-3"/>
      <point x="359" y="30" type="curve" smooth="yes"/>
      <point x="359" y="60"/>
      <point x="338" y="77"/>
      <point x="311" y="77" type="curve" smooth="yes"/>
      <point x="286" y="77"/>
      <point x="265" y="60"/>
      <point x="265" y="30" type="curve" smooth="yes"/>
      <point x="265" y="-3"/>
      <point x="286" y="-22"/>
    </contour>
    <contour>
      <point x="84" y="212" type="curve" smooth="yes"/>
      <point x="113" y="212"/>
      <point x="132" y="231"/>
      <point x="132" y="263" type="curve" smooth="yes"/>
      <point x="132" y="294"/>
      <point x="111" y="312"/>
      <point x="84" y="312" type="curve" smooth="yes"/>
      <point x="59" y="312"/>
      <point x="38" y="294"/>
      <point x="38" y="263" type="curve" smooth="yes"/>
      <point x="38" y="231"/>
      <point x="59" y="212"/>
    </contour>
    <contour>
      <point x="424" y="8" type="curve" smooth="yes"/>
      <point x="453" y="8"/>
      <point x="472" y="27"/>
      <point x="472" y="60" type="curve" smooth="yes"/>
      <point x="472" y="90"/>
      <point x="451" y="107"/>
      <point x="424" y="107" type="curve" smooth="yes"/>
      <point x="399" y="107"/>
      <point x="378" y="90"/>
      <point x="378" y="60" type="curve" smooth="yes"/>
      <point x="378" y="27"/>
      <point x="399" y="8"/>
    </contour>
    <contour>
      <point x="114" y="331" type="curve" smooth="yes"/>
      <point x="143" y="331"/>
      <point x="162" y="350"/>
      <point x="162" y="381" type="curve" smooth="yes"/>
      <point x="162" y="413"/>
      <point x="141" y="430"/>
      <point x="114" y="430" type="curve" smooth="yes"/>
      <point x="89" y="430"/>
      <point x="68" y="413"/>
      <point x="68" y="381" type="curve" smooth="yes"/>
      <point x="68" y="350"/>
      <point x="89" y="331"/>
    </contour>
    <contour>
      <point x="508" y="95" type="curve" smooth="yes"/>
      <point x="537" y="95"/>
      <point x="556" y="114"/>
      <point x="556" y="146" type="curve" smooth="yes"/>
      <point x="556" y="177"/>
      <point x="535" y="195"/>
      <point x="508" y="195" type="curve" smooth="yes"/>
      <point x="483" y="195"/>
      <point x="462" y="177"/>
      <point x="462" y="146" type="curve" smooth="yes"/>
      <point x="462" y="114"/>
      <point x="483" y="95"/>
    </contour>
    <contour>
      <point x="197" y="418" type="curve" smooth="yes"/>
      <point x="226" y="418"/>
      <point x="245" y="437"/>
      <point x="245" y="468" type="curve" smooth="yes"/>
      <point x="245" y="500"/>
      <point x="224" y="517"/>
      <point x="197" y="517" type="curve" smooth="yes"/>
      <point x="172" y="517"/>
      <point x="151" y="500"/>
      <point x="151" y="468" type="curve" smooth="yes"/>
      <point x="151" y="437"/>
      <point x="172" y="418"/>
    </contour>
    <contour>
      <point x="311" y="447" type="curve" smooth="yes"/>
      <point x="340" y="447"/>
      <point x="359" y="466"/>
      <point x="359" y="497" type="curve" smooth="yes"/>
      <point x="359" y="528"/>
      <point x="338" y="546"/>
      <point x="311" y="546" type="curve" smooth="yes"/>
      <point x="286" y="546"/>
      <point x="265" y="528"/>
      <point x="265" y="497" type="curve" smooth="yes"/>
      <point x="265" y="466"/>
      <point x="286" y="447"/>
    </contour>
    <contour>
      <point x="508" y="330" type="curve" smooth="yes"/>
      <point x="537" y="330"/>
      <point x="556" y="348"/>
      <point x="556" y="380" type="curve" smooth="yes"/>
      <point x="556" y="411"/>
      <point x="535" y="429"/>
      <point x="508" y="429" type="curve" smooth="yes"/>
      <point x="483" y="429"/>
      <point x="462" y="411"/>
      <point x="462" y="380" type="curve" smooth="yes"/>
      <point x="462" y="348"/>
      <point x="483" y="330"/>
    </contour>
    <contour>
      <point x="424" y="417" type="curve" smooth="yes"/>
      <point x="453" y="417"/>
      <point x="472" y="436"/>
      <point x="472" y="467" type="curve" smooth="yes"/>
      <point x="472" y="498"/>
      <point x="451" y="516"/>
      <point x="424" y="516" type="curve" smooth="yes"/>
      <point x="399" y="516"/>
      <point x="378" y="498"/>
      <point x="378" y="467" type="curve" smooth="yes"/>
      <point x="378" y="436"/>
      <point x="399" y="417"/>
    </contour>
  </outline>
</glyph>
<glyph name="fi" format="1">
  <advance width="541"/>
  <unicode hex="FB01"/>
  <outline>
    <contour>
      <point x="131" y="-15" type="curve" smooth="yes"/>
      <point x="155" y="-15"/>
      <point x="180" y="3"/>
      <point x="180" y="27" type="curve" smooth="yes"/>
      <point x="180" y="437" type="line" smooth="yes"/>
      <point x="180" y="484"/>
      <point x="204" y="512"/>
      <point x="276" y="516" type="curve" smooth="yes"/>
      <point x="300" y="517"/>
      <point x="319" y="537"/>
      <point x="318" y="559" type="curve" smooth="yes"/>
      <point x="317" y="582"/>
      <point x="295" y="599"/>
      <point x="272" y="598" type="curve" smooth="yes"/>
      <point x="124" y="591"/>
      <point x="82" y="529"/>
      <point x="82" y="437" type="curve" smooth="yes"/>
      <point x="82" y="27" type="line" smooth="yes"/>
      <point x="82" y="3"/>
      <point x="107" y="-15"/>
    </contour>
    <contour>
      <point x="276" y="323" type="line" smooth="yes"/>
      <point x="300" y="323"/>
      <point x="320" y="342"/>
      <point x="320" y="364" type="curve" smooth="yes"/>
      <point x="320" y="387"/>
      <point x="300" y="406"/>
      <point x="276" y="406" type="curve" smooth="yes"/>
      <point x="38" y="406" type="line" smooth="yes"/>
      <point x="14" y="406"/>
      <point x="-6" y="387"/>
      <point x="-6" y="364" type="curve" smooth="yes"/>
      <point x="-6" y="342"/>
      <point x="14" y="323"/>
      <point x="38" y="323" type="curve" smooth="yes"/>
    </contour>
    <contour>
      <point x="455" y="-15" type="curve" smooth="yes"/>
      <point x="479" y="-15"/>
      <point x="504" y="3"/>
      <point x="504" y="27" type="curve" smooth="yes"/>
      <point x="504" y="364" type="line" smooth="yes"/>
      <point x="504" y="387"/>
      <point x="479" y="406"/>
      <point x="455" y="406" type="curve" smooth="yes"/>
      <point x="431" y="406"/>
      <point x="406" y="387"/>
      <point x="406" y="364" type="curve" smooth="yes"/>
      <point x="406" y="27" type="line" smooth="yes"/>
      <point x="406" y="3"/>
      <point x="431" y="-15"/>
    </contour>
    <contour>
      <point x="456" y="479" type="curve" smooth="yes"/>
      <point x="489" y="479"/>
      <point x="523" y="499"/>
      <point x="523" y="544" type="curve" smooth="yes"/>
      <point x="523" y="591"/>
      <point x="488" y="612"/>
      <point x="455" y="612" type="curve" smooth="yes"/>
      <point x="424" y="612"/>
      <point x="387" y="591"/>
      <point x="387" y="544" type="curve" smooth="yes"/>
      <point x="387" y="502"/>
      <point x="423" y="479"/>
    </contour>
  </outline>
</glyph>
<glyph name="fl" format="1">
  <advance width="568"/>
  <unicode hex="FB02"/>
  <outline>
    <contour>
      <point x="131" y="-14" type="curve" smooth="yes"/>
      <point x="155" y="-14"/>
      <point x="180" y="4"/>
      <point x="180" y="28" type="curve" smooth="yes"/>
      <point x="180" y="437" type="line" smooth="yes"/>
      <point x="180" y="484"/>
      <point x="204" y="512"/>
      <point x="276" y="516" type="curve" smooth="yes"/>
      <point x="300" y="517"/>
      <point x="319" y="537"/>
      <point x="318" y="559" type="curve" smooth="yes"/>
      <point x="317" y="582"/>
      <point x="295" y="599"/>
      <point x="272" y="598" type="curve" smooth="yes"/>
      <point x="124" y="591"/>
      <point x="82" y="529"/>
      <point x="82" y="437" type="curve" smooth="yes"/>
      <point x="82" y="28" type="line" smooth="yes"/>
      <point x="82" y="4"/>
      <point x="107" y="-14"/>
    </contour>
    <contour>
      <point x="276" y="324" type="line" smooth="yes"/>
      <point x="300" y="324"/>
      <point x="320" y="343"/>
      <point x="320" y="365" type="curve" smooth="yes"/>
      <point x="320" y="388"/>
      <point x="300" y="407"/>
      <point x="276" y="407" type="curve" smooth="yes"/>
      <point x="38" y="407" type="line" smooth="yes"/>
      <point x="14" y="407"/>
      <point x="-6" y="388"/>
      <point x="-6" y="365" type="curve" smooth="yes"/>
      <point x="-6" y="343"/>
      <point x="14" y="324"/>
      <point x="38" y="324" type="curve" smooth="yes"/>
    </contour>
    <contour>
      <point x="456" y="-14" type="curve" smooth="yes"/>
      <point x="480" y="-14"/>
      <point x="505" y="4"/>
      <point x="505" y="28" type="curve" smooth="yes"/>
      <point x="505" y="532" type="line" smooth="yes"/>
      <point x="505" y="554"/>
      <point x="480" y="573"/>
      <point x="456" y="573" type="curve" smooth="yes"/>
      <point x="432" y="573"/>
      <point x="407" y="554"/>
      <point x="407" y="532" type="curve" smooth="yes"/>
      <point x="407" y="28" type="line" smooth="yes"/>
      <point x="407" y="4"/>
      <point x="432" y="-14"/>
    </contour>
  </outline>
</glyph>
<glyph name="bBDa" format="1">
  <advance width="730"/>
  <outline>
    <contour>
      <point x="617" y="-52" type="curve" smooth="yes"/>
      <point x="650" y="-52"/>
      <point x="662" y="-20"/>
      <point x="662" y="28" type="curve" smooth="yes"/>
      <point x="662" y="91"/>
      <point x="646" y="164"/>
      <point x="646" y="232" type="curve" smooth="yes"/>
      <point x="646" y="313"/>
      <point x="675" y="370"/>
      <point x="675" y="410" type="curve" smooth="yes"/>
      <point x="675" y="428"/>
      <point x="667" y="451"/>
      <point x="631" y="451" type="curve" smooth="yes"/>
      <point x="588" y="451"/>
      <point x="462" y="349"/>
      <point x="367" y="253" type="curve"/>
      <point x="386" y="235" type="line"/>
      <point x="386" y="406" type="line" smooth="yes"/>
      <point x="386" y="455"/>
      <point x="384" y="502"/>
      <point x="434" y="502" type="curve" smooth="yes"/>
      <point x="729" y="502" type="line" smooth="yes"/>
      <point x="755" y="502"/>
      <point x="775" y="520"/>
      <point x="775" y="545" type="curve" smooth="yes"/>
      <point x="775" y="569"/>
      <point x="755" y="587"/>
      <point x="729" y="587" type="curve" smooth="yes"/>
      <point x="415" y="587" type="line" smooth="yes"/>
      <point x="368" y="587"/>
      <point x="291" y="571"/>
      <point x="291" y="477" type="curve" smooth="yes"/>
      <point x="291" y="176" type="line" smooth="yes"/>
      <point x="291" y="143"/>
      <point x="308" y="124"/>
      <point x="336" y="124" type="curve" smooth="yes"/>
      <point x="368" y="124"/>
      <point x="386" y="140"/>
      <point x="435" y="189" type="curve" smooth="yes"/>
      <point x="477" y="231"/>
      <point x="558" y="300"/>
      <point x="603" y="331" type="curve"/>
      <point x="600" y="337" type="line"/>
      <point x="563" y="312"/>
      <point x="554" y="261"/>
      <point x="554" y="223" type="curve" smooth="yes"/>
      <point x="554" y="165"/>
      <point x="566" y="91"/>
      <point x="566" y="28" type="curve" smooth="yes"/>
      <point x="566" y="-25"/>
      <point x="586" y="-52"/>
    </contour>
    <contour>
      <point x="353" y="188" type="line"/>
      <point x="342" y="279"/>
      <point x="222" y="348"/>
      <point x="146" y="348" type="curve"/>
      <point x="143" y="316" type="line"/>
      <point x="216" y="347"/>
      <point x="357" y="377"/>
      <point x="355" y="486" type="curve" smooth="yes"/>
      <point x="354" y="543"/>
      <point x="305" y="587"/>
      <point x="226" y="587" type="curve" smooth="yes"/>
      <point x="0" y="587" type="line" smooth="yes"/>
      <point x="-26" y="587"/>
      <point x="-46" y="569"/>
      <point x="-46" y="545" type="curve" smooth="yes"/>
      <point x="-46" y="521"/>
      <point x="-26" y="502"/>
      <point x="0" y="502" type="curve" smooth="yes"/>
      <point x="212" y="502" type="line" smooth="yes"/>
      <point x="268" y="502"/>
      <point x="290" y="506"/>
      <point x="290" y="483" type="curve" smooth="yes"/>
      <point x="290" y="457"/>
      <point x="197" y="428"/>
      <point x="88" y="382" type="curve" smooth="yes"/>
      <point x="55" y="368"/>
      <point x="47" y="350"/>
      <point x="47" y="330" type="curve" smooth="yes"/>
      <point x="47" y="305"/>
      <point x="67" y="290"/>
      <point x="92" y="283" type="curve" smooth="yes"/>
      <point x="145" y="268"/>
      <point x="291" y="224"/>
      <point x="291" y="173" type="curve"/>
    </contour>
  </outline>
</glyph>
<glyph name="bBhRa_bSignU" format="1">
  <advance width="778"/>
  <outline>
    <contour>
      <point x="624" y="53" type="curve" smooth="yes"/>
      <point x="706" y="53"/>
      <point x="776" y="112"/>
      <point x="776" y="206" type="curve" smooth="yes"/>
      <point x="776" y="285"/>
      <point x="726" y="348"/>
      <point x="649" y="348" type="curve" smooth="yes"/>
      <point x="583" y="348"/>
      <point x="542" y="302"/>
      <point x="542" y="251" type="curve" smooth="yes"/>
      <point x="542" y="190"/>
      <point x="601" y="156"/>
      <point x="647" y="156" type="curve" smooth="yes"/>
      <point x="696" y="156"/>
      <point x="730" y="196"/>
      <point x="730" y="238" type="curve" smooth="yes"/>
      <point x="730" y="266"/>
      <point x="716" y="294"/>
      <point x="686" y="309" type="curve"/>
      <point x="670" y="277" type="line"/>
      <point x="695" y="264"/>
      <point x="709" y="232"/>
      <point x="709" y="208" type="curve" smooth="yes"/>
      <point x="709" y="171"/>
      <point x="677" y="137"/>
      <point x="627" y="137" type="curve" smooth="yes"/>
      <point x="564" y="137"/>
      <point x="501" y="190"/>
      <point x="501" y="262" type="curve"/>
      <point x="452" y="235" type="line"/>
      <point x="452" y="156"/>
      <point x="516" y="53"/>
    </contour>
    <contour>
      <point x="658" y="225" type="curve" smooth="yes"/>
      <point x="645" y="225"/>
      <point x="634" y="234"/>
      <point x="634" y="248" type="curve" smooth="yes"/>
      <point x="634" y="265"/>
      <point x="645" y="272"/>
      <point x="658" y="272" type="curve" smooth="yes"/>
      <point x="669" y="272"/>
      <point x="681" y="265"/>
      <point x="681" y="248" type="curve" smooth="yes"/>
      <point x="681" y="233"/>
      <point x="669" y="225"/>
    </contour>
    <contour>
      <point x="778" y="502" type="line" smooth="yes"/>
      <point x="804" y="502"/>
      <point x="824" y="520"/>
      <point x="824" y="545" type="curve" smooth="yes"/>
      <point x="824" y="569"/>
      <point x="804" y="587"/>
      <point x="778" y="587" type="curve" smooth="yes"/>
      <point x="553" y="587" type="line" smooth="yes"/>
      <point x="546" y="587"/>
      <point x="518" y="582"/>
      <point x="518" y="545" type="curve" smooth="yes"/>
      <point x="518" y="510"/>
      <point x="544" y="502"/>
      <point x="553" y="502" type="curve" smooth="yes"/>
    </contour>
    <contour>
      <point x="457" y="-122" type="curve" smooth="yes"/>
      <point x="489" y="-122"/>
      <point x="502" y="-88"/>
      <point x="502" y="-60" type="curve" smooth="yes"/>
      <point x="502" y="240" type="line" smooth="yes"/>
      <point x="502" y="347"/>
      <point x="439" y="407"/>
      <point x="387" y="407" type="curve" smooth="yes"/>
      <point x="369" y="407"/>
      <point x="351" y="392"/>
      <point x="351" y="358" type="curve" smooth="yes"/>
      <point x="351" y="320"/>
      <point x="310" y="268"/>
      <point x="258" y="268" type="curve" smooth="yes"/>
      <point x="243" y="268"/>
      <point x="228" y="272"/>
      <point x="212" y="282" type="curve"/>
      <point x="138" y="275" type="line"/>
      <point x="160" y="266"/>
      <point x="180" y="262"/>
      <point x="197" y="262" type="curve" smooth="yes"/>
      <point x="266" y="262"/>
      <point x="300" y="320"/>
      <point x="300" y="361" type="curve" smooth="yes"/>
      <point x="300" y="428"/>
      <point x="252" y="464"/>
      <point x="193" y="464" type="curve" smooth="yes"/>
      <point x="137" y="464"/>
      <point x="79" y="426"/>
      <point x="79" y="350" type="curve" smooth="yes"/>
      <point x="79" y="247"/>
      <point x="167" y="182"/>
      <point x="255" y="182" type="curve" smooth="yes"/>
      <point x="377" y="182"/>
      <point x="407" y="278"/>
      <point x="420" y="310" type="curve"/>
      <point x="364" y="296" type="line"/>
      <point x="401" y="296"/>
      <point x="406" y="272"/>
      <point x="406" y="237" type="curve" smooth="yes"/>
      <point x="406" y="-60" type="line" smooth="yes"/>
      <point x="406" y="-88"/>
      <point x="417" y="-122"/>
    </contour>
    <contour>
      <point x="191" y="321" type="curve" smooth="yes"/>
      <point x="177" y="321"/>
      <point x="162" y="333"/>
      <point x="162" y="351" type="curve" smooth="yes"/>
      <point x="162" y="369"/>
      <point x="178" y="379"/>
      <point x="191" y="379" type="curve" smooth="yes"/>
      <point x="205" y="379"/>
      <point x="220" y="368"/>
      <point x="220" y="349" type="curve" smooth="yes"/>
      <point x="220" y="329"/>
      <point x="201" y="321"/>
    </contour>
    <contour>
      <point x="558" y="502" type="line" smooth="yes"/>
      <point x="584" y="502"/>
      <point x="604" y="520"/>
      <point x="604" y="545" type="curve" smooth="yes"/>
      <point x="604" y="569"/>
      <point x="584" y="587"/>
      <point x="558" y="587" type="curve" smooth="yes"/>
      <point x="0" y="587" type="line" smooth="yes"/>
      <point x="-26" y="587"/>
      <point x="-46" y="569"/>
      <point x="-46" y="545" type="curve" smooth="yes"/>
      <point x="-46" y="521"/>
      <point x="-26" y="502"/>
      <point x="0" y="502" type="curve" smooth="yes"/>
    </contour>
    <contour>
      <point x="448" y="-6" type="line"/>
      <point x="424" y="65"/>
      <point x="374" y="91"/>
      <point x="320" y="91" type="curve" smooth="yes"/>
      <point x="255" y="91"/>
      <point x="211" y="66"/>
      <point x="169" y="66" type="curve" smooth="yes"/>
      <point x="136" y="66"/>
      <point x="116" y="83"/>
      <point x="116" y="107" type="curve" smooth="yes"/>
      <point x="116" y="117"/>
      <point x="120" y="126"/>
      <point x="120" y="139" type="curve" smooth="yes"/>
      <point x="120" y="162"/>
      <point x="105" y="180"/>
      <point x="81" y="180" type="curve" smooth="yes"/>
      <point x="48" y="180"/>
      <point x="29" y="145"/>
      <point x="29" y="107" type="curve" smooth="yes"/>
      <point x="29" y="39"/>
      <point x="74" y="-28"/>
      <point x="168" y="-28" type="curve" smooth="yes"/>
      <point x="225" y="-28"/>
      <point x="295" y="-1"/>
      <point x="343" y="-1" type="curve" smooth="yes"/>
      <point x="377" y="-1"/>
      <point x="406" y="-23"/>
      <point x="406" y="-60" type="curve"/>
    </contour>
  </outline>
</glyph>
<glyph name="bCCha" format="1">
  <advance width="772"/>
  <outline>
    <contour>
      <point x="174" y="62" type="curve" smooth="yes"/>
      <point x="318" y="62"/>
      <point x="435" y="230"/>
      <point x="435" y="284" type="curve" smooth="yes"/>
      <point x="435" y="327"/>
      <point x="424" y="371"/>
      <point x="307" y="389" type="curve" smooth="yes"/>
      <point x="232" y="401"/>
      <point x="169" y="428"/>
      <point x="169" y="469" type="curve" smooth="yes"/>
      <point x="169" y="505"/>
      <point x="202" y="502"/>
      <point x="234" y="502" type="curve" smooth="yes"/>
      <point x="286" y="502" type="line"/>
      <point x="286" y="587" type="line"/>
      <point x="168" y="587" type="line" smooth="yes"/>
      <point x="125" y="587"/>
      <point x="96" y="560"/>
      <point x="96" y="512" type="curve"/>
      <point x="112" y="512" type="line"/>
      <point x="111" y="557"/>
      <point x="76" y="587"/>
      <point x="31" y="587" type="curve" smooth="yes"/>
      <point x="0" y="587" type="line" smooth="yes"/>
      <point x="-26" y="587"/>
      <point x="-46" y="569"/>
      <point x="-46" y="545" type="curve" smooth="yes"/>
      <point x="-46" y="521"/>
      <point x="-26" y="502"/>
      <point x="0" y="502" type="curve" smooth="yes"/>
      <point x="29" y="502" type="line" smooth="yes"/>
      <point x="71" y="502"/>
      <point x="80" y="477"/>
      <point x="80" y="422" type="curve" smooth="yes"/>
      <point x="80" y="189" type="line" smooth="yes"/>
      <point x="80" y="121"/>
      <point x="99" y="62"/>
    </contour>
    <contour>
      <point x="207" y="157" type="curve" smooth="yes"/>
      <point x="180" y="157"/>
      <point x="175" y="175"/>
      <point x="175" y="215" type="curve" smooth="yes"/>
      <point x="175" y="364" type="line"/>
      <point x="134" y="367" type="line"/>
      <point x="197" y="296"/>
      <point x="290" y="307"/>
      <point x="317" y="298" type="curve" smooth="yes"/>
      <point x="327" y="295"/>
      <point x="331" y="284"/>
      <point x="331" y="275" type="curve" smooth="yes"/>
      <point x="331" y="234"/>
      <point x="238" y="157"/>
    </contour>
    <contour>
      <point x="758" y="-82" type="curve" smooth="yes"/>
      <point x="787" y="-82"/>
      <point x="805" y="-67"/>
      <point x="805" y="-42" type="curve" smooth="yes"/>
      <point x="805" y="-19"/>
      <point x="787" y="-5"/>
      <point x="754" y="3" type="curve" smooth="yes"/>
      <point x="722" y="11"/>
      <point x="692" y="42"/>
      <point x="657" y="79" type="curve" smooth="yes"/>
      <point x="595" y="143"/>
      <point x="544" y="170"/>
      <point x="498" y="170" type="curve" smooth="yes"/>
      <point x="429" y="170"/>
      <point x="396" y="127"/>
      <point x="396" y="81" type="curve" smooth="yes"/>
      <point x="396" y="31"/>
      <point x="444" y="-4"/>
      <point x="501" y="-4" type="curve" smooth="yes"/>
      <point x="629" y="-4"/>
      <point x="752" y="109"/>
      <point x="752" y="246" type="curve" smooth="yes"/>
      <point x="752" y="352"/>
      <point x="697" y="451"/>
      <point x="564" y="451" type="curve" smooth="yes"/>
      <point x="510" y="451"/>
      <point x="469" y="446"/>
      <point x="469" y="478" type="curve" smooth="yes"/>
      <point x="469" y="496"/>
      <point x="480" y="502"/>
      <point x="507" y="502" type="curve" smooth="yes"/>
      <point x="772" y="502" type="line" smooth="yes"/>
      <point x="798" y="502"/>
      <point x="818" y="520"/>
      <point x="818" y="545" type="curve" smooth="yes"/>
      <point x="818" y="569"/>
      <point x="798" y="587"/>
      <point x="772" y="587" type="curve" smooth="yes"/>
      <point x="469" y="587" type="line" smooth="yes"/>
      <point x="417" y="587"/>
      <point x="391" y="546"/>
      <point x="391" y="521" type="curve"/>
      <point x="414" y="521" type="line"/>
      <point x="413" y="558"/>
      <point x="366" y="587"/>
      <point x="326" y="587" type="curve" smooth="yes"/>
      <point x="272" y="587" type="line" smooth="yes"/>
      <point x="246" y="587"/>
      <point x="226" y="569"/>
      <point x="226" y="545" type="curve" smooth="yes"/>
      <point x="226" y="521"/>
      <point x="246" y="502"/>
      <point x="272" y="502" type="curve" smooth="yes"/>
      <point x="308" y="502" type="line" smooth="yes"/>
      <point x="370" y="502"/>
      <point x="373" y="490"/>
      <point x="373" y="453" type="curve" smooth="yes"/>
      <point x="373" y="281" type="line" smooth="yes"/>
      <point x="373" y="230"/>
      <point x="391" y="184"/>
      <point x="470" y="184" type="curve" smooth="yes"/>
      <point x="580" y="184"/>
      <point x="648" y="290"/>
      <point x="648" y="351" type="curve" smooth="yes"/>
      <point x="648" y="376"/>
      <point x="629" y="393"/>
      <point x="613" y="393" type="curve"/>
      <point x="609" y="371" type="line"/>
      <point x="626" y="371"/>
      <point x="667" y="331"/>
      <point x="667" y="265" type="curve" smooth="yes"/>
      <point x="667" y="169"/>
      <point x="571" y="76"/>
      <point x="498" y="76" type="curve" smooth="yes"/>
      <point x="476" y="76"/>
      <point x="467" y="84"/>
      <point x="467" y="90" type="curve" smooth="yes"/>
      <point x="467" y="95"/>
      <point x="472" y="98"/>
      <point x="480" y="98" type="curve" smooth="yes"/>
      <point x="504" y="98"/>
      <point x="544" y="73"/>
      <point x="577" y="35" type="curve" smooth="yes"/>
      <point x="629" y="-24"/>
      <point x="696" y="-82"/>
    </contour>
    <contour>
      <point x="491" y="268" type="curve" smooth="yes"/>
      <point x="465" y="268"/>
      <point x="468" y="293"/>
      <point x="468" y="325" type="curve" smooth="yes"/>
      <point x="468" y="430" type="line"/>
      <point x="453" y="424" type="line"/>
      <point x="453" y="409"/>
      <point x="477" y="386"/>
      <point x="519" y="386" type="curve" smooth="yes"/>
      <point x="551" y="386"/>
      <point x="564" y="371"/>
      <point x="564" y="344" type="curve" smooth="yes"/>
      <point x="564" y="308"/>
      <point x="529" y="268"/>
    </contour>
  </outline>
</glyph>
<glyph name="bChRa" format="1">
  <advance width="548"/>
  <outline>
    <contour>
      <point x="488" y="-22" type="curve" smooth="yes"/>
      <point x="519" y="-22"/>
      <point x="545" y="-6"/>
      <point x="545" y="21" type="curve" smooth="yes"/>
      <point x="545" y="44"/>
      <point x="527" y="62"/>
      <point x="494" y="63" type="curve" smooth="yes"/>
      <point x="461" y="65"/>
      <point x="422" y="92"/>
      <point x="387" y="119" type="curve" smooth="yes"/>
      <point x="316" y="174"/>
      <point x="274" y="200"/>
      <point x="228" y="200" type="curve" smooth="yes"/>
      <point x="159" y="200"/>
      <point x="126" y="157"/>
      <point x="126" y="111" type="curve" smooth="yes"/>
      <point x="126" y="61"/>
      <point x="174" y="26"/>
      <point x="231" y="26" type="curve" smooth="yes"/>
      <point x="359" y="26"/>
      <point x="512" y="120"/>
      <point x="512" y="263" type="curve" smooth="yes"/>
      <point x="512" y="352"/>
      <point x="457" y="451"/>
      <point x="324" y="451" type="curve" smooth="yes"/>
      <point x="289" y="451"/>
      <point x="229" y="443"/>
      <point x="229" y="478" type="curve" smooth="yes"/>
      <point x="229" y="496"/>
      <point x="240" y="502"/>
      <point x="267" y="502" type="curve" smooth="yes"/>
      <point x="548" y="502" type="line" smooth="yes"/>
      <point x="574" y="502"/>
      <point x="594" y="520"/>
      <point x="594" y="545" type="curve" smooth="yes"/>
      <point x="594" y="569"/>
      <point x="574" y="587"/>
      <point x="548" y="587" type="curve" smooth="yes"/>
      <point x="238" y="587" type="line" smooth="yes"/>
      <point x="189" y="587"/>
      <point x="161" y="546"/>
      <point x="161" y="521" type="curve"/>
      <point x="174" y="521" type="line"/>
      <point x="173" y="558"/>
      <point x="126" y="587"/>
      <point x="86" y="587" type="curve" smooth="yes"/>
      <point x="0" y="587" type="line" smooth="yes"/>
      <point x="-26" y="587"/>
      <point x="-46" y="569"/>
      <point x="-46" y="545" type="curve" smooth="yes"/>
      <point x="-46" y="521"/>
      <point x="-26" y="502"/>
      <point x="0" y="502" type="curve" smooth="yes"/>
      <point x="68" y="502" type="line" smooth="yes"/>
      <point x="130" y="502"/>
      <point x="133" y="490"/>
      <point x="133" y="453" type="curve" smooth="yes"/>
      <point x="133" y="281" type="line" smooth="yes"/>
      <point x="133" y="230"/>
      <point x="151" y="184"/>
      <point x="230" y="184" type="curve" smooth="yes"/>
      <point x="326" y="184"/>
      <point x="422" y="285"/>
      <point x="422" y="357" type="curve"/>
      <point x="390" y="357" type="line"/>
      <point x="411" y="336"/>
      <point x="427" y="311"/>
      <point x="427" y="277" type="curve" smooth="yes"/>
      <point x="427" y="160"/>
      <point x="301" y="106"/>
      <point x="228" y="106" type="curve" smooth="yes"/>
      <point x="206" y="106"/>
      <point x="197" y="114"/>
      <point x="197" y="120" type="curve" smooth="yes"/>
      <point x="197" y="125"/>
      <point x="202" y="128"/>
      <point x="210" y="128" type="curve" smooth="yes"/>
      <point x="234" y="128"/>
      <point x="264" y="103"/>
      <point x="319" y="65" type="curve" smooth="yes"/>
      <point x="378" y="24"/>
      <point x="457" y="-22"/>
    </contour>
    <contour>
      <point x="251" y="268" type="curve" smooth="yes"/>
      <point x="225" y="268"/>
      <point x="228" y="293"/>
      <point x="228" y="325" type="curve" smooth="yes"/>
      <point x="228" y="430" type="line"/>
      <point x="213" y="420" type="line"/>
      <point x="216" y="397"/>
      <point x="237" y="382"/>
      <point x="279" y="382" type="curve" smooth="yes"/>
      <point x="311" y="382"/>
      <point x="334" y="371"/>
      <point x="334" y="344" type="curve" smooth="yes"/>
      <point x="334" y="308"/>
      <point x="289" y="268"/>
    </contour>
    <contour>
      <point x="436" y="-114" type="line"/>
      <point x="436" y="-71"/>
      <point x="397" y="3"/>
      <point x="318" y="3" type="curve" smooth="yes"/>
      <point x="261" y="3"/>
      <point x="208" y="-21"/>
      <point x="157" y="-21" type="curve" smooth="yes"/>
      <point x="119" y="-21"/>
      <point x="110" y="3"/>
      <point x="110" y="17" type="curve" smooth="yes"/>
      <point x="110" y="27"/>
      <point x="115" y="37"/>
      <point x="115" y="53" type="curve" smooth="yes"/>
      <point x="115" y="84"/>
      <point x="95" y="95"/>
      <point x="76" y="95" type="curve" smooth="yes"/>
      <point x="40" y="95"/>
      <point x="15" y="58"/>
      <point x="15" y="12" type="curve" smooth="yes"/>
      <point x="15" y="-59"/>
      <point x="65" y="-121"/>
      <point x="158" y="-121" type="curve" smooth="yes"/>
      <point x="250" y="-121"/>
      <point x="292" y="-90"/>
      <point x="338" y="-90" type="curve" smooth="yes"/>
      <point x="363" y="-90"/>
      <point x="384" y="-104"/>
      <point x="384" y="-134" type="curve"/>
    </contour>
    <contour>
      <point x="436" y="-200" type="curve" smooth="yes"/>
      <point x="464" y="-200"/>
      <point x="479" y="-172"/>
      <point x="479" y="-135" type="curve" smooth="yes"/>
      <point x="479" y="62" type="line"/>
      <point x="384" y="62" type="line"/>
      <point x="384" y="-134" type="line" smooth="yes"/>
      <point x="384" y="-162"/>
      <point x="397" y="-200"/>
    </contour>
  </outline>
</glyph>
<glyph name="bDhBa" format="1">
  <advance width="835"/>
  <outline>
    <contour>
      <point x="737" y="84" type="line"/>
      <point x="737" y="215"/>
      <point x="514" y="318"/>
      <point x="431" y="318" type="curve"/>
      <point x="477" y="289" type="line"/>
      <point x="679" y="357"/>
      <point x="718" y="422"/>
      <point x="718" y="476" type="curve" smooth="yes"/>
      <point x="718" y="528"/>
      <point x="681" y="587"/>
      <point x="600" y="587" type="curve" smooth="yes"/>
      <point x="480" y="587" type="line" smooth="yes"/>
      <point x="463" y="587"/>
      <point x="440" y="575"/>
      <point x="440" y="546" type="curve" smooth="yes"/>
      <point x="440" y="517"/>
      <point x="461" y="502"/>
      <point x="480" y="502" type="curve" smooth="yes"/>
      <point x="572" y="502" type="line" smooth="yes"/>
      <point x="596" y="502"/>
      <point x="648" y="505"/>
      <point x="648" y="487" type="curve" smooth="yes"/>
      <point x="648" y="460"/>
      <point x="534" y="419"/>
      <point x="396" y="362" type="curve"/>
      <point x="414" y="239" type="line"/>
      <point x="460" y="225"/>
      <point x="674" y="159"/>
      <point x="674" y="49" type="curve"/>
    </contour>
    <contour>
      <point x="721" y="-12" type="curve" smooth="yes"/>
      <point x="748" y="-12"/>
      <point x="769" y="12"/>
      <point x="769" y="44" type="curve" smooth="yes"/>
      <point x="769" y="435" type="line" smooth="yes"/>
      <point x="769" y="491"/>
      <point x="769" y="502"/>
      <point x="803" y="502" type="curve" smooth="yes"/>
      <point x="835" y="502" type="line" smooth="yes"/>
      <point x="861" y="502"/>
      <point x="881" y="520"/>
      <point x="881" y="545" type="curve" smooth="yes"/>
      <point x="881" y="569"/>
      <point x="861" y="587"/>
      <point x="835" y="587" type="curve" smooth="yes"/>
      <point x="780" y="587" type="line" smooth="yes"/>
      <point x="718" y="587"/>
      <point x="674" y="544"/>
      <point x="674" y="457" type="curve" smooth="yes"/>
      <point x="674" y="44" type="line" smooth="yes"/>
      <point x="674" y="12"/>
      <point x="694" y="-12"/>
    </contour>
    <contour>
      <point x="440" y="61" type="line"/>
      <point x="440" y="157"/>
      <point x="279" y="291"/>
      <point x="185" y="291" type="curve"/>
      <point x="185" y="271" type="line"/>
      <point x="231" y="271"/>
      <point x="424" y="342"/>
      <point x="424" y="430" type="curve"/>
      <point x="363" y="487" type="line"/>
      <point x="363" y="445"/>
      <point x="306" y="407"/>
      <point x="257" y="407" type="curve" smooth="yes"/>
      <point x="216" y="407"/>
      <point x="189" y="421"/>
      <point x="189" y="441" type="curve" smooth="yes"/>
      <point x="189" y="452"/>
      <point x="190" y="457"/>
      <point x="192" y="463" type="curve"/>
      <point x="150" y="450" type="line"/>
      <point x="167" y="432"/>
      <point x="188" y="425"/>
      <point x="209" y="425" type="curve" smooth="yes"/>
      <point x="256" y="425"/>
      <point x="301" y="463"/>
      <point x="301" y="512" type="curve" smooth="yes"/>
      <point x="301" y="582"/>
      <point x="248" y="609"/>
      <point x="199" y="609" type="curve" smooth="yes"/>
      <point x="150" y="609"/>
      <point x="82" y="575"/>
      <point x="82" y="495" type="curve" smooth="yes"/>
      <point x="82" y="407"/>
      <point x="159" y="354"/>
      <point x="230" y="354" type="curve"/>
      <point x="226" y="375" type="line"/>
      <point x="104" y="333" type="line" smooth="yes"/>
      <point x="70" y="321"/>
      <point x="57" y="300"/>
      <point x="57" y="275" type="curve" smooth="yes"/>
      <point x="57" y="243"/>
      <point x="82" y="223"/>
      <point x="121" y="212" type="curve" smooth="yes"/>
      <point x="169" y="198"/>
      <point x="361" y="154"/>
      <point x="361" y="49" type="curve"/>
    </contour>
    <contour>
      <point x="191" y="478" type="curve" smooth="yes"/>
      <point x="175" y="478"/>
      <point x="163" y="490"/>
      <point x="163" y="507" type="curve" smooth="yes"/>
      <point x="163" y="523"/>
      <point x="175" y="536"/>
      <point x="191" y="536" type="curve" smooth="yes"/>
      <point x="208" y="536"/>
      <point x="221" y="523"/>
      <point x="221" y="507" type="curve" smooth="yes"/>
      <point x="221" y="490"/>
      <point x="208" y="478"/>
    </contour>
    <contour>
      <point x="408" y="-12" type="curve" smooth="yes"/>
      <point x="435" y="-12"/>
      <point x="456" y="12"/>
      <point x="456" y="44" type="curve" smooth="yes"/>
      <point x="456" y="435" type="line" smooth="yes"/>
      <point x="456" y="491"/>
      <point x="456" y="502"/>
      <point x="490" y="502" type="curve" smooth="yes"/>
      <point x="522" y="502" type="line" smooth="yes"/>
      <point x="548" y="502"/>
      <point x="568" y="520"/>
      <point x="568" y="545" type="curve" smooth="yes"/>
      <point x="568" y="569"/>
      <point x="548" y="587"/>
      <point x="522" y="587" type="curve" smooth="yes"/>
      <point x="467" y="587" type="line" smooth="yes"/>
      <point x="405" y="587"/>
      <point x="361" y="544"/>
      <point x="361" y="457" type="curve" smooth="yes"/>
      <point x="361" y="44" type="line" smooth="yes"/>
      <point x="361" y="12"/>
      <point x="381" y="-12"/>
    </contour>
  </outline>
</glyph>
<glyph name="bDhNa" format="1">
  <advance width="489"/>
  <outline>
    <contour>
      <point x="407" y="81" type="line"/>
      <point x="407" y="169"/>
      <point x="246" y="291"/>
      <point x="152" y="291" type="curve"/>
      <point x="152" y="271" type="line"/>
      <point x="198" y="271"/>
      <point x="391" y="342"/>
      <point x="391" y="430" type="curve"/>
      <point x="330" y="487" type="line"/>
      <point x="330" y="445"/>
      <point x="273" y="407"/>
      <point x="224" y="407" type="curve" smooth="yes"/>
      <point x="183" y="407"/>
      <point x="156" y="421"/>
      <point x="156" y="441" type="curve" smooth="yes"/>
      <point x="156" y="452"/>
      <point x="157" y="457"/>
      <point x="159" y="463" type="curve"/>
      <point x="117" y="450" type="line"/>
      <point x="134" y="432"/>
      <point x="155" y="425"/>
      <point x="176" y="425" type="curve" smooth="yes"/>
      <point x="223" y="425"/>
      <point x="268" y="463"/>
      <point x="268" y="512" type="curve" smooth="yes"/>
      <point x="268" y="582"/>
      <point x="215" y="609"/>
      <point x="166" y="609" type="curve" smooth="yes"/>
      <point x="117" y="609"/>
      <point x="49" y="575"/>
      <point x="49" y="495" type="curve" smooth="yes"/>
      <point x="49" y="407"/>
      <point x="126" y="354"/>
      <point x="197" y="354" type="curve"/>
      <point x="193" y="375" type="line"/>
      <point x="71" y="333" type="line" smooth="yes"/>
      <point x="37" y="321"/>
      <point x="24" y="300"/>
      <point x="24" y="275" type="curve" smooth="yes"/>
      <point x="24" y="243"/>
      <point x="49" y="223"/>
      <point x="88" y="212" type="curve"/>
      <point x="136" y="200"/>
      <point x="328" y="161"/>
      <point x="328" y="69" type="curve"/>
    </contour>
    <contour>
      <point x="187" y="-26" type="curve" smooth="yes"/>
      <point x="174" y="-26"/>
      <point x="157" y="-17"/>
      <point x="157" y="2" type="curve" smooth="yes"/>
      <point x="157" y="19"/>
      <point x="169" y="32"/>
      <point x="185" y="32" type="curve" smooth="yes"/>
      <point x="200" y="32"/>
      <point x="215" y="21"/>
      <point x="215" y="3" type="curve" smooth="yes"/>
      <point x="215" y="-15"/>
      <point x="201" y="-26"/>
    </contour>
    <contour>
      <point x="176" y="-112" type="curve" smooth="yes"/>
      <point x="236" y="-112"/>
      <point x="288" y="-67"/>
      <point x="288" y="-9" type="curve" smooth="yes"/>
      <point x="288" y="36"/>
      <point x="257" y="86"/>
      <point x="205" y="86" type="curve"/>
      <point x="219" y="36" type="line"/>
      <point x="272" y="36"/>
      <point x="328" y="2"/>
      <point x="328" y="-67" type="curve"/>
      <point x="387" y="-38" type="line"/>
      <point x="364" y="57"/>
      <point x="292" y="129"/>
      <point x="193" y="129" type="curve" smooth="yes"/>
      <point x="92" y="129"/>
      <point x="58" y="54"/>
      <point x="58" y="3" type="curve" smooth="yes"/>
      <point x="58" y="-60"/>
      <point x="112" y="-112"/>
    </contour>
    <contour>
      <point x="375" y="-140" type="curve" smooth="yes"/>
      <point x="402" y="-140"/>
      <point x="423" y="-116"/>
      <point x="423" y="-84" type="curve" smooth="yes"/>
      <point x="423" y="435" type="line" smooth="yes"/>
      <point x="423" y="491"/>
      <point x="423" y="502"/>
      <point x="457" y="502" type="curve" smooth="yes"/>
      <point x="489" y="502" type="line" smooth="yes"/>
      <point x="515" y="502"/>
      <point x="535" y="520"/>
      <point x="535" y="545" type="curve" smooth="yes"/>
      <point x="535" y="569"/>
      <point x="515" y="587"/>
      <point x="489" y="587" type="curve" smooth="yes"/>
      <point x="434" y="587" type="line" smooth="yes"/>
      <point x="372" y="587"/>
      <point x="328" y="547"/>
      <point x="328" y="459" type="curve" smooth="yes"/>
      <point x="328" y="-84" type="line" smooth="yes"/>
      <point x="328" y="-116"/>
      <point x="348" y="-140"/>
    </contour>
    <contour>
      <point x="158" y="478" type="curve" smooth="yes"/>
      <point x="142" y="478"/>
      <point x="130" y="490"/>
      <point x="130" y="507" type="curve" smooth="yes"/>
      <point x="130" y="523"/>
      <point x="142" y="536"/>
      <point x="158" y="536" type="curve" smooth="yes"/>
      <point x="175" y="536"/>
      <point x="188" y="523"/>
      <point x="188" y="507" type="curve" smooth="yes"/>
      <point x="188" y="490"/>
      <point x="175" y="478"/>
    </contour>
  </outline>
</glyph>
<glyph name="bDhRa_bSignU" format="1">
  <advance width="733"/>
  <outline>
    <contour>
      <point x="579" y="153" type="curve" smooth="yes"/>
      <point x="661" y="153"/>
      <point x="731" y="212"/>
      <point x="731" y="306" type="curve" smooth="yes"/>
      <point x="731" y="385"/>
      <point x="681" y="448"/>
      <point x="604" y="448" type="curve" smooth="yes"/>
      <point x="538" y="448"/>
      <point x="497" y="402"/>
      <point x="497" y="351" type="curve" smooth="yes"/>
      <point x="497" y="290"/>
      <point x="556" y="256"/>
      <point x="602" y="256" type="curve" smooth="yes"/>
      <point x="651" y="256"/>
      <point x="685" y="296"/>
      <point x="685" y="338" type="curve" smooth="yes"/>
      <point x="685" y="366"/>
      <point x="671" y="394"/>
      <point x="641" y="409" type="curve"/>
      <point x="625" y="377" type="line"/>
      <point x="650" y="364"/>
      <point x="664" y="332"/>
      <point x="664" y="308" type="curve" smooth="yes"/>
      <point x="664" y="271"/>
      <point x="632" y="237"/>
      <point x="582" y="237" type="curve" smooth="yes"/>
      <point x="519" y="237"/>
      <point x="456" y="290"/>
      <point x="456" y="362" type="curve"/>
      <point x="407" y="335" type="line"/>
      <point x="407" y="256"/>
      <point x="471" y="153"/>
    </contour>
    <contour>
      <point x="733" y="502" type="line" smooth="yes"/>
      <point x="759" y="502"/>
      <point x="779" y="520"/>
      <point x="779" y="545" type="curve" smooth="yes"/>
      <point x="779" y="569"/>
      <point x="759" y="587"/>
      <point x="733" y="587" type="curve" smooth="yes"/>
      <point x="511" y="587" type="line" smooth="yes"/>
      <point x="485" y="587"/>
      <point x="465" y="569"/>
      <point x="465" y="545" type="curve" smooth="yes"/>
      <point x="465" y="521"/>
      <point x="485" y="502"/>
      <point x="511" y="502" type="curve" smooth="yes"/>
    </contour>
    <contour>
      <point x="613" y="325" type="curve" smooth="yes"/>
      <point x="600" y="325"/>
      <point x="589" y="334"/>
      <point x="589" y="348" type="curve" smooth="yes"/>
      <point x="589" y="365"/>
      <point x="600" y="372"/>
      <point x="613" y="372" type="curve" smooth="yes"/>
      <point x="624" y="372"/>
      <point x="636" y="365"/>
      <point x="636" y="348" type="curve" smooth="yes"/>
      <point x="636" y="333"/>
      <point x="624" y="325"/>
    </contour>
    <contour>
      <point x="411" y="-54" type="line"/>
      <point x="391" y="14"/>
      <point x="348" y="60"/>
      <point x="280" y="60" type="curve" smooth="yes"/>
      <point x="239" y="60"/>
      <point x="205" y="42"/>
      <point x="162" y="42" type="curve" smooth="yes"/>
      <point x="139" y="42"/>
      <point x="128" y="55"/>
      <point x="128" y="69" type="curve" smooth="yes"/>
      <point x="128" y="88"/>
      <point x="135" y="94"/>
      <point x="135" y="113" type="curve" smooth="yes"/>
      <point x="135" y="136"/>
      <point x="120" y="148"/>
      <point x="100" y="148" type="curve" smooth="yes"/>
      <point x="60" y="148"/>
      <point x="41" y="110"/>
      <point x="41" y="69" type="curve" smooth="yes"/>
      <point x="41" y="8"/>
      <point x="82" y="-50"/>
      <point x="157" y="-50" type="curve" smooth="yes"/>
      <point x="220" y="-50"/>
      <point x="251" y="-27"/>
      <point x="300" y="-27" type="curve" smooth="yes"/>
      <point x="329" y="-27"/>
      <point x="361" y="-51"/>
      <point x="361" y="-84" type="curve"/>
    </contour>
    <contour>
      <point x="440" y="61" type="line"/>
      <point x="440" y="157"/>
      <point x="279" y="291"/>
      <point x="185" y="291" type="curve"/>
      <point x="185" y="271" type="line"/>
      <point x="231" y="271"/>
      <point x="424" y="342"/>
      <point x="424" y="430" type="curve"/>
      <point x="363" y="487" type="line"/>
      <point x="363" y="445"/>
      <point x="306" y="407"/>
      <point x="257" y="407" type="curve" smooth="yes"/>
      <point x="216" y="407"/>
      <point x="189" y="421"/>
      <point x="189" y="441" type="curve" smooth="yes"/>
      <point x="189" y="452"/>
      <point x="190" y="457"/>
      <point x="192" y="463" type="curve"/>
      <point x="150" y="450" type="line"/>
      <point x="167" y="432"/>
      <point x="188" y="425"/>
      <point x="209" y="425" type="curve" smooth="yes"/>
      <point x="256" y="425"/>
      <point x="301" y="463"/>
      <point x="301" y="512" type="curve" smooth="yes"/>
      <point x="301" y="582"/>
      <point x="248" y="609"/>
      <point x="199" y="609" type="curve" smooth="yes"/>
      <point x="150" y="609"/>
      <point x="82" y="575"/>
      <point x="82" y="495" type="curve" smooth="yes"/>
      <point x="82" y="407"/>
      <point x="159" y="354"/>
      <point x="230" y="354" type="curve"/>
      <point x="226" y="375" type="line"/>
      <point x="104" y="333" type="line" smooth="yes"/>
      <point x="70" y="321"/>
      <point x="57" y="300"/>
      <point x="57" y="275" type="curve" smooth="yes"/>
      <point x="57" y="243"/>
      <point x="82" y="223"/>
      <point x="121" y="212" type="curve" smooth="yes"/>
      <point x="169" y="198"/>
      <point x="361" y="154"/>
      <point x="361" y="49" type="curve"/>
    </contour>
    <contour>
      <point x="191" y="478" type="curve" smooth="yes"/>
      <point x="175" y="478"/>
      <point x="163" y="490"/>
      <point x="163" y="507" type="curve" smooth="yes"/>
      <point x="163" y="523"/>
      <point x="175" y="536"/>
      <point x="191" y="536" type="curve" smooth="yes"/>
      <point x="208" y="536"/>
      <point x="221" y="523"/>
      <point x="221" y="507" type="curve" smooth="yes"/>
      <point x="221" y="490"/>
      <point x="208" y="478"/>
    </contour>
    <contour>
      <point x="408" y="-140" type="curve" smooth="yes"/>
      <point x="435" y="-140"/>
      <point x="456" y="-116"/>
      <point x="456" y="-84" type="curve" smooth="yes"/>
      <point x="456" y="435" type="line" smooth="yes"/>
      <point x="456" y="491"/>
      <point x="456" y="502"/>
      <point x="490" y="502" type="curve" smooth="yes"/>
      <point x="522" y="502" type="line" smooth="yes"/>
      <point x="548" y="502"/>
      <point x="568" y="520"/>
      <point x="568" y="545" type="curve" smooth="yes"/>
      <point x="568" y="569"/>
      <point x="548" y="587"/>
      <point x="522" y="587" type="curve" smooth="yes"/>
      <point x="467" y="587" type="line" smooth="yes"/>
      <point x="405" y="587"/>
      <point x="361" y="544"/>
      <point x="361" y="457" type="curve" smooth="yes"/>
      <point x="361" y="-84" type="line" smooth="yes"/>
      <point x="361" y="-116"/>
      <point x="381" y="-140"/>
    </contour>
  </outline>
</glyph>
<glyph name="bGDa" format="1">
  <advance width="798"/>
  <outline>
    <contour>
      <point x="686" y="-52" type="curve" smooth="yes"/>
      <point x="719" y="-52"/>
      <point x="731" y="-20"/>
      <point x="731" y="28" type="curve" smooth="yes"/>
      <point x="731" y="91"/>
      <point x="715" y="164"/>
      <point x="715" y="232" type="curve" smooth="yes"/>
      <point x="715" y="313"/>
      <point x="744" y="370"/>
      <point x="744" y="410" type="curve" smooth="yes"/>
      <point x="744" y="428"/>
      <point x="736" y="451"/>
      <point x="700" y="451" type="curve" smooth="yes"/>
      <point x="657" y="451"/>
      <point x="551" y="369"/>
      <point x="456" y="273" type="curve"/>
      <point x="475" y="255" type="line"/>
      <point x="475" y="406" type="line" smooth="yes"/>
      <point x="475" y="455"/>
      <point x="473" y="502"/>
      <point x="523" y="502" type="curve" smooth="yes"/>
      <point x="798" y="502" type="line" smooth="yes"/>
      <point x="824" y="502"/>
      <point x="844" y="520"/>
      <point x="844" y="545" type="curve" smooth="yes"/>
      <point x="844" y="569"/>
      <point x="824" y="587"/>
      <point x="798" y="587" type="curve" smooth="yes"/>
      <point x="492" y="587" type="line" smooth="yes"/>
      <point x="421" y="587"/>
      <point x="380" y="577"/>
      <point x="380" y="485" type="curve" smooth="yes"/>
      <point x="380" y="201" type="line" smooth="yes"/>
      <point x="380" y="163"/>
      <point x="397" y="144"/>
      <point x="425" y="144" type="curve" smooth="yes"/>
      <point x="457" y="144"/>
      <point x="475" y="160"/>
      <point x="524" y="209" type="curve" smooth="yes"/>
      <point x="566" y="251"/>
      <point x="627" y="320"/>
      <point x="672" y="351" type="curve"/>
      <point x="669" y="357" type="line"/>
      <point x="632" y="332"/>
      <point x="623" y="268"/>
      <point x="623" y="223" type="curve" smooth="yes"/>
      <point x="623" y="165"/>
      <point x="635" y="91"/>
      <point x="635" y="28" type="curve" smooth="yes"/>
      <point x="635" y="-25"/>
      <point x="655" y="-52"/>
    </contour>
    <contour>
      <point x="123" y="110" type="curve" smooth="yes"/>
      <point x="216" y="110"/>
      <point x="342" y="209"/>
      <point x="342" y="306" type="curve" smooth="yes"/>
      <point x="342" y="366"/>
      <point x="309" y="411"/>
      <point x="250" y="411" type="curve" smooth="yes"/>
      <point x="214" y="411"/>
      <point x="195" y="394"/>
      <point x="162" y="394" type="curve" smooth="yes"/>
      <point x="133" y="394"/>
      <point x="118" y="411"/>
      <point x="118" y="429" type="curve" smooth="yes"/>
      <point x="118" y="453"/>
      <point x="146" y="488"/>
      <point x="212" y="488" type="curve" smooth="yes"/>
      <point x="289" y="488"/>
      <point x="380" y="426"/>
      <point x="380" y="320" type="curve"/>
      <point x="397" y="464" type="line"/>
      <point x="381" y="528"/>
      <point x="277" y="593"/>
      <point x="202" y="593" type="curve" smooth="yes"/>
      <point x="79" y="593"/>
      <point x="9" y="511"/>
      <point x="9" y="425" type="curve" smooth="yes"/>
      <point x="9" y="358"/>
      <point x="51" y="301"/>
      <point x="133" y="301" type="curve" smooth="yes"/>
      <point x="178" y="301"/>
      <point x="200" y="318"/>
      <point x="225" y="318" type="curve" smooth="yes"/>
      <point x="242" y="318"/>
      <point x="250" y="310"/>
      <point x="250" y="296" type="curve" smooth="yes"/>
      <point x="250" y="267"/>
      <point x="175" y="233"/>
      <point x="136" y="216" type="curve" smooth="yes"/>
      <point x="89" y="195"/>
      <point x="72" y="177"/>
      <point x="72" y="152" type="curve" smooth="yes"/>
      <point x="72" y="131"/>
      <point x="85" y="110"/>
    </contour>
  </outline>
</glyph>
<glyph name="bGRa" format="1">
  <advance width="585"/>
  <outline>
    <contour>
      <point x="198" y="142" type="curve" smooth="yes"/>
      <point x="268" y="142"/>
      <point x="380" y="218"/>
      <point x="380" y="306" type="curve" smooth="yes"/>
      <point x="380" y="366"/>
      <point x="347" y="411"/>
      <point x="288" y="411" type="curve" smooth="yes"/>
      <point x="252" y="411"/>
      <point x="233" y="394"/>
      <point x="200" y="394" type="curve" smooth="yes"/>
      <point x="171" y="394"/>
      <point x="156" y="411"/>
      <point x="156" y="429" type="curve" smooth="yes"/>
      <point x="156" y="453"/>
      <point x="184" y="488"/>
      <point x="250" y="488" type="curve" smooth="yes"/>
      <point x="345" y="488"/>
      <point x="424" y="425"/>
      <point x="424" y="299" type="curve"/>
      <point x="463" y="451" type="line"/>
      <point x="422" y="550"/>
      <point x="327" y="593"/>
      <point x="240" y="593" type="curve" smooth="yes"/>
      <point x="117" y="593"/>
      <point x="47" y="511"/>
      <point x="47" y="425" type="curve" smooth="yes"/>
      <point x="47" y="358"/>
      <point x="89" y="301"/>
      <point x="171" y="301" type="curve" smooth="yes"/>
      <point x="216" y="301"/>
      <point x="238" y="318"/>
      <point x="263" y="318" type="curve" smooth="yes"/>
      <point x="280" y="318"/>
      <point x="288" y="310"/>
      <point x="288" y="296" type="curve" smooth="yes"/>
      <point x="288" y="279"/>
      <point x="256" y="253"/>
      <point x="200" y="234" type="curve" smooth="yes"/>
      <point x="163" y="222"/>
      <point x="141" y="211"/>
      <point x="141" y="185" type="curve" smooth="yes"/>
      <point x="141" y="159"/>
      <point x="165" y="142"/>
    </contour>
    <contour>
      <point x="471" y="25" type="line"/>
      <point x="448" y="88"/>
      <point x="399" y="117"/>
      <point x="342" y="117" type="curve" smooth="yes"/>
      <point x="286" y="117"/>
      <point x="215" y="98"/>
      <point x="161" y="98" type="curve" smooth="yes"/>
      <point x="121" y="98"/>
      <point x="104" y="120"/>
      <point x="104" y="141" type="curve" smooth="yes"/>
      <point x="104" y="165"/>
      <point x="114" y="171"/>
      <point x="114" y="195" type="curve" smooth="yes"/>
      <point x="114" y="215"/>
      <point x="99" y="228"/>
      <point x="75" y="228" type="curve" smooth="yes"/>
      <point x="33" y="228"/>
      <point x="16" y="182"/>
      <point x="16" y="141" type="curve" smooth="yes"/>
      <point x="16" y="81"/>
      <point x="62" y="-2"/>
      <point x="156" y="-2" type="curve" smooth="yes"/>
      <point x="243" y="-2"/>
      <point x="305" y="29"/>
      <point x="356" y="29" type="curve" smooth="yes"/>
      <point x="395" y="29"/>
      <point x="424" y="0"/>
      <point x="424" y="-26" type="curve"/>
    </contour>
    <contour>
      <point x="471" y="-82" type="curve" smooth="yes"/>
      <point x="500" y="-82"/>
      <point x="519" y="-61"/>
      <point x="519" y="-26" type="curve" smooth="yes"/>
      <point x="519" y="435" type="line" smooth="yes"/>
      <point x="519" y="491"/>
      <point x="519" y="502"/>
      <point x="553" y="502" type="curve" smooth="yes"/>
      <point x="585" y="502" type="line" smooth="yes"/>
      <point x="611" y="502"/>
      <point x="631" y="520"/>
      <point x="631" y="545" type="curve" smooth="yes"/>
      <point x="631" y="569"/>
      <point x="611" y="587"/>
      <point x="585" y="587" type="curve" smooth="yes"/>
      <point x="530" y="587" type="line" smooth="yes"/>
      <point x="480" y="587"/>
      <point x="424" y="558"/>
      <point x="424" y="459" type="curve" smooth="yes"/>
      <point x="424" y="-26" type="line" smooth="yes"/>
      <point x="424" y="-58"/>
      <point x="441" y="-82"/>
    </contour>
  </outline>
</glyph>
<glyph name="bGRa_bSignU" format="1">
  <advance width="808"/>
  <outline>
    <contour>
      <point x="642" y="153" type="curve" smooth="yes"/>
      <point x="724" y="153"/>
      <point x="794" y="212"/>
      <point x="794" y="306" type="curve" smooth="yes"/>
      <point x="794" y="385"/>
      <point x="744" y="448"/>
      <point x="667" y="448" type="curve" smooth="yes"/>
      <point x="601" y="448"/>
      <point x="560" y="402"/>
      <point x="560" y="351" type="curve" smooth="yes"/>
      <point x="560" y="290"/>
      <point x="619" y="256"/>
      <point x="665" y="256" type="curve" smooth="yes"/>
      <point x="714" y="256"/>
      <point x="748" y="296"/>
      <point x="748" y="338" type="curve" smooth="yes"/>
      <point x="748" y="366"/>
      <point x="734" y="394"/>
      <point x="704" y="409" type="curve"/>
      <point x="688" y="377" type="line"/>
      <point x="713" y="364"/>
      <point x="727" y="332"/>
      <point x="727" y="308" type="curve" smooth="yes"/>
      <point x="727" y="271"/>
      <point x="695" y="237"/>
      <point x="645" y="237" type="curve" smooth="yes"/>
      <point x="582" y="237"/>
      <point x="519" y="290"/>
      <point x="519" y="362" type="curve"/>
      <point x="470" y="335" type="line"/>
      <point x="470" y="256"/>
      <point x="534" y="153"/>
    </contour>
    <contour>
      <point x="808" y="502" type="line" smooth="yes"/>
      <point x="834" y="502"/>
      <point x="854" y="520"/>
      <point x="854" y="545" type="curve" smooth="yes"/>
      <point x="854" y="569"/>
      <point x="834" y="587"/>
      <point x="808" y="587" type="curve" smooth="yes"/>
      <point x="586" y="587" type="line" smooth="yes"/>
      <point x="560" y="587"/>
      <point x="540" y="569"/>
      <point x="540" y="545" type="curve" smooth="yes"/>
      <point x="540" y="521"/>
      <point x="560" y="502"/>
      <point x="586" y="502" type="curve" smooth="yes"/>
    </contour>
    <contour>
      <point x="676" y="325" type="curve" smooth="yes"/>
      <point x="663" y="325"/>
      <point x="652" y="334"/>
      <point x="652" y="348" type="curve" smooth="yes"/>
      <point x="652" y="365"/>
      <point x="663" y="372"/>
      <point x="676" y="372" type="curve" smooth="yes"/>
      <point x="687" y="372"/>
      <point x="699" y="365"/>
      <point x="699" y="348" type="curve" smooth="yes"/>
      <point x="699" y="333"/>
      <point x="687" y="325"/>
    </contour>
    <contour>
      <point x="198" y="142" type="curve" smooth="yes"/>
      <point x="268" y="142"/>
      <point x="380" y="218"/>
      <point x="380" y="306" type="curve" smooth="yes"/>
      <point x="380" y="366"/>
      <point x="347" y="411"/>
      <point x="288" y="411" type="curve" smooth="yes"/>
      <point x="252" y="411"/>
      <point x="233" y="394"/>
      <point x="200" y="394" type="curve" smooth="yes"/>
      <point x="171" y="394"/>
      <point x="156" y="411"/>
      <point x="156" y="429" type="curve" smooth="yes"/>
      <point x="156" y="453"/>
      <point x="184" y="488"/>
      <point x="250" y="488" type="curve" smooth="yes"/>
      <point x="345" y="488"/>
      <point x="424" y="425"/>
      <point x="424" y="299" type="curve"/>
      <point x="463" y="451" type="line"/>
      <point x="422" y="550"/>
      <point x="327" y="593"/>
      <point x="240" y="593" type="curve" smooth="yes"/>
      <point x="117" y="593"/>
      <point x="47" y="511"/>
      <point x="47" y="425" type="curve" smooth="yes"/>
      <point x="47" y="358"/>
      <point x="89" y="301"/>
      <point x="171" y="301" type="curve" smooth="yes"/>
      <point x="216" y="301"/>
      <point x="238" y="318"/>
      <point x="263" y="318" type="curve" smooth="yes"/>
      <point x="280" y="318"/>
      <point x="288" y="310"/>
      <point x="288" y="296" type="curve" smooth="yes"/>
      <point x="288" y="279"/>
      <point x="256" y="253"/>
      <point x="200" y="234" type="curve" smooth="yes"/>
      <point x="163" y="222"/>
      <point x="141" y="211"/>
      <point x="141" y="185" type="curve" smooth="yes"/>
      <point x="141" y="159"/>
      <point x="165" y="142"/>
    </contour>
    <contour>
      <point x="471" y="25" type="line"/>
      <point x="448" y="88"/>
      <point x="399" y="117"/>
      <point x="342" y="117" type="curve" smooth="yes"/>
      <point x="286" y="117"/>
      <point x="215" y="98"/>
      <point x="161" y="98" type="curve" smooth="yes"/>
      <point x="121" y="98"/>
      <point x="104" y="120"/>
      <point x="104" y="141" type="curve" smooth="yes"/>
      <point x="104" y="165"/>
      <point x="114" y="171"/>
      <point x="114" y="195" type="curve" smooth="yes"/>
      <point x="114" y="215"/>
      <point x="99" y="228"/>
      <point x="75" y="228" type="curve" smooth="yes"/>
      <point x="33" y="228"/>
      <point x="16" y="182"/>
      <point x="16" y="141" type="curve" smooth="yes"/>
      <point x="16" y="81"/>
      <point x="62" y="-2"/>
      <point x="156" y="-2" type="curve" smooth="yes"/>
      <point x="243" y="-2"/>
      <point x="305" y="29"/>
      <point x="356" y="29" type="curve" smooth="yes"/>
      <point x="395" y="29"/>
      <point x="424" y="0"/>
      <point x="424" y="-26" type="curve"/>
    </contour>
    <contour>
      <point x="471" y="-82" type="curve" smooth="yes"/>
      <point x="500" y="-82"/>
      <point x="519" y="-61"/>
      <point x="519" y="-26" type="curve" smooth="yes"/>
      <point x="519" y="435" type="line" smooth="yes"/>
      <point x="519" y="491"/>
      <point x="519" y="502"/>
      <point x="553" y="502" type="curve" smooth="yes"/>
      <point x="585" y="502" type="line" smooth="yes"/>
      <point x="611" y="502"/>
      <point x="631" y="520"/>
      <point x="631" y="545" type="curve" smooth="yes"/>
      <point x="631" y="569"/>
      <point x="611" y="587"/>
      <point x="585" y="587" type="curve" smooth="yes"/>
      <point x="530" y="587" type="line" smooth="yes"/>
      <point x="480" y="587"/>
      <point x="424" y="558"/>
      <point x="424" y="459" type="curve" smooth="yes"/>
      <point x="424" y="-26" type="line" smooth="yes"/>
      <point x="424" y="-58"/>
      <point x="441" y="-82"/>
    </contour>
  </outline>
</glyph>
